<svg xmlns="http://www.w3.org/2000/svg" xmlns:xlink="http://www.w3.org/1999/xlink" version="1.1" x="0px" y="0px" viewBox="0 0 100 125" style="enable-background:new 0 0 100 100;" xml:space="preserve"><path d="M61.24,63.51c2.25-3.69,3.48-8.53,3.48-13.62V6.31c0-0.73-0.52-1.3-1.19-1.3H36.47c-0.67,0-1.19,0.57-1.19,1.3v43.58  c0,5.01,1.25,9.82,3.53,13.53c2.18,3.55,5.16,5.87,8.46,6.6v17.93l-9.44,5.33c-0.36,0.21-0.54,0.63-0.44,1.03  c0.11,0.4,0.47,0.68,0.89,0.68h23.44c0.42,0,0.78-0.28,0.89-0.68c0.11-0.4-0.07-0.83-0.44-1.03l-9.44-5.33V70.03  C56.08,69.37,59.07,67.08,61.24,63.51z M51.37,89.28l6.86,3.88H41.77l6.86-3.88c0.29-0.16,0.47-0.47,0.47-0.8V69.25  c0-0.46-0.34-0.84-0.79-0.91c-6.39-0.91-11.2-8.85-11.2-18.46V16.37h20.4c0.51,0,0.92-0.41,0.92-0.92s-0.41-0.92-0.92-0.92h-20.4  v-7.7h25.78v43.05c0,4.76-1.14,9.26-3.22,12.67c-2.05,3.36-4.87,5.42-7.96,5.78c-0.46,0.05-0.81,0.45-0.81,0.91v19.23  C50.9,88.82,51.08,89.12,51.37,89.28z M51.31,64.2c-0.24-0.45-0.08-1,0.37-1.25c3.28-1.79,5.54-5.44,6.73-10.84  c0.05-0.22,0.08-0.35,0.11-0.45c0.15-0.49,0.66-0.76,1.14-0.61c0.49,0.15,0.76,0.66,0.61,1.14c-0.01,0.04-0.04,0.19-0.07,0.32  c-1.31,5.94-3.88,10-7.65,12.05c-0.14,0.08-0.29,0.11-0.44,0.11C51.79,64.68,51.48,64.5,51.31,64.2z"/></svg>