<svg xmlns="http://www.w3.org/2000/svg" data-name="Layer 1" viewBox="0 0 100 125" x="0px" y="0px"><title>a</title><path d="M44.766,50.177H41.751V32.087A1.156,1.156,0,0,0,40.6,30.93H38.217l.016-20.772a3.285,3.285,0,0,0,0-.384c0-.031-.005-.061-.007-.092s0-.043,0-.064a3.094,3.094,0,0,0-1.617-2.431C34.131,5.77,29.181,6.8,25.337,9.532c-2.6,1.851-4.1,4.081-4.012,5.965a3.265,3.265,0,0,0,.08.575L21.351,30.93H18.916a1.157,1.157,0,0,0-1.157,1.157v18.09H14.745a1.157,1.157,0,0,0-1.157,1.157v35.6a6.517,6.517,0,0,0,6.51,6.509H39.413a6.516,6.516,0,0,0,6.509-6.509v-35.6A1.157,1.157,0,0,0,44.766,50.177ZM26.677,11.417h0c3.329-2.366,7.3-3.07,8.781-2.222a.786.786,0,0,1,.462.615v.272c-.088.894-1.027,2.344-3.035,3.772-3.329,2.367-7.3,3.071-8.781,2.222a.778.778,0,0,1-.468-.692C23.593,14.516,24.517,12.953,26.677,11.417Zm-2.967,7a6.62,6.62,0,0,0,2.085.3,15.5,15.5,0,0,0,8.43-2.98,14.184,14.184,0,0,0,1.692-1.4L35.9,30.93H23.664Zm-3.638,14.83H39.438V50.177H20.072ZM43.609,86.939a4.2,4.2,0,0,1-4.2,4.2H20.1a4.2,4.2,0,0,1-4.2-4.2V60.3H36.093a1.157,1.157,0,0,0,0-2.313H15.9V52.49H43.609Zm-19.9-18.92V86.067a1.157,1.157,0,1,1-2.313,0V68.019a1.157,1.157,0,1,1,2.313,0Zm61.544-29.6H55.234a1.157,1.157,0,0,0-1.156,1.157V86.939a6.516,6.516,0,0,0,6.509,6.509H79.9a6.517,6.517,0,0,0,6.51-6.509V39.578A1.157,1.157,0,0,0,85.255,38.421ZM84.1,86.939a4.2,4.2,0,0,1-4.2,4.2H60.587a4.2,4.2,0,0,1-4.2-4.2V47.772H76.582a1.157,1.157,0,1,0,0-2.314H56.391V40.735H84.1ZM64.2,61.052V84.281a1.157,1.157,0,0,1-2.314,0V61.052a1.157,1.157,0,0,1,2.314,0Z"/></svg>