<svg xmlns="http://www.w3.org/2000/svg" version="1.1" viewBox="-5.0 -10.0 110.0 135.0">
 <g>
  <path d="m50.016 98.957c-0.35938 0-0.69531-0.1875-0.88672-0.49219-11.086-17.953-28.613-9.582-29.355-9.2188h0.003906c-0.50391 0.24609-1.1094 0.054687-1.3789-0.4375l-7.7266-14.285c-0.22656-0.41797-0.14062-0.93359 0.20703-1.2578 10.355-9.6562 14.93-18.441 13.605-26.109-1.6406-9.4844-12.023-14.078-12.129-14.125-0.45703-0.19531-0.71094-0.68359-0.60938-1.168l2.875-13.867c0.10938-0.51953 0.58984-0.875 1.1172-0.82812 19.848 1.8398 24.625-14.656 24.82-15.359 0.125-0.45312 0.53516-0.76562 1.0039-0.76562h16.875c0.46875 0 0.88281 0.3125 1.0039 0.76562 0.19141 0.70312 4.9609 17.191 24.82 15.359 0.52734-0.042969 1.0039 0.30859 1.1172 0.82812l2.875 13.867c0.097656 0.48438-0.15234 0.97266-0.60547 1.168-0.10547 0.046875-10.492 4.6406-12.129 14.125-1.3242 7.668 3.2539 16.453 13.605 26.109h-0.003906c0.34766 0.32422 0.43359 0.83984 0.20703 1.2578l-7.7266 14.285c-0.26562 0.49219-0.875 0.68359-1.3789 0.4375-0.74219-0.36328-18.254-8.6992-29.32 9.2188-0.1875 0.30469-0.52344 0.49219-0.88672 0.49219zm-19.855-13.949c6.2148 0 13.859 2.2266 19.859 11 10.582-15.473 26.254-10.582 30.203-9.0234l6.8945-12.746c-10.492-9.9609-15.082-19.195-13.648-27.453 1.582-9.1055 9.9531-13.977 12.582-15.301l-2.5273-12.168c-18.355 1.2188-24.582-12.723-25.836-16.191h-15.375c-1.2539 3.4688-7.457 17.418-25.836 16.191l-2.5234 12.168c2.6289 1.3203 10.996 6.1953 12.582 15.301 1.4336 8.2578-3.1562 17.492-13.648 27.453l6.8945 12.746c3.3086-1.2852 6.8281-1.957 10.379-1.9766z"/>
  <path d="m50.02 90.574c-0.27344-0.003907-0.53906-0.11328-0.73828-0.30469-0.097656-0.097656-0.17578-0.21484-0.23047-0.34375-0.097656-0.25391-0.097656-0.53516 0-0.78906 0.058594-0.12891 0.13672-0.24609 0.23047-0.34375 0.24609-0.24219 0.59766-0.34766 0.9375-0.28125 0.070312 0.011719 0.13672 0.03125 0.19922 0.0625 0.0625 0.019531 0.12109 0.050781 0.17578 0.09375 0.058594 0.03125 0.10938 0.074219 0.15625 0.125 0.19531 0.19531 0.30859 0.46094 0.3125 0.73828-0.003906 0.13672-0.03125 0.26953-0.082031 0.39453-0.050781 0.13281-0.12891 0.25-0.23047 0.34375-0.046875 0.050781-0.097656 0.09375-0.15625 0.125-0.054688 0.042969-0.11328 0.074219-0.17578 0.09375-0.0625 0.03125-0.12891 0.050781-0.19922 0.0625-0.066406 0.011719-0.13281 0.019531-0.19922 0.023438z"/>
  <path d="m50.016 90.574c-0.28516 0-0.5625-0.12109-0.75781-0.32812-0.43359-0.46094-0.875-0.89844-1.3164-1.3125-0.41797-0.39453-0.44141-1.0547-0.046875-1.4727 0.39062-0.42188 1.0508-0.44141 1.4727-0.050782 0.47266 0.44141 0.94531 0.91016 1.4102 1.4062h-0.003906c0.28516 0.30469 0.36328 0.74609 0.19922 1.1289-0.16406 0.37891-0.53906 0.62891-0.95703 0.62891z"/>
  <path d="m44.051 85.719c-0.18359 0-0.36719-0.050781-0.53125-0.14453-0.50781-0.3125-1.0508-0.61719-1.6133-0.89844-0.24609-0.12109-0.43359-0.33984-0.51953-0.60156-0.085938-0.26172-0.0625-0.54688 0.0625-0.79297 0.25781-0.51172 0.88281-0.71875 1.3945-0.45703 0.58203 0.29297 1.1758 0.625 1.75 0.96875 0.3125 0.1875 0.50391 0.51953 0.51172 0.88281 0 0.19141-0.054688 0.38281-0.15625 0.54297-0.19141 0.3125-0.53125 0.50391-0.89844 0.5zm-7.082-2.9492c-0.085938 0-0.16797-0.007812-0.25-0.03125-0.59375-0.14453-1.1992-0.28125-1.8125-0.38672v0.003907c-0.27344-0.046875-0.51562-0.20312-0.67578-0.42969-0.15625-0.22656-0.21875-0.50781-0.16797-0.78125 0.10938-0.55859 0.64453-0.93359 1.207-0.84375 0.65625 0.125 1.3242 0.26172 1.957 0.41797h0.003907c0.46094 0.11719 0.78125 0.53516 0.78125 1.0117 0 0.085937-0.011719 0.17578-0.03125 0.25781-0.12109 0.46094-0.53516 0.78516-1.0117 0.78125zm-9.5625-0.69531c-0.53906 0-0.98828-0.41406-1.0312-0.94922-0.023438-0.27734 0.0625-0.55469 0.23828-0.76953 0.17969-0.21484 0.43359-0.34375 0.71094-0.36719 0.66797-0.0625 1.332-0.09375 1.9805-0.11328h0.03125-0.003907c0.56641-0.007812 1.0312 0.44531 1.043 1.0117v0.03125c0 0.5625-0.44531 1.0234-1.0117 1.0391-0.60547 0.011719-1.207 0.050781-1.8555 0.10547h0.003907c-0.035157 0.007812-0.070313 0.011719-0.10547 0.011719z"/>
  <path d="m21.719 83.094c-0.27344-0.003906-0.53516-0.10938-0.73047-0.30078-0.046875-0.050781-0.09375-0.10156-0.13281-0.15625l-0.09375-0.1875-0.0625-0.1875c-0.011719-0.070313-0.019531-0.14062-0.023438-0.21094 0.003907-0.3125 0.14453-0.60547 0.38672-0.80469 0.24219-0.19531 0.55859-0.27344 0.86328-0.21484 0.13281 0.027344 0.26172 0.082031 0.375 0.15625l0.15625 0.125c0.19531 0.19531 0.30469 0.46484 0.30469 0.73828 0 0.27734-0.10938 0.54688-0.30469 0.74219-0.19531 0.19141-0.46094 0.30078-0.73828 0.30078z"/>
  <path d="m21.723 83.094c-0.38281 0-0.73438-0.20703-0.91797-0.54688l-0.95703-1.7656h0.003906c-0.13281-0.24219-0.16406-0.52734-0.082031-0.79297 0.078125-0.26562 0.25781-0.48828 0.5-0.61719 0.24609-0.13281 0.53125-0.16406 0.79688-0.082032 0.26172 0.078126 0.48438 0.25781 0.61719 0.50391l0.95703 1.7656h-0.003906c0.17578 0.32031 0.16797 0.71094-0.019531 1.0273-0.1875 0.31641-0.52734 0.50781-0.89453 0.50781z"/>
  <path d="m17.906 76.031c-0.27734 0-0.54297-0.10938-0.73828-0.30078-0.097657-0.10156-0.17578-0.21875-0.23047-0.34375-0.050781-0.12891-0.074219-0.26172-0.074219-0.39844 0-0.3125 0.13672-0.60547 0.37891-0.80469 0.23828-0.19922 0.55469-0.27734 0.86328-0.21484 0.066406 0.011719 0.13281 0.03125 0.19531 0.0625 0.066407 0.019531 0.125 0.050781 0.17969 0.09375 0.054687 0.035156 0.10547 0.078125 0.15625 0.125 0.19531 0.19531 0.30859 0.46094 0.3125 0.73828-0.003907 0.13672-0.03125 0.27344-0.085938 0.39844-0.054687 0.125-0.13281 0.24219-0.22656 0.34375-0.050781 0.042969-0.10547 0.085937-0.15625 0.125-0.054688 0.039062-0.11328 0.070312-0.17969 0.09375-0.0625 0.027343-0.12891 0.050781-0.19531 0.0625-0.066407 0.011719-0.13281 0.019531-0.19922 0.019531z"/>
  <path d="m17.902 76.031c-0.42188 0-0.80078-0.25391-0.96094-0.64062-0.16406-0.38672-0.078125-0.83203 0.21484-1.1289 0.52344-0.53516 1.0352-1.0703 1.5273-1.6055 0.39062-0.41797 1.0469-0.44141 1.4688-0.054688 0.41797 0.39063 0.44531 1.0469 0.0625 1.4688-0.50781 0.54688-1.0273 1.0977-1.5664 1.6484h-0.003907c-0.19531 0.19922-0.46484 0.3125-0.74219 0.3125z"/>
  <path d="m23.762 69.23c-0.22656 0.003906-0.44531-0.066407-0.625-0.19922-0.26172-0.19922-0.41406-0.50781-0.41797-0.83203-0.003906-0.22656 0.066406-0.44531 0.19922-0.625 0.48047-0.64453 0.89453-1.2305 1.2695-1.8008v-0.003907c0.33203-0.46094 0.96875-0.58594 1.4492-0.28125 0.22656 0.15625 0.38672 0.39453 0.4375 0.66797 0.054687 0.26953-0.003907 0.55078-0.15625 0.78125-0.40625 0.60547-0.83203 1.2188-1.3242 1.875-0.19922 0.26172-0.50781 0.41406-0.83203 0.41797zm4.5938-7.6875c-0.14844 0-0.29297-0.035157-0.42969-0.09375-0.36719-0.17188-0.60156-0.54297-0.60156-0.94922 0-0.14844 0.027343-0.29297 0.082031-0.42578 0.3125-0.67578 0.59375-1.3555 0.83203-2.0117 0.21094-0.52734 0.79688-0.79688 1.3359-0.61328 0.53906 0.19922 0.8125 0.80078 0.61328 1.3438-0.26172 0.69922-0.55078 1.418-0.875 2.1367v-0.003907c-0.17188 0.37891-0.54688 0.61719-0.95703 0.61719zm2.3945-8.6172h-0.10547c-0.53125-0.050781-0.94141-0.49609-0.94531-1.0312-0.003907-0.035156 0-0.070312 0.007812-0.10156 0.0625-0.66797 0.09375-1.3438 0.09375-2.0117v-0.125c0-0.27734 0.10547-0.54297 0.30469-0.73828 0.19141-0.19531 0.45312-0.30469 0.72656-0.30469 0.57422-0.003906 1.0469 0.45703 1.0547 1.0312v0.13672c0 0.73828-0.03125 1.4805-0.10547 2.207-0.046875 0.53516-0.49609 0.94141-1.0312 0.9375zm-0.98828-8.8555v0.003907c-0.44922 0.003906-0.85156-0.28516-0.99219-0.71094-0.22266-0.67578-0.48047-1.3398-0.78125-1.9883-0.11719-0.25-0.125-0.53906-0.027343-0.79688 0.097656-0.25781 0.29687-0.46875 0.55078-0.57812 0.52344-0.22266 1.1289 0.007812 1.375 0.51953 0.32422 0.71484 0.61328 1.4453 0.86328 2.1875 0.03125 0.10938 0.050781 0.22266 0.050781 0.33594-0.003906 0.44531-0.29297 0.83984-0.71875 0.97656-0.10156 0.039063-0.21094 0.054688-0.32031 0.054688zm-4.4609-7.7266c-0.30469 0-0.58984-0.13281-0.78906-0.36328-0.44922-0.51953-0.92578-1.043-1.4688-1.582v-0.003907c-0.40625-0.40625-0.40625-1.0625 0-1.4688 0.40625-0.39062 1.0508-0.39844 1.4688-0.007812 0.5625 0.5625 1.0938 1.1367 1.582 1.707 0.17969 0.21094 0.26953 0.48438 0.24609 0.75781-0.019532 0.27734-0.15234 0.53125-0.35938 0.71094-0.1875 0.16406-0.42969 0.25391-0.67969 0.25z"/>
  <path d="m18.512 30.488c-0.27734-0.003906-0.54297-0.10938-0.74219-0.30078-0.089843-0.10156-0.16406-0.21875-0.21875-0.34375-0.050781-0.125-0.082031-0.26172-0.082031-0.39453-0.003906-0.42578 0.25-0.80859 0.64062-0.96875 0.39062-0.16406 0.84375-0.074219 1.1406 0.22656 0.050781 0.050781 0.09375 0.10547 0.125 0.16797 0.039062 0.054688 0.074219 0.11328 0.10547 0.17578 0.023437 0.066407 0.039062 0.13281 0.050781 0.19922 0.015625 0.0625 0.023438 0.13281 0.019531 0.19922 0.003907 0.13281-0.023437 0.26953-0.070312 0.39453-0.058594 0.125-0.13672 0.24219-0.23047 0.34375-0.19922 0.19141-0.46484 0.30078-0.73828 0.30078z"/>
  <path d="m18.516 30.488c-0.3125 0-0.60938-0.14062-0.80859-0.38281-0.19922-0.24219-0.27734-0.5625-0.21094-0.86719l0.3125-1.5039h-0.003906c0.054687-0.27344 0.21875-0.51172 0.44922-0.66406 0.23047-0.15234 0.51172-0.20703 0.78516-0.14844 0.26953 0.054687 0.50781 0.21875 0.66016 0.44922 0.15234 0.23047 0.20312 0.51562 0.14453 0.78516l-0.3125 1.5039h0.003906c-0.10156 0.48438-0.52734 0.82812-1.0195 0.82812z"/>
  <path d="m19.762 24.48c-0.28125-0.003907-0.54688-0.11719-0.74219-0.3125-0.19141-0.19531-0.30078-0.45703-0.30078-0.73047 0-0.27734 0.10938-0.54297 0.30078-0.73828 0.050781-0.050781 0.10547-0.09375 0.16797-0.125 0.054688-0.042969 0.11328-0.078125 0.17578-0.10547 0.0625-0.023438 0.125-0.039062 0.1875-0.050781 0.34375-0.070313 0.69922 0.035156 0.94922 0.28125 0.19141 0.19531 0.30078 0.46094 0.30078 0.73828 0.003907 0.066406-0.003906 0.13281-0.019531 0.19922-0.011719 0.066406-0.027344 0.13281-0.050781 0.19531-0.03125 0.0625-0.066407 0.12109-0.10547 0.17969-0.035156 0.058593-0.074219 0.10938-0.125 0.15625-0.19531 0.19531-0.46094 0.30859-0.73828 0.3125z"/>
  <path d="m19.762 24.477c-0.57031-0.003906-1.0312-0.46094-1.0391-1.0273-0.007812-0.57031 0.44141-1.0391 1.0078-1.0547 0.65234-0.019531 1.2891-0.058593 1.9141-0.11328 0.57031-0.046875 1.0703 0.375 1.1211 0.94531 0.050781 0.57031-0.36719 1.0742-0.9375 1.1289-0.66406 0.058593-1.3438 0.097656-2.0352 0.12109z"/>
  <path d="m27.574 23.27c-0.46484 0-0.875-0.30469-1.0117-0.75-0.023438-0.089843-0.039062-0.18359-0.042969-0.28125 0.003907-0.46484 0.30859-0.87109 0.75-1.0078 0.61328-0.17578 1.2188-0.38672 1.8125-0.60547 0.53906-0.1875 1.1289 0.082031 1.3359 0.61328 0.097656 0.25781 0.089843 0.54688-0.023438 0.79688-0.11328 0.25391-0.32422 0.44922-0.58203 0.54688-0.66797 0.23828-1.3008 0.44922-1.9375 0.63672l-0.011719 0.011719c-0.09375 0.027343-0.19141 0.039062-0.28906 0.039062zm7.1758-3.2812c-0.35547 0.003907-0.6875-0.17188-0.88672-0.46875-0.10547-0.16797-0.16016-0.36328-0.16406-0.5625-0.003907-0.35547 0.17578-0.69141 0.47656-0.88281 0.55078-0.35547 1.0742-0.71875 1.5625-1.082v-0.003907c0.46484-0.33203 1.1094-0.23828 1.4609 0.21094 0.33984 0.46094 0.25 1.1094-0.21094 1.457-0.54297 0.40625-1.1055 0.80078-1.6758 1.168-0.16797 0.10938-0.36328 0.16797-0.5625 0.16406zm5.957-5.168v0.003907c-0.25391 0-0.49609-0.09375-0.6875-0.26172-0.23047-0.19531-0.35938-0.48828-0.35156-0.79297 0-0.24609 0.089843-0.48828 0.25-0.67578 0.4375-0.48828 0.84375-0.98828 1.207-1.4805 0.35156-0.44922 1-0.53906 1.457-0.19531 0.22266 0.16406 0.36719 0.41406 0.40625 0.6875 0.035157 0.27344-0.039062 0.55078-0.20703 0.76953-0.40625 0.53125-0.83203 1.0625-1.293 1.5938-0.19922 0.22266-0.48047 0.35156-0.78125 0.35547z"/>
  <path d="m45.051 8.2188c-0.27344 0.003906-0.53516-0.10547-0.72656-0.30078-0.050781-0.050781-0.09375-0.10156-0.13672-0.15625-0.035156-0.058594-0.066406-0.11719-0.09375-0.17969-0.03125-0.0625-0.050781-0.12891-0.0625-0.19531-0.011719-0.070313-0.019531-0.14062-0.019531-0.21094 0-0.13672 0.027343-0.26953 0.082031-0.39453 0.050781-0.12891 0.12891-0.24219 0.23047-0.33203 0.41016-0.39062 1.0547-0.39062 1.4688 0 0.19531 0.19141 0.30469 0.45312 0.30078 0.72656 0.003906 0.070313-0.003906 0.14062-0.019531 0.21094-0.015625 0.066406-0.03125 0.13281-0.054688 0.19531-0.03125 0.0625-0.066406 0.12109-0.10156 0.17969-0.035157 0.054687-0.078125 0.10938-0.125 0.15625-0.097657 0.09375-0.21094 0.17188-0.33594 0.22656-0.12891 0.050781-0.26562 0.074219-0.40625 0.074219z"/>
  <path d="m46.293 8.2227h-1.2383c-0.57422 0-1.043-0.46484-1.043-1.043 0-0.57422 0.46875-1.0391 1.043-1.0391h1.2383c0.57422 0 1.0391 0.46484 1.0391 1.0391 0 0.57812-0.46484 1.043-1.0391 1.043z"/>
  <path d="m51.238 8.2188h-1.2383c-0.57422 0-1.043-0.46484-1.043-1.043 0-0.57422 0.46875-1.0391 1.043-1.0391h1.2383c0.57422 0 1.043 0.46484 1.043 1.0391 0 0.57812-0.46875 1.043-1.043 1.043z"/>
  <path d="m54.949 8.2188c-0.14062 0-0.27734-0.023438-0.40625-0.074219-0.125-0.054687-0.23828-0.13281-0.33594-0.22656-0.19531-0.19922-0.30469-0.46484-0.30078-0.74219-0.003906-0.27344 0.10547-0.53516 0.30078-0.72656 0.41406-0.39062 1.0586-0.39062 1.4688 0 0.19922 0.19141 0.3125 0.45703 0.3125 0.73438s-0.11328 0.53906-0.3125 0.73438c-0.19141 0.19531-0.45312 0.30469-0.72656 0.30078z"/>
  <path d="m55.863 9.9766c-0.37891 0-0.72266-0.20312-0.91016-0.52734-0.33984-0.60156-0.66016-1.2109-0.94922-1.8164v-0.003906c-0.24609-0.51953-0.023437-1.1367 0.49219-1.3867 0.51953-0.24609 1.1406-0.027344 1.3906 0.48828 0.26172 0.55078 0.55859 1.1172 0.88281 1.6914h-0.003906c0.18359 0.32031 0.17969 0.71875-0.003906 1.0391-0.1875 0.32031-0.53125 0.51562-0.89844 0.51562z"/>
  <path d="m74.344 23.762c-0.078125 0-0.15625-0.011719-0.23047-0.03125-0.65625-0.13672-1.3203-0.3125-1.9766-0.51172-0.44922-0.125-0.75781-0.53516-0.75-1-0.003907-0.097656 0.011719-0.19922 0.039062-0.29297 0.17188-0.54297 0.74609-0.85156 1.293-0.69531 0.59375 0.16797 1.2188 0.33203 1.8438 0.46875 0.26953 0.058593 0.50781 0.22266 0.65625 0.45703 0.14844 0.23047 0.19531 0.51172 0.13672 0.78125-0.10547 0.47656-0.52344 0.81641-1.0117 0.82422zm-7.3945-2.7617c-0.17578 0-0.34766-0.042969-0.5-0.125-0.60547-0.33203-1.1992-0.6875-1.7617-1.0508-0.007812 0-0.011719-0.007813-0.011719-0.011719-0.29297-0.19141-0.47266-0.52344-0.46875-0.875 0-0.19922 0.058594-0.39453 0.16797-0.5625 0.32422-0.46484 0.95312-0.59766 1.4375-0.30078 0.51172 0.33203 1.0625 0.65625 1.6367 0.96875 0.23828 0.13281 0.41797 0.35938 0.5 0.625 0.070312 0.26172 0.042969 0.54688-0.085938 0.78906-0.18359 0.33594-0.53516 0.54297-0.91406 0.54297zm-6.3125-4.7383c-0.27344-0.003907-0.53516-0.11328-0.73047-0.30469-0.48047-0.48047-0.94922-0.98828-1.4062-1.5-0.16016-0.19141-0.25-0.43359-0.25-0.6875-0.003906-0.29688 0.12891-0.58594 0.35547-0.78125 0.43359-0.36328 1.082-0.32031 1.4688 0.09375 0.42578 0.48828 0.86328 0.95703 1.3008 1.3945v0.003907c0.40625 0.40625 0.40625 1.0664 0 1.4766-0.19531 0.19531-0.46094 0.30469-0.73828 0.30469z"/>
  <path d="m80.238 24.48c-0.066406-0.003907-0.13672-0.011719-0.20703-0.023438l-0.1875-0.0625-0.1875-0.09375c-0.054688-0.042969-0.10547-0.085937-0.15625-0.13281-0.40234-0.41016-0.40234-1.0625 0-1.4688 0.046875-0.050781 0.097656-0.089844 0.15625-0.125 0.058594-0.039063 0.12109-0.074219 0.1875-0.10547 0.0625-0.023438 0.125-0.039062 0.1875-0.050781 0.34375-0.070313 0.69922 0.035156 0.94922 0.28125 0.19141 0.19922 0.30078 0.46094 0.30078 0.73828 0 0.066406-0.007812 0.13281-0.019531 0.19922-0.011719 0.066406-0.03125 0.13281-0.0625 0.19531-0.023438 0.066407-0.054688 0.125-0.097657 0.17969-0.035156 0.054687-0.074218 0.10547-0.12109 0.15625-0.19531 0.19531-0.46094 0.30859-0.74219 0.3125z"/>
  <path d="m80.551 25.98c-0.49219-0.003907-0.91797-0.34766-1.0195-0.83203l-0.3125-1.5039c-0.11719-0.5625 0.24609-1.1133 0.80859-1.2305 0.5625-0.11719 1.1133 0.24609 1.2305 0.80859l0.3125 1.5039c0.066407 0.30469-0.011718 0.625-0.21094 0.86719-0.19922 0.24609-0.49609 0.38672-0.80859 0.38672z"/>
  <path d="m81.488 30.488c-0.27344 0-0.53906-0.10938-0.73828-0.30078-0.09375-0.10156-0.17188-0.21875-0.23047-0.34375-0.097656-0.25391-0.097656-0.53516 0-0.79297 0.058594-0.125 0.13672-0.24219 0.23047-0.34375 0.41406-0.38281 1.0547-0.38281 1.4688 0 0.19531 0.19922 0.30469 0.46484 0.30469 0.74219 0 0.27734-0.10938 0.54297-0.30469 0.73828-0.19531 0.19141-0.45703 0.30078-0.73047 0.30078z"/>
  <path d="m79.645 31.766c-0.45312 0.003906-0.85156-0.28516-0.99219-0.71094-0.14062-0.42969 0.007812-0.89844 0.36719-1.1641 0.60938-0.45312 1.25-0.89453 1.9023-1.3164 0.23047-0.15234 0.51562-0.20703 0.78906-0.14844 0.26953 0.054688 0.50781 0.21875 0.66016 0.45312 0.14844 0.23438 0.19922 0.51562 0.14062 0.78906-0.058594 0.26953-0.22656 0.50781-0.46094 0.65625-0.61328 0.39453-1.2148 0.8125-1.7891 1.2383-0.17969 0.13281-0.39453 0.20312-0.61719 0.20312z"/>
  <path d="m77.605 70.988c-0.31641 0.007813-0.61719-0.13672-0.8125-0.38281-0.48828-0.60547-0.95703-1.207-1.3945-1.8125-0.011719 0-0.011719 0-0.011719-0.011719-0.13281-0.17578-0.20312-0.39453-0.19922-0.61328 0-0.33203 0.16016-0.64062 0.42578-0.83594 0.46484-0.31641 1.0977-0.22266 1.4492 0.21875 0.41797 0.5625 0.875 1.1445 1.3555 1.75 0.24609 0.3125 0.29297 0.73828 0.11719 1.0977-0.17188 0.35937-0.53125 0.58984-0.92969 0.58984zm-4.9805-7.4453c-0.39062 0.003906-0.74609-0.21094-0.92578-0.55469-0.36328-0.6875-0.71094-1.3867-1.0117-2.0625 0-0.003906-0.003906-0.007812-0.011719-0.007812-0.11328-0.25391-0.125-0.53906-0.027343-0.79688 0.097656-0.25781 0.29687-0.46875 0.55078-0.57812 0.52344-0.23047 1.1328-0.003907 1.3828 0.50781 0.28125 0.64453 0.60547 1.3008 0.95703 1.957l0.003907 0.003907c0.26562 0.50781 0.070312 1.1367-0.4375 1.4062-0.14844 0.082031-0.3125 0.125-0.48047 0.125zm-3.0625-8.4062c-0.5 0-0.92578-0.35547-1.0195-0.84375-0.14453-0.76953-0.25-1.5508-0.32422-2.3125-0.003906 0-0.011719-0.007813-0.011719-0.011719v-0.10547c0.007813-0.53516 0.41797-0.97656 0.94922-1.0312 0.27344-0.027343 0.55078 0.058594 0.76172 0.23438 0.21484 0.17578 0.34766 0.42969 0.375 0.70312 0.0625 0.71484 0.16406 1.4219 0.30078 2.125 0.10156 0.56641-0.26953 1.1094-0.83203 1.2188-0.066407 0.011719-0.13281 0.019531-0.19922 0.023438zm0.09375-8.918c-0.078125 0.003906-0.15625-0.003906-0.23047-0.019531-0.26953-0.0625-0.50391-0.22656-0.65625-0.46094-0.14844-0.23047-0.19531-0.51172-0.13281-0.78125 0.16406-0.76172 0.375-1.5195 0.625-2.2578v-0.011719c0.19141-0.53906 0.77734-0.83203 1.3203-0.65625 0.42188 0.14062 0.70703 0.53516 0.71094 0.98047-0.003907 0.11328-0.019531 0.22266-0.054688 0.33203-0.22656 0.67578-0.41406 1.3672-0.57031 2.0625-0.10938 0.47266-0.52734 0.80859-1.0117 0.8125zm3.668-8.125c-0.21875 0-0.42969-0.0625-0.60547-0.1875-0.46875-0.33984-0.57422-0.98828-0.23828-1.457 0.44531-0.63672 0.92578-1.25 1.4375-1.8359 0-0.011719 0-0.011719 0.011719-0.011719l-0.003907 0.003907c0.38281-0.41797 1.0234-0.46094 1.4609-0.10547 0.22656 0.19531 0.36328 0.48047 0.36328 0.78125 0 0.25-0.089844 0.49219-0.25 0.6875-0.48047 0.55078-0.92578 1.125-1.332 1.6875-0.19141 0.27734-0.50781 0.44141-0.84375 0.4375z"/>
  <path d="m82.094 76.031c-0.42188 0-0.80469-0.25391-0.96484-0.64453s-0.066406-0.83984 0.23438-1.1367c0.41406-0.38672 1.0547-0.38672 1.4688 0 0.30078 0.29688 0.39062 0.74609 0.23047 1.1406-0.16406 0.39062-0.54688 0.64453-0.96875 0.64062z"/>
  <path d="m81.141 77.797c-0.36328 0-0.70312-0.19531-0.89062-0.50781-0.1875-0.31641-0.19922-0.70703-0.023438-1.0312l0.95703-1.7656c0.27344-0.50391 0.90234-0.69141 1.4102-0.41797 0.50391 0.27344 0.69531 0.90234 0.42188 1.4102l-0.95703 1.7656c-0.17969 0.33594-0.53516 0.54688-0.91797 0.54688z"/>
  <path d="m78.281 83.094c-0.27734 0-0.54297-0.10938-0.73828-0.30078-0.097657-0.10156-0.17578-0.21875-0.23047-0.34375-0.050781-0.12891-0.074219-0.26172-0.074219-0.39844 0-0.27344 0.10938-0.54297 0.30078-0.73828 0.41406-0.38672 1.0586-0.38672 1.4727 0 0.19531 0.19531 0.30859 0.46094 0.30859 0.73828 0 0.13672-0.027343 0.27344-0.082031 0.39844-0.050781 0.12891-0.12891 0.24609-0.22656 0.34375-0.19531 0.19141-0.45703 0.29688-0.73047 0.30078z"/>
  <path d="m78.277 83.094c-0.089844 0-0.18359-0.011719-0.27344-0.035156-0.5625-0.15234-1.168-0.30078-1.8125-0.4375-0.55859-0.125-0.91406-0.67578-0.79297-1.2344 0.11719-0.55859 0.66406-0.91797 1.2227-0.80469 0.6875 0.14453 1.332 0.30078 1.9297 0.46484 0.50391 0.13672 0.82812 0.625 0.75781 1.1445-0.066406 0.51562-0.50781 0.90234-1.0312 0.90234z"/>
  <path d="m54.363 86.77c-0.33984 0.003907-0.65625-0.16016-0.85156-0.4375-0.15625-0.22656-0.22266-0.50781-0.17969-0.78125 0.050781-0.26953 0.20312-0.50781 0.42969-0.66406 0.58203-0.41797 1.1367-0.76953 1.6758-1.0938 0-0.007813 0.003906-0.011719 0.011719-0.011719 0.49219-0.27734 1.1172-0.11719 1.4141 0.36328 0.10156 0.16016 0.15234 0.34375 0.14844 0.53125 0.003906 0.36328-0.18359 0.69922-0.49219 0.88672 0 0.011719 0 0.011719-0.011719 0.011719h0.003907c-0.007813 0.003906-0.015625 0.007812-0.023438 0.007812l-0.011719 0.011719c-0.51953 0.3125-1.0312 0.64453-1.5117 0.98828h0.003906c-0.17578 0.125-0.39062 0.19141-0.60547 0.1875zm6.8438-3.457c-0.44922 0.003906-0.85156-0.28906-0.98828-0.71875-0.09375-0.26172-0.074219-0.54688 0.050781-0.79297 0.125-0.24609 0.33984-0.43359 0.60547-0.51953 0.625-0.20703 1.2734-0.39453 1.9258-0.5625 0.55859-0.13281 1.1211 0.20703 1.2617 0.76172 0.019531 0.082031 0.03125 0.17188 0.03125 0.25781 0 0.47656-0.32812 0.89453-0.79297 1-0.60547 0.15625-1.1992 0.33203-1.7695 0.51953v0.003907c-0.10547 0.03125-0.21484 0.046875-0.32422 0.050781zm7.5508-1.3438h0.003907c-0.57031 0.003906-1.0391-0.45312-1.0508-1.0195-0.011719-0.57031 0.4375-1.043 1.0078-1.0625 0.61328-0.019531 1.1367-0.03125 1.9883-0.011719 0.56641 0.015625 1.0117 0.47656 1.0117 1.043v0.019531c-0.011719 0.5625-0.46875 1.0117-1.0312 1.0195h-0.09375c-0.59375-0.019531-1.207-0.011719-1.8008 0.011719z"/>
 </g>
</svg>