<svg xmlns="http://www.w3.org/2000/svg" version="1.1" viewBox="-5.0 -10.0 110.0 135.0">
 <g fill-rule="evenodd">
  <path d="m32.762 62c-0.42188 0-0.76172 0.33984-0.76172 0.76172v0.23828c0 9.9414 8.0586 18 18 18s18-8.0586 18-18v-0.23828c0-0.42188-0.33984-0.76172-0.76172-0.76172zm1.2695 2c0.51562 8.3711 7.4688 15 15.969 15s15.453-6.6289 15.969-15z"/>
  <path d="m32.109 21h-1.2461c-1.8828 0-3.4102 1.5273-3.4102 3.4062v19.898c0 5.3086-3.0586 10.145-7.8594 12.414-0.13281 0.0625-0.24609 0.15234-0.33984 0.25781-6.2812-0.38672-11.254-5.6016-11.254-11.977v-7c0-0.55078-0.44922-1-1-1s-1 0.44922-1 1v7c0 7.3945 5.7344 13.453 13 13.965v31.035c0 2.2109 1.7891 4 4 4h54c2.2109 0 4-1.7891 4-4v-31.035c7.2656-0.51172 13-6.5703 13-13.965v-7c0-0.55078-0.44922-1-1-1s-1 0.44922-1 1v7c0 6.375-4.9727 11.59-11.254 11.977-0.09375-0.10547-0.20703-0.19531-0.33984-0.25781-4.8008-2.2695-7.8594-7.1055-7.8594-12.414v-19.898c0-1.8789-1.5273-3.4062-3.4102-3.4062h-1.2461c-0.99609-9-8.625-16-17.891-16s-16.895 7-17.891 16zm2.0156 0h31.75c-0.98438-7.8945-7.7148-14-15.875-14s-14.891 6.1055-15.875 14zm-3.2617 2c-0.77734 0-1.4102 0.62891-1.4102 1.4062v19.898c0 5.875-3.2734 11.246-8.4531 13.949v31.746c0 1.1055 0.89453 2 2 2h54c1.1055 0 2-0.89453 2-2v-31.746c-5.1797-2.7031-8.4531-8.0742-8.4531-13.949v-19.898c0-0.77734-0.63281-1.4062-1.4102-1.4062z"/>
 </g>
</svg>