<svg xmlns="http://www.w3.org/2000/svg" xmlns:xlink="http://www.w3.org/1999/xlink" version="1.1" x="0px" y="0px" viewBox="0 0 55 68.75" style="enable-background:new 0 0 55 55;" xml:space="preserve"><style type="text/css">
	.st0{fill:none;}
	.st1{fill:none;stroke:#2A3D4F;stroke-width:2;stroke-linecap:round;stroke-linejoin:round;stroke-miterlimit:10;}
</style><g><g><path d="M27.5185547,46.15625c-8.0795898,0-18.8833008-2.3437462-24.4658203-13.5097656    c-0.0776367-0.1547852-0.0693359-0.3388672,0.0219727-0.4863281S3.3266602,31.9228516,3.5,31.9228516    c6.465332,0,10.9633789-6.3935547,12.1879883-8.3535156c1.7480469-2.8037109,2.4833984-6.1381836,2.0698242-9.3891602    c-0.1894531-1.4121094,0.2163086-2.7807617,1.1074219-3.7993164C19.7324219,9.3896484,20.9370117,8.84375,22.2573242,8.84375    h10.5224609c1.3203125,0,2.5249023,0.5458984,3.3920898,1.5371094c0.8911133,1.0185547,1.296875,2.387207,1.1132813,3.7548828    c-0.0849609,0.6176758-0.1245117,1.2202148-0.1245117,1.8413086c0,2.6616211,0.7568359,5.2875977,2.1889648,7.59375    C40.5737305,25.5292969,45.0698242,31.9228516,51.5,31.9228516c0.1733398,0,0.3339844,0.0898438,0.425293,0.2373047    s0.0996094,0.331543,0.0219727,0.4863281C46.3647461,43.8125038,35.581543,46.15625,27.5185547,46.15625z M4.3071289,32.8925781    C9.7578125,43.0058594,19.8920898,45.15625,27.5185547,45.15625c7.6098633,0,17.7246094-2.1508789,23.1743164-12.2636719    c-6.5053711-0.4926758-10.9492188-6.8046875-12.1918945-8.7929688c-1.53125-2.4658203-2.340332-5.2744141-2.340332-8.1225586    c0-0.6665039,0.0429688-1.3149414,0.1274414-1.9282227c0.1508789-1.1279297-0.1679688-2.2080078-0.8691406-3.0092773    C34.7446289,10.2685547,33.8071289,9.84375,32.7797852,9.84375H22.2573242c-1.027832,0-1.9648438,0.4248047-2.6396484,1.1953125    c-0.7006836,0.8017578-1.0195313,1.8818359-0.8745117,2.9638672c0.4492188,3.5297852-0.3369141,7.097168-2.2070313,10.0961914    C15.2929688,26.0883789,10.8457031,32.4023438,4.3071289,32.8925781z"/></g><g><path d="M38.925293,24.3344727c-0.1669922,0-0.3305664-0.0834961-0.425293-0.2363281    c-1.5302734-2.4638672-2.3393555-5.2719727-2.3393555-8.1210938c0-0.6665039,0.0429688-1.3149414,0.1274414-1.9282227    c0.0371094-0.2734375,0.2822266-0.46875,0.5634766-0.4267578c0.2734375,0.0375977,0.4648438,0.2895508,0.4267578,0.5634766    c-0.078125,0.5678711-0.1176758,1.1704102-0.1176758,1.7915039c0,2.6625977,0.7568359,5.2880859,2.1889648,7.59375    c0.1455078,0.234375,0.0737305,0.5424805-0.1611328,0.6884766C39.1064453,24.3100586,39.0151367,24.3344727,38.925293,24.3344727z    "/></g><g><path d="M30.5292969,39.265625c-0.2016602,0-0.3916016-0.1230469-0.4677734-0.3227539    c-0.0976563-0.2583008,0.0322266-0.546875,0.2905273-0.6450195c4.6040039-1.7436523,7.9091797-7.6225586,8.0698242-14.3266602    c-1.4799805-2.4331055-2.2612305-5.1938477-2.2612305-7.9941406c0-0.6665039,0.0429688-1.3149414,0.1274414-1.9282227    c0.0371094-0.2734375,0.2822266-0.46875,0.5634766-0.4267578c0.2734375,0.0375977,0.4648438,0.2895508,0.4267578,0.5634766    c-0.078125,0.5678711-0.1176758,1.1704102-0.1176758,1.7915039c0,2.6625977,0.7568359,5.2880859,2.1889648,7.59375    c0.0507813,0.081543,0.0766602,0.1762695,0.0751953,0.2724609c-0.1230469,7.1630859-3.7080078,13.4916992-8.7182617,15.3901367    C30.6479492,39.2553711,30.5883789,39.265625,30.5292969,39.265625z"/></g><g><path d="M24.6425781,39.3144531c-0.0561523,0-0.1132813-0.0092773-0.1694336-0.0297852    c-5.0942383-1.8354492-8.7382813-8.1855469-8.8613281-15.4418945c-0.0043945-0.2758789,0.215332-0.503418,0.4916992-0.5083008    c0.2578125,0.0004883,0.503418,0.215332,0.5083008,0.4916992c0.1162109,6.8496094,3.4882813,12.8198242,8.2001953,14.5180664    c0.2597656,0.0932655,0.3945313,0.3798828,0.3007813,0.6396484C25.0395508,39.1879883,24.847168,39.3144531,24.6425781,39.3144531    z"/></g><g><path d="M27.5917969,42.5834961c-2.5488281,0-4.6220703-1.5229492-4.6220703-3.3945313    c0-0.328125,0.0625-0.6479492,0.1850586-0.9501953c0.5395508-1.4423828,2.3662109-2.4594727,4.4370117-2.4594727    c2.0541992,0,3.8305664,0.9633789,4.4199219,2.3969727c0.1376953,0.3608398,0.2021484,0.6884766,0.2021484,1.0126953    C32.2138672,41.0605469,30.140625,42.5834961,27.5917969,42.5834961z M27.5917969,36.7792969    c-1.6362305,0-3.1103516,0.7666016-3.5053711,1.8232422c-0.0791016,0.1953125-0.1166992,0.3881836-0.1166992,0.5864258    c0,1.2978516,1.6586914,2.3945313,3.6220703,2.3945313s3.6220703-1.0966797,3.6220703-2.3945313    c0-0.2006836-0.0429688-0.4116211-0.1318359-0.6450195C30.6567383,37.5102539,29.2197266,36.7792969,27.5917969,36.7792969z"/></g></g><text x="0" y="70" fill="#000000" font-size="5px" font-weight="bold" font-family="'Helvetica Neue', Helvetica, Arial-Unicode, Arial, Sans-serif">Created by DinosoftLabs</text><text x="0" y="75" fill="#000000" font-size="5px" font-weight="bold" font-family="'Helvetica Neue', Helvetica, Arial-Unicode, Arial, Sans-serif">from the Noun Project</text></svg>