<svg xmlns="http://www.w3.org/2000/svg" version="1.1" viewBox="-5.0 -10.0 110.0 135.0">
 <g>
  <path d="m8.3594 71.711h7.9102v19.969c0 1.2812 1.0586 2.3203 2.3594 2.3203h62.75c1.3008 0 2.3594-1.0391 2.3594-2.3203v-19.969h7.9102c0.85156 0 1.6406-0.46094 2.0508-1.1914 0.42188-0.71875 0.39844-1.5898-0.03125-2.3203l-9.6797-16.078c-0.17188-0.28125-0.39844-0.51172-0.67188-0.69141 0.12891-0.17969 0.23828-0.35156 0.35938-0.53906 4.1602-6.6484 5.4688-14.512 3.7109-22.141-1.7617-7.6406-6.3906-14.121-13.031-18.27-6.6484-4.1602-14.512-5.4688-22.148-3.7109-0.64844 0.14844-1.2695 0.32031-1.8984 0.51172-1.3984-1.0586-3.1914-1.4883-4.9414-1.1406-1.5312 0.28906-2.9492 1.2812-3.8984 2.7109l-1.4609 2.1914c-2.1406-1.0781-4.5508-1.6914-7.1016-1.6914s-5.0781 0.64844-7.2617 1.7695l-1.5195-2.2695c-0.94922-1.4297-2.3789-2.4102-3.8984-2.7109-2.0312-0.39844-4.1211 0.23828-5.5703 1.6992-1.4688 1.4688-2.1016 3.5508-1.7109 5.5781 0.28906 1.5312 1.2812 2.9414 2.7109 3.8984l2.6016 1.7305c-0.80859 1.9102-1.2695 4.0117-1.2695 6.2188 0 5.3203 2.6289 10.02 6.6406 12.922-3.4414 3.0508-5.9414 7.7305-6.8516 13.199-0.30078 0.19141-0.57031 0.42969-0.75 0.73828l-9.6797 16.09c-0.42969 0.71094-0.44922 1.5781-0.03125 2.3086 0.41016 0.73047 1.1992 1.1914 2.0508 1.1914zm40.66 20.34h-30.398c-0.21875 0-0.39844-0.17188-0.39844-0.35938v-19.969h19.691c0.82813 0 1.6016-0.44141 2.0195-1.1289l9.0781-15.102v36.57zm4.0586-59.129 4.3711 2.7383-8.7383 13.98c-0.76172-3.25-2.1016-6.1602-3.8711-8.5508 3.2305-2.1094 6.0312-4.8711 8.2383-8.1602zm-9.4805 6.6484c-0.44922-0.5-0.91016-0.96094-1.3984-1.3906 2.8203-2.0312 4.9414-4.9414 5.9609-8.3281l3.2617 2.0312c-2.0898 3.1094-4.75 5.7109-7.8203 7.6797zm15.52-2.8711 4.3711 2.7305c-2.0781 3.6094-3.3594 7.5391-3.8008 11.57h-9.5l8.9414-14.289zm6.0312 3.7617 16.328 10.211c-0.070312 0.10938-0.14062 0.21875-0.21094 0.32031h-19.609c0.42188-3.6719 1.5898-7.2383 3.4883-10.531zm16.629 51.23c0 0.19922-0.17969 0.35938-0.39844 0.35938h-30.398v-36.57l9.0781 15.102c0.42188 0.69141 1.1914 1.1289 2.0195 1.1289h19.691v19.969zm10.219-22.469c0.078125 0.14062 0.050781 0.26172 0 0.33984-0.03125 0.058594-0.14062 0.19922-0.35156 0.19922h-29.559c-0.14844 0-0.28125-0.070313-0.35156-0.19141l-10-16.629h30.23c0.14844 0 0.28125 0.070313 0.35156 0.19141zm-9.4805-20.211-16.328-10.211c4.3086-6.3906 11.039-10.629 18.68-11.75 2.2617 7.1016 1.6211 15.07-2.3594 21.961zm1.6914-23.84c-8.0586 1.2891-15.129 5.8203-19.68 12.59l-4.3711-2.7383 13.969-22.359c4.6914 3.1719 8.1211 7.5703 10.078 12.5zm-25.355-17.203c4.6406 0 9.3281 1.1914 13.609 3.6719l-13.969 22.352-4.3711-2.7305c4.0898-7.0586 5.0508-15.398 2.6914-23.211 0.67188-0.050781 1.3594-0.078125 2.0391-0.078125zm-7.0586 0.92969c1-0.26953 2.0117-0.46875 3.0312-0.62891 2.3516 7.3711 1.4883 15.262-2.3711 21.949l-3.8398-2.4102c0.14062-0.82812 0.21875-1.6797 0.21875-2.5586 0-2.25-0.48047-4.3906-1.3203-6.3398l2.4219-1.6094c1.4297-0.96094 2.4219-2.3789 2.7109-3.8984 0.30078-1.5781-0.019531-3.1914-0.85938-4.5117zm-8.6992 1.0195c0.66016-1 1.6289-1.6797 2.6484-1.8789 1.3906-0.26953 2.8281 0.17188 3.8203 1.1719 1 1 1.4414 2.4219 1.1719 3.8203-0.21094 1.0195-0.89062 1.9688-1.8789 2.6406l-2.25 1.5c-1.2305-2.0703-2.8984-3.8398-4.8984-5.1797l1.3789-2.0703zm-26.352 5.7617c-1-0.66016-1.6719-1.6211-1.8789-2.6406-0.26172-1.3984 0.17188-2.8281 1.1719-3.8203 0.80078-0.80859 1.8906-1.25 3.0117-1.25 0.26172 0 0.53906 0.03125 0.80859 0.078125 1.0195 0.19922 1.9805 0.87891 2.6484 1.8789l1.4492 2.1797c-1.9688 1.3398-3.6094 3.1211-4.8086 5.1797l-2.4102-1.6016zm2.1992 9.5781c0-7.6992 6.2695-13.969 13.969-13.969 7.6992 0 13.969 6.2695 13.969 13.969 0 5.1016-2.75 9.5508-6.8398 12 0.83984-1.3086 1.3281-2.8516 1.3281-4.5195 0-2.9219-1.5-5.5-3.75-7.0195-0.050782-0.26953-0.12891-0.53906-0.26953-0.78906-0.44141-0.76953-1.2383-1.2383-2.1406-1.2383h-4.5781c-0.89062 0-1.6914 0.46875-2.1406 1.2383-0.14844 0.25-0.21875 0.51953-0.26953 0.78906-2.2617 1.5195-3.7383 4.1016-3.7383 7.0195 0 1.6602 0.48828 3.2109 1.3203 4.5195-4.0898-2.4414-6.8398-6.8906-6.8398-12zm11.84 6.0586c0.26953 0.46875 0.67969 0.80078 1.1484 1.0117v1.5l-3.5508 3.5586c-1.2109-1.1797-1.9688-2.8281-1.9688-4.6406 0-1.9805 0.89062-3.7617 2.3008-4.9609l2.0586 3.5391zm-0.60938-5.4219c0.050781-0.078125 0.19141-0.26172 0.44922-0.26172h4.5781c0.26953 0 0.39844 0.19141 0.44922 0.26172 0.039062 0.078125 0.14062 0.28125 0 0.51953l-2.2891 3.9102c-0.10156 0.17188-0.25 0.21875-0.35938 0.23828-0.03125 0-0.058594-0.019531-0.089844-0.019531s-0.058594 0.019531-0.089844 0.019531c-0.10937-0.019531-0.25-0.070312-0.35937-0.23828l-2.2812-3.9102c-0.14063-0.23047-0.050782-0.44141 0-0.51953zm2.7383 9.7109 2.9219 2.9219c-0.87891 0.44141-1.8711 0.69141-2.9219 0.69141-1.0508 0-2.0391-0.25-2.9102-0.69141zm0.98047-1.7891v-1.5c0.48047-0.21094 0.89062-0.53906 1.1484-1.0117l2.0703-3.5312c1.3984 1.1914 2.3008 2.9609 2.3008 4.9492 0 1.8203-0.76172 3.4609-1.9688 4.6406l-3.5586-3.5586zm-8.5508 5.4492c2.2617 1.2188 4.8281 1.9219 7.5703 1.9219 2.7383 0 5.3203-0.69141 7.5703-1.9219 3.1797 2.6016 5.5391 6.7812 6.5117 11.711h-4.0586c-1.5508-5.1094-5.4609-8.7617-10.02-8.7617-4.5586 0-8.4609 3.6484-10.02 8.7617h-4.0586c0.96875-4.9414 3.3398-9.1094 6.5117-11.711zm15.551 11.711h-15.949c1.3984-4.0117 4.4414-6.8008 7.9688-6.8008 3.5312 0 6.5703 2.8008 7.9805 6.8008zm-32.879 18.242 9.6797-16.09c0.070313-0.12109 0.21094-0.19141 0.35156-0.19141h30.23l-10 16.629c-0.070313 0.12109-0.21094 0.19141-0.35156 0.19141l-29.562 0.003907c-0.21875 0-0.32031-0.14062-0.35156-0.19922-0.050781-0.078125-0.078124-0.21094 0-0.33984z"/>
  <path d="m26.941 20.988c0.85938 0 1.5703-0.69922 1.5703-1.5703 0-0.87109-0.71094-1.5703-1.5703-1.5703s-1.5781 0.69922-1.5781 1.5703c0 0.87109 0.71094 1.5703 1.5781 1.5703zm0-1.9609c0.21094 0 0.37109 0.17969 0.37109 0.37891s-0.17188 0.37891-0.37109 0.37891c-0.19922 0-0.37891-0.17969-0.37891-0.37891s0.17188-0.37891 0.37891-0.37891z"/>
  <path d="m38.891 20.988c0.87109 0 1.5703-0.69922 1.5703-1.5703 0-0.87109-0.69922-1.5703-1.5703-1.5703s-1.5703 0.69922-1.5703 1.5703c0 0.87109 0.69922 1.5703 1.5703 1.5703zm0-1.9609c0.21094 0 0.37891 0.17969 0.37891 0.37891s-0.17969 0.37891-0.37891 0.37891-0.37891-0.17969-0.37891-0.37891 0.17188-0.37891 0.37891-0.37891z"/>
 </g>
<text x="0.0" y="117.5" font-size="5.0" font-weight="bold" font-family="Arbeit Regular, Helvetica, Arial-Unicode, Arial, Sans-serif" fill="#000000">Created by Olifernes Tejeros</text><text x="0.0" y="122.5" font-size="5.0" font-weight="bold" font-family="Arbeit Regular, Helvetica, Arial-Unicode, Arial, Sans-serif" fill="#000000">from Noun Project</text></svg>