<svg xmlns="http://www.w3.org/2000/svg" version="1.1" viewBox="-5.0 -10.0 110.0 135.0">
 <g fill-rule="evenodd">
  <path d="m18 6c-0.55078 0-1 0.44922-1 1s0.44922 1 1 1h12c1.1055 0 2 0.89453 2 2s-0.89453 2-2 2h-0.75c-2.3984 0-4.3789 1.7734-4.7031 4.082-2.582 0.45312-4.5469 2.707-4.5469 5.418v8c0 2.293 1.4023 4.2578 3.3984 5.0859-2.3867 4.1406-6.3594 11.266-9.5273 18.074-4.1758 8.3945-7.8711 17.152-7.8711 21.84 0 10.77 8.7305 19.5 19.5 19.5s19.5-8.7305 19.5-19.5c0-4.6875-3.6953-13.445-7.8711-21.84-3.168-6.8086-7.1406-13.934-9.5273-18.074 1.9961-0.82813 3.3984-2.793 3.3984-5.0859v-8c0-2.668-1.9023-4.8945-4.4258-5.3945 0.29297-1.207 1.3789-2.1055 2.6758-2.1055h0.75c2.2109 0 4-1.7891 4-4s-1.7891-4-4-4zm7.5 12c-1.9336 0-3.5 1.5664-3.5 3.5v8c0 1.9336 1.5664 3.5 3.5 3.5s3.5-1.5664 3.5-3.5v-8c0-1.9336-1.5664-3.5-3.5-3.5zm14.5 49.465c0 8.0312-6.4961 14.535-14.5 14.535s-14.5-6.5039-14.5-14.535c0-1.8555 0.88281-4.9531 2.4336-8.8047 0.66016-1.6445 1.4219-3.375 2.2383-5.1328 0.60938-1.2266 1.2305-2.4453 1.8555-3.6445 1.3711-2.6484 2.7461-5.1914 4.0078-7.4766-2.2148 6.8203-4.5352 14.906-4.5352 18.867 0 7.582 3.8047 13.727 8.5 13.727s8.5-6.1445 8.5-13.727c0-3.9609-2.3203-12.047-4.5352-18.867 1.2617 2.2852 2.6367 4.8281 4.0078 7.4766 0.625 1.1992 1.2461 2.418 1.8555 3.6445 0.81641 1.7578 1.5781 3.4883 2.2383 5.1328 1.5508 3.8516 2.4336 6.9492 2.4336 8.8047zm1.9258 1.582c-0.79297 8.3906-7.8438 14.953-16.426 14.953s-15.633-6.5625-16.426-14.953c-0.69531 2.2422-1.0742 4.1055-1.0742 5.4531 0 9.6641 7.8359 17.5 17.5 17.5s17.5-7.8359 17.5-17.5c0-1.3477-0.37891-3.2109-1.0742-5.4531zm-12.117 0.87891c1.3125-2.1211 2.1914-5.1758 2.1914-8.6523 0-1.6289-0.47266-4.2578-1.2695-7.4453-0.78125-3.1328-1.8281-6.6328-2.8867-9.9258-0.82031-2.5625-1.6445-4.9844-2.3438-6.9883-0.69922 2.0039-1.5234 4.4258-2.3438 6.9883-1.0586 3.293-2.1055 6.793-2.8867 9.9258-0.79688 3.1875-1.2695 5.8164-1.2695 7.4453 0 3.4766 0.87891 6.5312 2.1914 8.6523 1.332 2.1523 2.9102 3.0742 4.3086 3.0742s2.9766-0.92188 4.3086-3.0742z"/>
  <path d="m67 6c-0.55078 0-1 0.44922-1 1s0.44922 1 1 1h12c1.1055 0 2 0.89453 2 2s-0.89453 2-2 2h-0.75c-2.3984 0-4.3789 1.7734-4.7031 4.082-2.582 0.45312-4.5469 2.707-4.5469 5.418v8c0 2.293 1.4023 4.2578 3.3984 5.0859-2.3867 4.1406-6.3594 11.266-9.5273 18.074-4.1758 8.3945-7.8711 17.152-7.8711 21.84 0 10.77 8.7305 19.5 19.5 19.5s19.5-8.7305 19.5-19.5c0-4.6875-3.6953-13.445-7.8711-21.84-3.168-6.8086-7.1406-13.934-9.5273-18.074 1.9961-0.82813 3.3984-2.793 3.3984-5.0859v-8c0-2.668-1.9023-4.8945-4.4258-5.3945 0.29297-1.207 1.3789-2.1055 2.6758-2.1055h0.75c2.2109 0 4-1.7891 4-4s-1.7891-4-4-4zm7.5 12c-1.9336 0-3.5 1.5664-3.5 3.5v8c0 1.9336 1.5664 3.5 3.5 3.5s3.5-1.5664 3.5-3.5v-8c0-1.9336-1.5664-3.5-3.5-3.5zm14.5 49.465c0 8.0312-6.4961 14.535-14.5 14.535s-14.5-6.5039-14.5-14.535c0-1.8555 0.88281-4.9531 2.4336-8.8047 0.66016-1.6445 1.4219-3.375 2.2383-5.1328 0.60938-1.2266 1.2305-2.4453 1.8555-3.6445 1.3711-2.6484 2.7461-5.1914 4.0078-7.4766-2.2148 6.8203-4.5352 14.906-4.5352 18.867 0 7.582 3.8047 13.727 8.5 13.727s8.5-6.1445 8.5-13.727c0-3.9609-2.3203-12.047-4.5352-18.867 1.2617 2.2852 2.6367 4.8281 4.0078 7.4766 0.625 1.1992 1.2461 2.418 1.8555 3.6445 0.81641 1.7578 1.5781 3.4883 2.2383 5.1328 1.5508 3.8516 2.4336 6.9492 2.4336 8.8047zm1.9258 1.582c-0.79297 8.3906-7.8438 14.953-16.426 14.953s-15.633-6.5625-16.426-14.953c-0.69531 2.2422-1.0742 4.1055-1.0742 5.4531 0 9.6641 7.8359 17.5 17.5 17.5s17.5-7.8359 17.5-17.5c0-1.3477-0.37891-3.2109-1.0742-5.4531zm-12.117 0.87891c1.3125-2.1211 2.1914-5.1758 2.1914-8.6523 0-1.6289-0.47266-4.2578-1.2695-7.4453-0.78125-3.1328-1.8281-6.6328-2.8867-9.9258-0.82031-2.5625-1.6445-4.9844-2.3438-6.9883-0.69922 2.0039-1.5234 4.4258-2.3438 6.9883-1.0586 3.293-2.1055 6.793-2.8867 9.9258-0.79688 3.1875-1.2695 5.8164-1.2695 7.4453 0 3.4766 0.87891 6.5312 2.1914 8.6523 1.332 2.1523 2.9102 3.0742 4.3086 3.0742s2.9766-0.92188 4.3086-3.0742z"/>
 </g>
<text x="0.0" y="117.5" font-size="5.0" font-weight="bold" font-family="Arbeit Regular, Helvetica, Arial-Unicode, Arial, Sans-serif" fill="#000000">Created by WR Graphic Garage</text><text x="0.0" y="122.5" font-size="5.0" font-weight="bold" font-family="Arbeit Regular, Helvetica, Arial-Unicode, Arial, Sans-serif" fill="#000000">from Noun Project</text></svg>