<svg xmlns="http://www.w3.org/2000/svg" data-name="Layer 2" viewBox="0 0 128 160" x="0px" y="0px"><path d="M46.16,118.32c.28,.42,.75,.68,1.25,.68h33.17c.5,0,.98-.25,1.25-.68,27.99-42.52,14.4-63.3,6.28-75.72-1.18-1.81-2.2-3.37-2.95-4.78-7.35-13.93,3.29-25.82,3.74-26.31,.88-.96,.2-2.51-1.11-2.51H40.2c-1.3,0-1.99,1.55-1.11,2.51,.46,.5,11.09,12.39,3.74,26.31-6.15,11.66-28.79,31.71,3.33,80.5Zm-2.96-106.32h41.59c-3.16,4.69-8.53,15.39-2.28,27.23,2.64,5,8.19,11.3,11.14,20.79H34.35c2.95-9.49,8.5-15.79,11.14-20.79,6.25-11.84,.88-22.53-2.28-27.23Zm5.02,104c-4.1-6.3-7.25-12.09-9.62-17.42h50.79c-2.37,5.33-5.52,11.13-9.62,17.42h-31.55Zm46.58-34.63H33.19c-.47-2.71-.7-5.27-.75-7.68h63.12c-.05,2.41-.28,4.97-.75,7.68Zm-61.02,3h60.44c-.81,3.59-2.23,7.93-3.56,11.21H37.33c-2.16-5.36-3.64-11.21-3.54-11.21Zm61.73-13.68H32.46c.16-3.51,.96-7.67,1.08-7.67h60.96c.86,3.66,1.13,7.67,1.03,7.67Z"/><text x="0" y="143" fill="#000000" font-size="5px" font-weight="bold" font-family="'Helvetica Neue', Helvetica, Arial-Unicode, Arial, Sans-serif">Created by Ahydra</text><text x="0" y="148" fill="#000000" font-size="5px" font-weight="bold" font-family="'Helvetica Neue', Helvetica, Arial-Unicode, Arial, Sans-serif">from the Noun Project</text></svg>