<svg version="1.1" id="Layer_1" xmlns="http://www.w3.org/2000/svg" xmlns:xlink="http://www.w3.org/1999/xlink" x="0px" y="0px"
	 width="100%" viewBox="0 0 1610 578" enable-background="new 0 0 1610 578" xml:space="preserve">
<path fill="#FFFFFF" opacity="1.000000" stroke="none" 
	d="
M1240.000000,579.000000 
	C826.713745,579.000000 413.927490,579.000000 1.070609,579.000000 
	C1.070609,386.402405 1.070609,193.804764 1.070609,1.103562 
	C537.666626,1.103562 1074.333374,1.103562 1610.978271,1.103562 
	C1610.978271,193.739502 1610.978271,386.369751 1610.978271,579.000000 
	C1487.471069,579.000000 1363.985596,579.000000 1240.000000,579.000000 
M1480.782104,154.302490 
	C1478.332764,147.283218 1474.148926,141.476166 1467.523193,138.083710 
	C1450.925049,129.585541 1434.541382,128.969986 1418.561646,140.037186 
	C1404.346436,149.882431 1393.761108,163.134232 1384.028931,177.022125 
	C1368.491333,199.193954 1353.651001,221.853256 1338.279541,244.143326 
	C1329.861694,256.349579 1319.022339,264.747925 1303.102905,262.953369 
	C1303.184204,261.129150 1302.963989,259.230194 1303.394409,257.492462 
	C1306.899292,243.345062 1309.890503,229.028793 1314.241333,215.140854 
	C1324.853149,181.266846 1339.859497,149.183929 1355.208862,117.247772 
	C1359.645630,108.016479 1363.395996,98.356293 1366.385376,88.564369 
	C1368.269043,82.394508 1368.222168,75.556633 1362.833496,70.372864 
	C1358.693970,66.390793 1353.492554,65.645447 1347.909424,65.117546 
	C1347.875610,51.686195 1341.685303,45.888355 1328.386719,46.892303 
	C1319.410278,47.569962 1312.410156,51.885044 1306.485229,58.490105 
	C1293.351929,73.131065 1285.378418,90.705307 1278.082031,108.587654 
	C1270.736084,126.591927 1263.989014,144.840591 1256.431152,162.500992 
	C1255.956909,152.599655 1255.929077,142.652039 1254.908325,132.807373 
	C1253.181763,116.154945 1249.215210,100.014084 1240.181274,85.650772 
	C1235.247803,77.806732 1229.969482,70.041489 1220.599731,65.465981 
	C1214.458618,58.986401 1209.076660,51.488819 1202.025024,46.230198 
	C1185.145752,33.642746 1165.550049,32.964787 1145.698853,36.561836 
	C1122.093384,40.839172 1102.184937,52.467598 1084.771484,68.670738 
	C1072.520508,80.070229 1062.218262,93.084816 1052.299927,106.724968 
	C1051.542114,105.108864 1050.822510,103.473503 1050.019775,101.880028 
	C1046.682007,95.254890 1044.117310,88.045227 1039.739380,82.194450 
	C1035.427124,76.431519 1029.268433,72.050339 1023.438965,66.605171 
	C1004.193726,38.449337 976.712402,31.289000 944.988647,37.005524 
	C912.041870,42.942448 893.432678,65.149651 882.791626,95.452126 
	C871.799072,90.017799 861.787842,91.904518 852.131592,97.865921 
	C843.231201,103.360664 836.674011,111.225449 831.967651,120.235031 
	C824.824646,133.909149 818.656982,148.092789 811.142822,162.074280 
	C807.422974,162.053055 803.703125,162.031815 799.903259,161.081772 
	C799.987915,158.308243 800.258789,155.525482 800.121826,152.762939 
	C799.731201,144.886948 797.920898,143.173370 790.111816,142.126236 
	C792.559326,134.769577 795.324646,127.499657 797.362610,120.031242 
	C799.308716,112.899681 797.772888,105.987473 791.214783,102.136230 
	C787.693054,100.068100 782.697449,100.509575 778.311584,98.941505 
	C778.715576,87.189980 773.669617,80.477501 764.192993,80.276863 
	C754.757019,80.077080 746.629028,83.264267 741.545715,91.349312 
	C737.159424,98.325912 733.746338,105.928482 730.086670,113.344971 
	C721.641418,130.459839 708.923523,141.645798 689.133118,142.909409 
	C682.706848,143.319763 680.257996,145.393112 679.899841,151.943848 
	C679.773132,154.261978 679.883545,156.593063 679.175720,158.841324 
	C677.088501,158.250702 675.001282,157.660080 672.543823,156.425797 
	C669.082947,142.854507 662.177002,137.468506 648.260010,137.942184 
	C635.396118,138.380005 625.927307,144.938904 619.128235,155.429626 
	C610.936096,168.069977 608.055725,182.414658 607.012573,197.143311 
	C605.867432,213.311661 606.914429,229.387268 610.019897,245.326813 
	C610.324890,246.892227 610.138245,249.136261 609.209106,250.269409 
	C599.665039,261.909241 587.750366,268.427856 572.079407,265.710663 
	C571.181274,257.110809 572.198608,248.768768 575.641235,240.806244 
	C579.468323,231.954300 583.329346,223.115463 587.309998,214.331833 
	C591.727356,204.584686 595.487610,194.748352 594.997803,183.732132 
	C594.385620,169.962097 586.751038,160.261765 574.871948,158.230606 
	C573.279358,152.127151 570.714844,146.574585 565.309082,142.910492 
	C554.912842,135.863739 532.380249,137.721954 522.796509,145.883133 
	C514.129517,153.263641 510.050964,163.200974 508.333252,173.684540 
	C506.002289,187.911301 505.515472,202.432358 503.986084,216.800415 
	C502.320892,232.443832 498.778320,247.536621 486.622589,258.714630 
	C479.490601,265.273010 470.885651,268.489990 461.029541,265.148590 
	C460.171112,250.940460 464.308838,237.653732 468.298462,224.282990 
	C472.603363,209.855652 477.438812,195.480087 480.237885,180.739197 
	C483.182220,165.233368 477.079193,154.725983 461.126465,157.977509 
	C461.076904,155.812683 461.122864,153.640701 460.961304,151.484268 
	C460.259644,142.118805 454.208221,137.087845 445.023865,139.154221 
	C440.815460,140.101059 436.568878,142.323395 433.135895,144.991760 
	C424.013733,152.082382 418.233063,161.886978 412.929626,171.959457 
	C403.101929,190.624588 396.076965,210.373322 391.030548,230.776245 
	C388.853424,239.578629 384.237640,246.088699 376.950256,250.182480 
	C377.009735,248.356720 376.968842,246.521240 377.144196,244.706680 
	C378.926483,226.265671 376.837158,208.273254 369.737122,191.161621 
	C365.619202,181.237122 359.122650,172.880554 348.659088,167.419159 
	C341.192719,156.006653 331.983765,146.645279 318.589386,142.405624 
	C304.473297,137.937546 290.044403,137.491196 275.677277,140.520309 
	C255.999832,144.668991 239.017700,154.250565 224.480774,168.058517 
	C205.440933,186.143616 191.905365,207.802750 182.966629,232.460587 
	C177.681778,247.038986 162.317307,260.871918 144.116806,258.887695 
	C144.243149,256.570038 143.995377,254.157349 144.556000,251.949982 
	C148.433624,236.682678 151.719101,221.208191 156.628235,206.271362 
	C167.179611,174.166962 181.535721,143.612061 196.082535,113.148293 
	C200.628998,103.627167 204.372070,93.629303 207.454315,83.535568 
	C209.432892,77.056122 209.104019,69.615913 202.578262,65.523804 
	C198.799286,63.154110 193.567154,63.101761 188.867157,61.145157 
	C188.829941,47.302727 182.236938,41.413097 168.479767,42.865067 
	C159.904907,43.770073 153.230408,47.965061 147.537857,54.268082 
	C134.356415,68.863121 125.784622,86.225731 119.165413,104.327652 
	C100.795280,154.565430 82.725189,204.926559 65.576630,255.590973 
	C58.258781,277.211121 54.546570,299.852295 56.950035,322.961517 
	C58.255199,335.510620 63.349560,345.956451 74.682541,352.573700 
	C76.536171,353.656036 78.440056,354.652313 80.170120,356.416534 
	C86.505981,370.781494 98.514908,376.137085 113.204308,376.933807 
	C137.869553,378.271637 156.332443,366.357208 172.007904,348.850525 
	C177.175140,343.079651 181.984360,336.988251 187.378204,331.560486 
	C193.832977,337.533600 200.287766,343.506744 206.792542,350.155396 
	C208.764099,352.792816 210.441177,355.727173 212.753769,358.020721 
	C231.210556,376.325378 253.771820,380.316101 278.189819,375.310669 
	C305.818207,369.647156 326.941711,353.475464 344.101074,331.705292 
	C346.146942,329.109711 348.275391,328.098755 351.598694,327.880066 
	C358.175140,327.447296 364.820862,326.764587 371.215332,325.247070 
	C377.261200,323.812256 383.021698,321.174988 389.123962,319.778564 
	C390.219604,322.721283 391.192230,325.717010 392.432495,328.597443 
	C397.471863,340.301270 406.164551,348.666595 416.848755,355.827972 
	C424.633514,371.275543 441.483246,378.254089 456.769226,376.594238 
	C476.081024,374.497223 491.164307,364.178192 503.362488,349.407898 
	C507.536163,344.354126 511.633759,339.237579 515.976440,334.853302 
	C519.384094,345.649139 526.266724,353.152863 537.022217,357.742676 
	C543.031738,372.142700 553.684631,377.547363 565.595825,376.735657 
	C575.114502,376.087006 583.954163,372.664825 592.203308,367.605896 
	C608.535583,357.589874 620.995239,343.644501 632.435852,328.651917 
	C634.253479,326.269958 635.945435,325.433655 638.722778,326.338440 
	C647.767700,329.285126 656.769958,327.723328 666.020752,326.700012 
	C669.675659,341.118835 677.769653,352.046448 691.096802,359.488556 
	C694.472107,363.700195 697.167175,368.812714 701.342285,371.965027 
	C718.016602,384.554718 736.572205,383.204010 754.944031,376.857971 
	C774.068176,370.252045 788.436218,356.924805 800.783997,341.303833 
	C805.286133,335.608215 809.604187,329.767151 814.494568,324.453644 
	C820.959473,335.258453 830.204346,343.390411 839.971619,351.697479 
	C843.918091,355.886749 847.483276,360.536285 851.881714,364.180023 
	C865.746582,375.666107 881.747681,381.739990 899.892822,382.017578 
	C919.734680,382.321075 937.293701,375.568787 953.563538,364.878998 
	C974.344055,351.225616 990.018799,332.634613 1003.825256,312.291656 
	C1007.250732,307.244446 1010.574280,302.128052 1014.200256,297.755493 
	C1017.645020,306.552124 1020.640076,315.559631 1024.642334,324.094818 
	C1030.304688,336.170105 1040.219116,344.632385 1050.812378,353.036194 
	C1057.504395,364.619232 1068.209839,371.486908 1080.232300,375.651154 
	C1102.906128,383.504639 1125.208008,380.556946 1146.469849,370.123413 
	C1170.215942,358.470764 1188.088623,340.061920 1203.413818,318.944061 
	C1207.684692,313.058807 1211.754028,307.027283 1215.949463,301.972473 
	C1215.807373,305.301056 1215.419189,308.641205 1215.574707,311.955841 
	C1215.901123,318.914337 1215.997559,325.943909 1217.118652,332.791962 
	C1219.260742,345.875732 1227.573608,354.285095 1239.165283,360.445679 
	C1241.007690,363.367279 1242.490601,366.608124 1244.753540,369.156128 
	C1255.458008,381.209045 1269.730835,382.341461 1284.254517,380.555908 
	C1303.939819,378.135773 1318.821777,366.930969 1331.455200,352.327698 
	C1335.351562,347.823761 1339.248291,343.320099 1343.705200,339.180695 
	C1348.777954,343.492340 1353.850830,347.804016 1358.984497,352.806763 
	C1363.494141,357.615326 1367.360107,363.330719 1372.628418,367.070404 
	C1392.036621,380.847412 1414.114258,382.992371 1436.899292,379.426819 
	C1471.110596,374.073212 1496.292114,354.283447 1517.043945,327.858765 
	C1529.964233,311.406616 1539.084595,292.725861 1548.549805,274.212402 
	C1551.615967,268.214874 1547.622925,261.813416 1542.982422,259.055939 
	C1537.338989,255.702515 1532.975952,256.856506 1528.780762,262.281372 
	C1526.636353,265.054199 1524.008911,267.453613 1521.895630,269.339417 
	C1524.091309,264.858765 1526.272827,260.371185 1528.485596,255.899094 
	C1531.933228,248.931931 1530.265503,243.705261 1523.252563,239.581787 
	C1517.739502,236.340256 1513.316406,237.620667 1508.889038,243.730957 
	C1507.619995,245.482437 1506.590454,247.510544 1505.008789,248.912933 
	C1500.106689,253.259460 1494.991577,257.365875 1490.048584,260.722229 
	C1489.377075,258.867584 1488.844238,256.948059 1488.011597,255.168793 
	C1482.455688,243.294678 1476.687378,231.517487 1471.293335,219.570938 
	C1468.128296,212.561234 1469.550293,207.058731 1475.813110,202.525162 
	C1480.890747,198.849411 1486.400391,195.741257 1491.858643,192.626907 
	C1501.243896,187.271851 1503.427124,180.834457 1499.030884,170.991592 
	C1495.437256,162.946075 1489.478149,157.603912 1480.782104,154.302490 
M979.603333,470.512817 
	C979.603333,466.082520 979.603333,461.652191 979.603333,457.141907 
	C976.666870,457.141907 974.372009,457.141907 971.914734,457.141907 
	C971.326660,459.609589 970.765625,461.963593 970.099365,464.759216 
	C969.140808,463.878601 968.513062,463.377838 967.973816,462.795074 
	C960.423401,454.635559 950.979004,453.482788 940.926819,456.108307 
	C931.365173,458.605652 925.991028,465.643646 924.821472,475.067566 
	C923.975586,481.882904 923.932495,489.106873 925.246094,495.812653 
	C927.525635,507.448883 936.396851,513.749268 948.228271,514.051514 
	C956.198608,514.255066 963.032227,511.718567 968.844421,505.802612 
	C970.198730,519.591125 967.310913,525.759277 958.878479,527.825928 
	C946.342468,530.898315 938.701904,527.253235 934.384399,516.193237 
	C931.257629,516.193237 928.160767,516.193237 925.088013,516.193237 
	C924.746033,524.956543 928.625366,531.506653 937.090759,533.606812 
	C943.895996,535.295166 951.303284,536.280396 958.207642,535.497803 
	C974.045593,533.702637 979.602600,526.547485 979.603271,510.469666 
	C979.603882,497.482452 979.603333,484.495209 979.603333,470.512817 
M528.863220,474.784058 
	C527.080200,466.937439 523.464905,460.222443 515.626160,457.197571 
	C504.273346,452.816620 493.640045,454.289124 483.945007,463.695404 
	C483.945007,453.532471 483.945007,444.463257 483.945007,435.341003 
	C480.339905,435.341003 477.132965,435.341003 473.821411,435.341003 
	C473.821411,448.342682 473.821350,460.993561 473.821350,473.644409 
	C473.821350,486.386871 473.821411,499.129333 473.821411,511.774536 
	C476.947632,511.774536 479.388641,511.774536 481.923889,511.774536 
	C482.385132,509.225250 482.808594,506.884949 483.335297,503.974091 
	C484.389771,505.124908 484.927002,505.722778 485.476501,506.309143 
	C493.231049,514.584106 502.913910,515.539612 513.055359,512.769165 
	C522.587891,510.165009 527.553162,502.852081 528.838501,493.474823 
	C529.640564,487.623352 528.998535,481.573975 528.863220,474.784058 
M1089.964600,510.666565 
	C1104.493286,517.188843 1117.672119,514.477417 1130.050903,504.403351 
	C1130.605103,507.128784 1131.083130,509.480133 1131.551392,511.782928 
	C1134.323608,511.782928 1136.755737,511.782928 1139.496826,511.782928 
	C1139.496826,498.104401 1139.665894,484.654999 1139.410767,471.213623 
	C1139.313354,466.084534 1136.543945,461.835602 1131.943481,459.532227 
	C1118.781372,452.942139 1105.343872,452.979340 1092.234741,459.499176 
	C1086.216431,462.492340 1083.935181,468.625244 1085.390503,474.220398 
	C1088.525513,474.220398 1091.602539,474.220398 1094.855103,474.220398 
	C1094.936279,468.380493 1097.763550,464.492462 1103.031494,463.448608 
	C1107.666992,462.530121 1112.650391,462.081421 1117.291992,462.743866 
	C1127.354004,464.179779 1129.953613,468.174683 1128.838013,478.982727 
	C1127.091675,478.982727 1125.287842,478.877808 1123.499634,478.999908 
	C1112.743286,479.734467 1101.809570,479.875000 1091.976318,485.070099 
	C1081.609497,490.547058 1080.490967,502.515991 1089.964600,510.666565 
M601.579468,514.013428 
	C611.549805,514.326355 620.335144,511.264954 627.916565,504.042847 
	C628.450928,507.021576 628.859863,509.300934 629.301453,511.762695 
	C631.887146,511.762695 634.465759,511.762695 637.306152,511.762695 
	C637.306152,498.210266 637.440613,484.904510 637.244080,471.603638 
	C637.158142,465.785309 633.989685,461.364655 628.802124,458.974121 
	C616.185608,453.160217 603.327942,453.214355 590.781738,459.056915 
	C584.550476,461.958771 581.989685,467.818665 583.038818,474.317139 
	C586.107971,474.317139 589.204468,474.317139 592.637573,474.317139 
	C592.712097,468.451050 595.576172,464.403595 601.068237,463.367096 
	C605.714661,462.490173 610.697021,462.112061 615.344971,462.788666 
	C625.294556,464.237122 628.126221,468.700439 626.547974,478.659210 
	C620.599609,479.099243 614.532532,478.953796 608.733154,480.129028 
	C601.668518,481.560638 594.532471,483.440430 587.983826,486.370300 
	C582.515747,488.816711 580.862305,494.446533 581.486633,500.398010 
	C582.081787,506.071716 585.194092,510.056488 590.483276,511.914429 
	C593.720032,513.051392 597.254028,513.342346 601.579468,514.013428 
M450.176422,496.336670 
	C445.347717,505.082123 437.553467,508.391479 427.894714,505.797150 
	C420.346985,503.769836 415.556946,496.622772 415.584442,486.991180 
	C430.824921,486.991180 446.073578,486.991180 461.254211,486.991180 
	C463.554962,469.868469 454.082336,457.281708 437.665283,455.132965 
	C420.548340,452.892609 407.601929,461.947266 405.168091,477.861389 
	C402.131439,497.716949 411.094025,511.501953 428.957855,513.788147 
	C442.500549,515.521362 458.242523,510.266632 460.570312,495.797333 
	C457.289124,495.797333 454.012665,495.797333 450.176422,496.336670 
M326.824310,458.183228 
	C314.731476,465.692139 310.011414,480.627289 314.864288,496.027100 
	C318.810822,508.550629 329.666901,514.958374 345.283691,513.982117 
	C357.918793,513.192261 367.145721,506.206726 369.222229,495.218536 
	C365.292816,496.744293 360.803040,492.884186 357.641754,498.196594 
	C353.205872,505.650909 344.596283,508.378326 335.811096,505.594452 
	C328.407318,503.248352 323.803192,496.024689 324.209015,486.922729 
	C339.437103,486.922729 354.690308,486.922729 369.900146,486.922729 
	C371.094299,470.922333 364.148773,459.406433 351.422455,456.175262 
	C343.314636,454.116699 335.278015,454.412354 326.824310,458.183228 
M718.736816,455.000610 
	C700.450256,457.504913 691.979675,468.271667 693.115479,487.567413 
	C694.073547,503.842560 704.585571,513.827515 720.958923,514.014648 
	C736.401733,514.191162 747.825684,506.676422 748.875671,494.427307 
	C744.956787,495.552399 740.037903,495.447876 738.123291,497.794556 
	C732.019470,505.275757 724.957275,508.383636 715.867126,505.679413 
	C708.508057,503.490143 704.046936,496.724304 703.891296,486.910522 
	C719.243469,486.910522 734.598022,486.910522 749.909851,486.910522 
	C750.684265,465.662506 740.356506,454.984314 718.736816,455.000610 
M1240.449707,535.093872 
	C1254.291748,538.394714 1261.733154,534.555603 1267.275879,521.450134 
	C1275.372314,502.306763 1283.563110,483.203369 1291.695190,464.075073 
	C1292.629150,461.877899 1293.443970,459.629944 1294.405518,457.171478 
	C1290.250244,457.171478 1286.790283,457.171478 1283.266113,457.171478 
	C1277.627319,470.997162 1272.042969,484.689453 1266.010620,499.480011 
	C1259.903931,484.479279 1254.338379,470.807648 1248.849121,457.323212 
	C1244.975464,457.323212 1241.444092,457.323212 1237.555664,457.323212 
	C1244.780396,474.423676 1251.851440,491.092926 1258.830933,507.800385 
	C1259.428345,509.230408 1259.971436,511.060303 1259.603516,512.458008 
	C1255.850830,526.716858 1252.214722,529.074158 1238.079956,526.812134 
	C1237.828735,526.771973 1237.541748,526.955261 1236.936890,527.131958 
	C1237.822266,529.768005 1234.770264,533.516296 1240.449707,535.093872 
M800.546997,460.996338 
	C797.832520,465.471863 794.008240,469.624939 792.597839,474.479340 
	C786.854614,494.247314 796.137817,510.531067 814.261108,513.730896 
	C829.108948,516.352417 842.227844,509.452362 846.423096,496.578552 
	C849.071960,488.450043 849.002686,480.198547 846.308411,472.064941 
	C843.730042,464.281006 838.508789,459.000488 830.614136,456.652283 
	C820.238953,453.566345 810.286804,454.249451 800.546997,460.996338 
M1071.335815,478.848206 
	C1071.478394,469.643005 1068.524170,461.862610 1059.723999,457.933350 
	C1047.820923,452.618591 1036.457275,453.777496 1026.170532,462.969421 
	C1025.607788,460.815430 1025.126587,458.973694 1024.660645,457.190277 
	C1021.903503,457.190277 1019.449036,457.190277 1016.876648,457.190277 
	C1016.876648,475.502563 1016.876648,493.614563 1016.876648,511.612915 
	C1020.321289,511.612915 1023.545837,511.612915 1026.927979,511.612915 
	C1026.927979,500.398224 1026.816650,489.577789 1026.965942,478.760925 
	C1027.070557,471.181244 1030.657471,466.213684 1036.948120,464.234344 
	C1051.269775,459.728088 1061.062134,466.851410 1061.082764,481.805786 
	C1061.096558,491.748444 1061.085449,501.691162 1061.085449,511.817139 
	C1064.716675,511.817139 1067.826782,511.817139 1071.335938,511.817139 
	C1071.335938,501.057983 1071.335938,490.418579 1071.335815,478.848206 
M262.592407,512.072388 
	C271.630035,514.970337 280.599091,514.922974 289.362274,511.122528 
	C296.519714,508.018494 300.655029,502.449005 302.539642,494.807892 
	C293.040710,493.946228 293.040741,493.946259 291.189453,496.826172 
	C286.508575,504.107727 279.620239,507.042053 271.127655,505.372253 
	C262.619385,503.699371 257.640747,498.929016 256.539246,489.981384 
	C255.963608,485.305450 256.258698,480.282562 257.345245,475.697113 
	C259.040436,468.543335 264.258270,464.537018 271.551880,463.530518 
	C278.515106,462.569611 285.582794,463.410248 289.306519,469.744507 
	C292.819427,475.720062 297.208374,474.644257 302.229889,474.277710 
	C299.881531,462.402222 290.126984,455.243866 276.388062,454.986542 
	C260.196045,454.683289 249.657501,461.581421 246.676529,475.183563 
	C243.272980,490.713867 247.257233,506.029358 262.592407,512.072388 
M665.914429,465.692902 
	C672.596252,465.340973 679.278076,464.989044 685.913330,464.639557 
	C685.913330,461.987213 685.913330,459.568207 685.913330,456.661774 
	C679.065369,456.661774 672.492249,456.661774 665.602173,456.661774 
	C665.602173,450.550629 665.602173,444.932556 665.602173,439.287537 
	C662.687256,439.287537 660.127869,439.287537 657.469055,439.287537 
	C656.721375,445.322968 656.013977,451.033264 655.265076,457.078918 
	C651.897949,457.078918 648.979370,457.078918 646.052002,457.078918 
	C646.052002,459.925415 646.052002,462.361389 646.052002,465.175476 
	C649.242249,465.175476 652.185486,465.175476 655.033020,465.175476 
	C655.201843,465.866882 655.343506,466.178192 655.344360,466.489868 
	C655.369995,475.986969 655.371399,485.484131 655.398193,494.981232 
	C655.438721,509.340424 664.593628,516.573914 678.731262,513.432861 
	C686.665710,511.670044 686.933533,511.279022 685.616333,503.007690 
	C684.994995,503.340240 684.470642,503.666199 683.911560,503.913452 
	C672.565735,508.930359 665.796143,504.545746 665.777954,492.155487 
	C665.765503,483.657654 665.786743,475.159790 665.914429,465.692902 
M1228.373047,465.017975 
	C1230.518433,465.017975 1232.663818,465.017975 1235.001221,465.017975 
	C1235.001221,462.268494 1235.001221,459.813141 1235.001221,456.883240 
	C1228.289551,456.883240 1221.711914,456.883240 1214.648438,456.883240 
	C1214.648438,450.672577 1214.648438,444.924377 1214.648438,439.166321 
	C1211.699707,439.166321 1209.251099,439.166321 1206.499756,439.166321 
	C1205.767090,445.079132 1205.055908,450.817566 1204.306641,456.864441 
	C1201.137939,456.864441 1198.180908,456.864441 1195.134521,456.864441 
	C1195.134521,459.760071 1195.134521,462.303833 1195.134521,465.253937 
	C1198.393555,465.253937 1201.322754,465.253937 1204.395752,465.253937 
	C1204.395752,475.164429 1204.391479,484.659546 1204.396729,494.154663 
	C1204.405273,509.550629 1213.437622,516.742859 1228.384521,513.261780 
	C1235.766968,511.542389 1236.206421,510.822571 1234.583496,503.549255 
	C1231.745850,504.291748 1228.938354,505.394684 1226.045654,505.705109 
	C1220.333008,506.318268 1215.484009,503.436340 1215.263550,498.451019 
	C1214.775146,487.405975 1215.111450,476.324463 1215.111450,465.017975 
	C1219.450073,465.017975 1223.431030,465.017975 1228.373047,465.017975 
M1162.612549,467.500183 
	C1162.612549,456.743530 1162.612549,445.986877 1162.612549,435.319733 
	C1158.974365,435.319733 1155.919434,435.319733 1152.899902,435.319733 
	C1152.899902,461.028015 1152.899902,486.393341 1152.899902,511.670166 
	C1156.223267,511.670166 1159.282837,511.670166 1162.612549,511.670166 
	C1162.612549,497.046722 1162.612549,482.773468 1162.612549,467.500183 
M392.612579,471.500183 
	C392.612579,459.411652 392.612579,447.323151 392.612579,435.314606 
	C388.983429,435.314606 385.926666,435.314606 382.894562,435.314606 
	C382.894562,461.019989 382.894562,486.387573 382.894562,511.674896 
	C386.213776,511.674896 389.274689,511.674896 392.612488,511.674896 
	C392.612488,498.386475 392.612488,485.443359 392.612579,471.500183 
M860.663696,478.499817 
	C860.663696,489.594086 860.663696,500.688324 860.663696,511.740570 
	C864.345703,511.740570 867.443481,511.740570 870.914490,511.740570 
	C870.914490,501.687653 871.437988,491.864380 870.790527,482.118958 
	C869.843567,467.866119 875.754150,459.126129 892.756165,465.335907 
	C893.477844,457.182373 892.428955,455.132965 884.890564,455.277771 
	C879.802490,455.375488 874.758545,457.772034 869.500610,459.192780 
	C868.510193,455.019958 864.390930,457.291138 860.663818,457.211609 
	C860.663818,464.203369 860.663818,470.851624 860.663696,478.499817 
M542.077881,490.499878 
	C542.077881,497.586304 542.077881,504.672699 542.077881,511.798492 
	C545.804199,511.798492 548.900146,511.798492 552.345642,511.798492 
	C552.345642,500.631287 552.283875,489.676270 552.361389,478.722198 
	C552.455994,465.352661 559.786316,460.303955 572.241211,464.916748 
	C572.844971,465.140350 573.471680,465.301910 574.113281,465.500275 
	C575.286682,457.400787 574.205872,455.966919 566.564575,455.035400 
	C560.487976,454.294617 555.631653,456.766144 551.303833,461.127472 
	C549.977356,454.706726 545.722168,457.493195 542.077881,457.201477 
	C542.077881,468.261292 542.077881,478.880646 542.077881,490.499878 
M911.337036,500.467621 
	C911.337036,486.058838 911.337036,471.650085 911.337036,457.224854 
	C907.721802,457.224854 904.622681,457.224854 901.308228,457.224854 
	C901.308228,475.481659 901.308228,493.503784 901.308228,511.694794 
	C904.709961,511.694794 907.895203,511.694794 911.336914,511.694794 
	C911.336914,508.072723 911.336914,504.763123 911.337036,500.467621 
M1003.035583,461.633728 
	C1002.963928,460.195618 1002.892212,458.757538 1002.815063,457.210266 
	C999.400085,457.210266 996.320007,457.210266 993.183105,457.210266 
	C993.183105,475.565125 993.183105,493.702332 993.183105,511.694366 
	C996.624207,511.694366 999.704163,511.694366 1003.035583,511.694366 
	C1003.035583,495.127045 1003.035583,478.868927 1003.035583,461.633728 
M1175.827881,460.622437 
	C1175.827881,477.663086 1175.827881,494.703735 1175.827881,511.746094 
	C1179.511841,511.746094 1182.590576,511.746094 1185.804321,511.746094 
	C1185.804321,493.467438 1185.804321,475.448303 1185.804321,456.997528 
	C1183.129395,456.997528 1180.642822,456.759796 1178.245728,457.118896 
	C1177.334351,457.255432 1176.628418,458.763916 1175.827881,460.622437 
M909.159546,445.191040 
	C913.701294,442.442932 910.263123,438.517700 911.380066,435.223083 
	C907.572449,435.223083 904.509949,435.223083 901.293823,435.223083 
	C901.293823,438.550720 901.293823,441.601593 901.293823,445.194763 
	C903.743958,445.194763 905.994446,445.194763 909.159546,445.191040 
M1185.936279,444.326843 
	C1185.936279,441.276337 1185.936279,438.225830 1185.936279,435.190857 
	C1182.307739,435.190857 1179.248535,435.190857 1176.149902,435.190857 
	C1176.149902,438.612366 1176.149902,441.786438 1176.149902,445.025848 
	C1179.409546,445.025848 1182.347656,445.025848 1185.936279,444.326843 
M1003.035461,438.597015 
	C1002.582153,434.485199 1000.479797,433.866333 993.085815,435.606140 
	C993.085815,438.705078 993.085815,441.770966 993.085815,444.812012 
	C996.519043,444.812012 999.682007,444.812012 1003.035583,444.812012 
	C1003.035583,442.807373 1003.035583,441.175415 1003.035461,438.597015 
z"/>
<path fill="#FF9101" opacity="1.000000" stroke="none" 
	d="
M691.229858,358.753693 
	C677.769653,352.046448 669.675659,341.118835 665.914490,325.942413 
	C665.155640,316.742462 664.503052,308.300079 663.929932,299.434418 
	C664.880310,292.941864 665.371643,286.787567 666.708435,280.822723 
	C668.874634,271.157440 671.595520,261.616486 674.050476,252.011963 
	C674.018677,252.000916 674.013855,252.067932 674.299194,251.989288 
	C674.653503,251.526733 674.722351,251.142807 674.969849,250.443939 
	C680.441284,235.118149 685.734070,220.107330 691.282288,204.814453 
	C691.716980,203.521545 691.896301,202.510681 692.041748,201.505600 
	C692.007751,201.511383 692.042603,201.570740 692.363098,201.361206 
	C694.505310,196.402557 696.361267,191.666229 698.141418,186.901550 
	C701.677002,177.438126 701.659790,177.431686 691.669067,174.669189 
	C684.709290,171.405258 682.095703,165.311508 679.885742,158.918243 
	C679.883545,156.593063 679.773132,154.261978 679.899841,151.943848 
	C680.257996,145.393112 682.706848,143.319763 689.133118,142.909409 
	C708.923523,141.645798 721.641418,130.459839 730.086670,113.344971 
	C733.746338,105.928482 737.159424,98.325912 741.545715,91.349312 
	C746.629028,83.264267 754.757019,80.077080 764.192993,80.276863 
	C773.669617,80.477501 778.715576,87.189980 778.198669,99.773117 
	C775.453735,108.099495 772.769531,115.576485 770.209167,123.095665 
	C768.663696,127.634415 766.936035,132.162628 765.986633,136.837021 
	C765.185242,140.782730 767.189636,143.121124 771.608459,143.003418 
	C777.764404,142.839462 783.926025,142.891998 790.085266,142.851868 
	C797.920898,143.173370 799.731201,144.886948 800.121826,152.762939 
	C800.258789,155.525482 799.987915,158.308243 799.790466,161.884720 
	C798.398804,166.269608 797.465759,170.025864 795.766724,173.395966 
	C792.572021,179.732803 787.869263,183.594986 780.007507,183.238708 
	C772.746155,182.909637 765.416809,183.543289 758.145935,184.115768 
	C750.939087,184.683197 743.578979,185.727753 739.612488,192.861130 
	C731.723450,207.048996 727.167480,222.279572 729.304077,238.578232 
	C730.923645,250.933319 738.940430,259.399323 748.951172,261.546509 
	C749.474915,262.047943 749.697632,262.414856 749.977600,262.465363 
	C766.547546,265.457306 781.571289,262.482147 794.245361,250.783325 
	C795.126648,249.969879 795.849548,248.609085 795.989441,247.425232 
	C797.739075,232.618149 799.367249,217.796722 801.199707,202.634918 
	C804.940186,188.880554 808.507629,175.470276 812.075012,162.059998 
	C818.656982,148.092789 824.824646,133.909149 831.967651,120.235031 
	C836.674011,111.225449 843.231201,103.360664 852.131592,97.865921 
	C861.787842,91.904518 871.799072,90.017799 882.791626,95.452126 
	C893.432678,65.149651 912.041870,42.942448 944.988647,37.005524 
	C976.712402,31.289000 1004.193726,38.449337 1023.709961,67.193329 
	C1035.443970,88.446487 1037.581299,111.018814 1036.937988,135.219315 
	C1042.716797,125.040176 1047.844116,116.008530 1052.971558,106.976883 
	C1062.218262,93.084816 1072.520508,80.070229 1084.771484,68.670738 
	C1102.184937,52.467598 1122.093384,40.839172 1145.698853,36.561836 
	C1165.550049,32.964787 1185.145752,33.642746 1202.025024,46.230198 
	C1209.076660,51.488819 1214.458618,58.986401 1220.816895,66.079483 
	C1223.472290,71.969040 1226.293213,77.104996 1228.284668,82.544586 
	C1238.874878,111.469330 1239.084839,141.301010 1234.593018,171.219727 
	C1228.782227,209.925476 1216.378296,246.467438 1196.383301,280.296204 
	C1180.846191,306.583099 1162.010254,329.793945 1135.624756,346.006744 
	C1116.034790,358.043976 1094.843262,363.042389 1072.062622,358.967865 
	C1064.804565,357.669769 1057.862549,354.606110 1050.775879,352.350342 
	C1040.219116,344.632385 1030.304688,336.170105 1024.642334,324.094818 
	C1020.640076,315.559631 1017.645020,306.552124 1014.087891,296.996399 
	C1011.897461,280.800476 1009.819397,265.363678 1007.877625,250.938782 
	C1003.396973,259.379120 998.624451,269.056946 993.240662,278.381866 
	C977.337952,305.925415 958.122375,330.615967 930.705933,347.750854 
	C910.826172,360.175415 889.245483,366.010773 865.955261,360.826782 
	C857.018188,358.837555 848.639160,354.341095 840.005859,350.987122 
	C830.204346,343.390411 820.959473,335.258453 814.156555,323.890686 
	C809.278076,313.798157 804.737610,304.268555 800.215088,294.776642 
	C799.611816,295.685822 798.693848,297.029053 797.816284,298.398163 
	C788.730957,312.571198 779.223267,326.410156 766.670349,337.844513 
	C745.050476,357.537781 720.661011,367.241791 691.229858,358.753693 
M954.691223,165.689850 
	C952.824890,178.684860 946.531006,188.237656 933.817505,193.003601 
	C925.155090,196.250916 916.558228,195.286789 907.371521,192.722275 
	C902.949524,189.444778 898.527588,186.167282 893.872681,182.252945 
	C885.783752,172.942856 881.778564,161.664597 878.705933,149.379272 
	C871.475281,166.430313 866.360840,183.291397 865.423462,201.061905 
	C864.596008,216.748032 865.142822,232.436905 872.909485,246.757614 
	C876.404846,253.202362 881.235291,258.385162 889.297729,260.779602 
	C890.881226,261.277313 892.432190,261.964203 894.053284,262.243683 
	C912.137939,265.362122 927.984314,259.765930 941.078125,247.846802 
	C970.718262,220.865799 982.124390,186.415909 979.368591,147.045303 
	C978.872864,139.963852 975.770325,133.064865 973.970154,125.361572 
	C967.589294,111.056625 955.152832,104.050552 939.805908,106.115135 
	C927.613525,107.755356 920.307922,116.628326 921.052673,128.891556 
	C921.701111,139.568359 928.754456,145.558731 941.792236,146.000031 
	C952.064575,148.246613 954.370178,156.040543 954.691223,165.689850 
M1166.252686,142.065628 
	C1162.524780,131.511292 1155.113770,125.391769 1144.033813,123.902000 
	C1129.617554,121.963684 1117.698120,127.302917 1107.336426,136.883682 
	C1094.230591,149.001587 1086.186157,164.173538 1081.509277,181.138290 
	C1076.342529,199.879593 1074.585083,218.793060 1082.011108,237.418381 
	C1085.407715,245.937576 1090.464844,253.244659 1100.750122,256.238281 
	C1106.455933,256.682098 1112.336060,258.226776 1117.833740,257.356293 
	C1132.350098,255.057846 1142.585449,245.583160 1151.075195,234.384628 
	C1164.578857,216.572235 1170.827148,196.043808 1171.455811,173.889267 
	C1171.756592,163.295074 1171.588989,152.550522 1166.252686,142.065628 
z"/>
<path fill="#5F18EB" opacity="1.000000" stroke="none" 
	d="
M674.082275,252.023010 
	C671.595520,261.616486 668.874634,271.157440 666.708435,280.822723 
	C665.371643,286.787567 664.880310,292.941864 663.584961,299.526215 
	C648.672913,307.272705 633.739380,311.211395 617.481201,306.752472 
	C616.406433,306.457703 614.448181,308.030457 613.405884,309.188873 
	C605.962036,317.461975 599.184387,326.411102 591.179565,334.086334 
	C576.156494,348.490845 559.127747,359.038361 536.982117,357.025452 
	C526.266724,353.152863 519.384094,345.649139 515.851929,334.119873 
	C510.353882,316.943146 510.487305,300.065125 511.750885,282.986908 
	C510.393250,285.113464 509.425079,287.334290 508.406189,289.531647 
	C501.521179,304.380066 493.971710,318.822327 482.919128,331.117584 
	C468.416351,347.250946 451.608459,358.591400 428.669678,356.889740 
	C424.731354,356.597565 420.836792,355.716339 416.921997,355.107208 
	C406.164551,348.666595 397.471863,340.301270 392.432495,328.597443 
	C391.192230,325.717010 390.219604,322.721283 388.974365,319.041077 
	C386.824615,308.346954 384.824493,298.390320 382.822052,288.422119 
	C382.525848,288.596191 382.034454,288.772095 381.692169,289.102448 
	C367.404419,302.893433 350.046722,308.663177 330.497437,308.984161 
	C328.815735,309.011780 326.807953,310.199524 325.547974,311.449463 
	C317.901031,319.035553 310.994110,327.472687 302.777557,334.357635 
	C285.657715,348.703003 265.892822,357.271301 243.212677,357.857544 
	C230.376114,358.189362 218.218109,355.238190 206.742538,349.479858 
	C200.287766,343.506744 193.832977,337.533600 187.059021,330.974915 
	C182.296112,320.591980 177.852417,310.794617 173.776062,301.807159 
	C167.685852,309.854370 161.184464,319.287048 153.813736,327.982910 
	C143.268127,340.424469 130.860245,350.523285 114.774750,355.248444 
	C103.304222,358.617950 91.834404,357.857147 80.320724,355.688354 
	C78.440056,354.652313 76.536171,353.656036 74.682541,352.573700 
	C63.349560,345.956451 58.255199,335.510620 56.950035,322.961517 
	C54.546570,299.852295 58.258781,277.211121 65.576630,255.590973 
	C82.725189,204.926559 100.795280,154.565430 119.165413,104.327652 
	C125.784622,86.225731 134.356415,68.863121 147.537857,54.268082 
	C153.230408,47.965061 159.904907,43.770073 168.479767,42.865067 
	C182.236938,41.413097 188.829941,47.302727 188.758728,61.913795 
	C185.778564,70.795349 183.602402,79.240067 179.917480,86.965096 
	C161.679962,125.198196 143.336227,163.389343 131.932907,204.369659 
	C128.754410,215.792252 126.210999,227.586212 125.203629,239.366074 
	C124.093971,252.342087 130.796219,258.564514 144.146118,259.747192 
	C162.317307,260.871918 177.681778,247.038986 182.966629,232.460587 
	C191.905365,207.802750 205.440933,186.143616 224.480774,168.058517 
	C239.017700,154.250565 255.999832,144.668991 275.677277,140.520309 
	C290.044403,137.491196 304.473297,137.937546 318.589386,142.405624 
	C331.983765,146.645279 341.192719,156.006653 348.855042,168.047760 
	C361.976776,198.102386 359.611603,228.149109 352.069885,258.500824 
	C361.999451,259.968933 369.882263,256.806610 377.000061,251.092682 
	C384.237640,246.088699 388.853424,239.578629 391.030548,230.776245 
	C396.076965,210.373322 403.101929,190.624588 412.929626,171.959457 
	C418.233063,161.886978 424.013733,152.082382 433.135895,144.991760 
	C436.568878,142.323395 440.815460,140.101059 445.023865,139.154221 
	C454.208221,137.087845 460.259644,142.118805 460.961304,151.484268 
	C461.122864,153.640701 461.076904,155.812683 461.097229,158.862442 
	C460.604553,163.030014 460.525970,166.424530 459.609772,169.575500 
	C456.039886,181.853058 452.173218,194.043976 448.476440,206.285110 
	C444.630310,219.020721 440.800873,231.743271 441.970612,245.347366 
	C443.006622,257.396515 450.010864,265.206726 460.928528,266.089172 
	C470.885651,268.489990 479.490601,265.273010 486.622589,258.714630 
	C498.778320,247.536621 502.320892,232.443832 503.986084,216.800415 
	C505.515472,202.432358 506.002289,187.911301 508.333252,173.684540 
	C510.050964,163.200974 514.129517,153.263641 522.796509,145.883133 
	C532.380249,137.721954 554.912842,135.863739 565.309082,142.910492 
	C570.714844,146.574585 573.279358,152.127151 574.952759,159.016174 
	C577.229431,170.793381 574.090454,180.885193 569.720886,190.735153 
	C566.616638,197.732712 563.251526,204.615326 560.193909,211.632507 
	C555.872620,221.549774 551.378418,231.455490 552.115234,242.698868 
	C553.051575,256.987762 559.675415,264.853180 572.208679,266.580505 
	C587.750366,268.427856 599.665039,261.909241 609.209106,250.269409 
	C610.138245,249.136261 610.324890,246.892227 610.019897,245.326813 
	C606.914429,229.387268 605.867432,213.311661 607.012573,197.143311 
	C608.055725,182.414658 610.936096,168.069977 619.128235,155.429626 
	C625.927307,144.938904 635.396118,138.380005 648.260010,137.942184 
	C662.177002,137.468506 669.082947,142.854507 672.717896,157.211548 
	C672.775696,164.624908 673.261780,171.328949 672.432617,177.866180 
	C669.690918,199.482666 661.916992,219.584717 652.934387,239.262543 
	C650.018311,245.650574 647.042786,252.011475 643.646912,259.352417 
	C649.375854,258.904968 654.134033,259.166748 658.529236,258.027740 
	C663.873413,256.642822 668.911621,254.077621 674.082275,252.023010 
M303.163696,221.139069 
	C302.275848,218.321579 301.829803,215.257904 300.421448,212.730453 
	C295.133423,203.240631 283.503998,200.442108 271.177765,203.995514 
	C253.195938,209.179337 240.846954,230.375504 244.173035,248.880783 
	C246.168030,259.980164 252.334473,265.691132 263.506989,266.646271 
	C271.685547,267.788574 278.919678,265.377563 285.525543,260.719910 
	C298.048676,251.890121 305.947876,234.386108 303.163696,221.139069 
z"/>
<path fill="#FF9101" opacity="1.000000" stroke="none" 
	d="
M1239.270874,359.714813 
	C1227.573608,354.285095 1219.260742,345.875732 1217.118652,332.791962 
	C1215.997559,325.943909 1215.901123,318.914337 1215.574707,311.955841 
	C1215.419189,308.641205 1215.807373,305.301056 1216.037109,301.107574 
	C1217.669189,291.578552 1218.385254,282.664307 1220.911499,274.296570 
	C1228.925903,247.749023 1237.554199,221.385544 1246.074951,194.992752 
	C1249.537720,184.266998 1253.334595,173.649109 1256.979492,162.982147 
	C1263.989014,144.840591 1270.736084,126.591927 1278.082031,108.587654 
	C1285.378418,90.705307 1293.351929,73.131065 1306.485229,58.490105 
	C1312.410156,51.885044 1319.410278,47.569962 1328.386719,46.892303 
	C1341.685303,45.888355 1347.875610,51.686195 1347.853027,65.923752 
	C1345.066162,74.559837 1343.048340,82.731430 1339.485596,90.162247 
	C1321.057617,128.595245 1302.626587,167.028519 1291.044800,208.224533 
	C1287.828247,219.665726 1285.256348,231.486526 1284.233765,243.292999 
	C1283.102905,256.347168 1289.743896,262.560608 1303.112061,263.809662 
	C1319.022339,264.747925 1329.861694,256.349579 1338.279541,244.143326 
	C1353.651001,221.853256 1368.491333,199.193954 1384.028931,177.022125 
	C1393.761108,163.134232 1404.346436,149.882431 1418.561646,140.037186 
	C1434.541382,128.969986 1450.925049,129.585541 1467.523193,138.083710 
	C1474.148926,141.476166 1478.332764,147.283218 1480.918457,155.028351 
	C1483.300659,162.627823 1481.047852,167.856216 1475.040527,171.507462 
	C1470.495850,174.269760 1465.784180,176.756012 1461.173706,179.411789 
	C1450.137207,185.769104 1447.978149,192.535706 1453.360107,203.893570 
	C1458.345215,214.414185 1463.601440,224.814590 1468.287476,235.466293 
	C1472.487549,245.013062 1476.073608,254.829865 1480.258301,265.351410 
	C1483.376221,264.134583 1486.667725,262.850067 1489.959229,261.565521 
	C1494.991577,257.365875 1500.106689,253.259460 1505.008789,248.912933 
	C1506.590454,247.510544 1507.619995,245.482437 1508.889038,243.730957 
	C1513.316406,237.620667 1517.739502,236.340256 1523.252563,239.581787 
	C1530.265503,243.705261 1531.933228,248.931931 1528.485596,255.899094 
	C1526.272827,260.371185 1524.091309,264.858765 1521.490967,269.882019 
	C1509.265747,294.394745 1494.476685,316.227112 1473.895386,333.564362 
	C1448.331177,355.099182 1418.933472,365.020447 1385.498413,359.979156 
	C1376.450684,358.614990 1367.771729,354.803741 1358.923584,352.115662 
	C1353.850830,347.804016 1348.777954,343.492340 1343.301270,338.686035 
	C1337.976440,329.690033 1333.055542,321.188690 1328.234985,312.860840 
	C1323.511230,318.822083 1318.450195,325.756897 1312.821533,332.195343 
	C1301.855347,344.739197 1289.304199,355.105316 1272.777954,359.688171 
	C1261.577148,362.794220 1250.440918,361.877716 1239.270874,359.714813 
M1361.976074,259.553223 
	C1366.168091,266.987091 1373.020752,269.959595 1381.963013,270.980438 
	C1389.292725,271.398682 1396.274170,270.214172 1402.282104,265.753723 
	C1413.502197,257.423798 1417.780762,241.552139 1412.954346,226.305801 
	C1410.347534,219.592926 1407.951904,212.785965 1405.022583,206.216919 
	C1403.961792,203.838486 1402.392944,200.503998 1397.666382,202.830078 
	C1397.029175,203.353119 1396.252075,203.772263 1395.775146,204.414368 
	C1384.187866,220.014221 1372.515869,235.554916 1361.257812,251.389557 
	C1360.167847,252.922424 1361.676147,256.302521 1361.976074,259.553223 
z"/>
<path fill="#FFDB98" opacity="1.000000" stroke="none" 
	d="
M1256.705322,162.741562 
	C1253.334595,173.649109 1249.537720,184.266998 1246.074951,194.992752 
	C1237.554199,221.385544 1228.925903,247.749023 1220.911499,274.296570 
	C1218.385254,282.664307 1217.669189,291.578552 1216.020264,300.652771 
	C1211.754028,307.027283 1207.684692,313.058807 1203.413818,318.944061 
	C1188.088623,340.061920 1170.215942,358.470764 1146.469849,370.123413 
	C1125.208008,380.556946 1102.906128,383.504639 1080.232300,375.651154 
	C1068.209839,371.486908 1057.504395,364.619232 1050.794189,352.693268 
	C1057.862549,354.606110 1064.804565,357.669769 1072.062622,358.967865 
	C1094.843262,363.042389 1116.034790,358.043976 1135.624756,346.006744 
	C1162.010254,329.793945 1180.846191,306.583099 1196.383301,280.296204 
	C1216.378296,246.467438 1228.782227,209.925476 1234.593018,171.219727 
	C1239.084839,141.301010 1238.874878,111.469330 1228.284668,82.544586 
	C1226.293213,77.104996 1223.472290,71.969040 1221.034668,66.332207 
	C1229.969482,70.041489 1235.247803,77.806732 1240.181274,85.650772 
	C1249.215210,100.014084 1253.181763,116.154945 1254.908325,132.807373 
	C1255.929077,142.652039 1255.956909,152.599655 1256.705322,162.741562 
z"/>
<path fill="#FFDC99" opacity="1.000000" stroke="none" 
	d="
M1358.954102,352.461212 
	C1367.771729,354.803741 1376.450684,358.614990 1385.498413,359.979156 
	C1418.933472,365.020447 1448.331177,355.099182 1473.895386,333.564362 
	C1494.476685,316.227112 1509.265747,294.394745 1521.343018,270.223206 
	C1524.008911,267.453613 1526.636353,265.054199 1528.780762,262.281372 
	C1532.975952,256.856506 1537.338989,255.702515 1542.982422,259.055939 
	C1547.622925,261.813416 1551.615967,268.214874 1548.549805,274.212402 
	C1539.084595,292.725861 1529.964233,311.406616 1517.043945,327.858765 
	C1496.292114,354.283447 1471.110596,374.073212 1436.899292,379.426819 
	C1414.114258,382.992371 1392.036621,380.847412 1372.628418,367.070404 
	C1367.360107,363.330719 1363.494141,357.615326 1358.954102,352.461212 
z"/>
<path fill="#BFA2F7" opacity="1.000000" stroke="none" 
	d="
M144.131470,259.317444 
	C130.796219,258.564514 124.093971,252.342087 125.203629,239.366074 
	C126.210999,227.586212 128.754410,215.792252 131.932907,204.369659 
	C143.336227,163.389343 161.679962,125.198196 179.917480,86.965096 
	C183.602402,79.240067 185.778564,70.795349 188.819641,62.344482 
	C193.567154,63.101761 198.799286,63.154110 202.578262,65.523804 
	C209.104019,69.615913 209.432892,77.056122 207.454315,83.535568 
	C204.372070,93.629303 200.628998,103.627167 196.082535,113.148293 
	C181.535721,143.612061 167.179611,174.166962 156.628235,206.271362 
	C151.719101,221.208191 148.433624,236.682678 144.556000,251.949982 
	C143.995377,254.157349 144.243149,256.570038 144.131470,259.317444 
z"/>
<path fill="#FFDC99" opacity="1.000000" stroke="none" 
	d="
M1303.107422,263.381531 
	C1289.743896,262.560608 1283.102905,256.347168 1284.233765,243.292999 
	C1285.256348,231.486526 1287.828247,219.665726 1291.044800,208.224533 
	C1302.626587,167.028519 1321.057617,128.595245 1339.485596,90.162247 
	C1343.048340,82.731430 1345.066162,74.559837 1347.907959,66.358658 
	C1353.492554,65.645447 1358.693970,66.390793 1362.833496,70.372864 
	C1368.222168,75.556633 1368.269043,82.394508 1366.385376,88.564369 
	C1363.395996,98.356293 1359.645630,108.016479 1355.208862,117.247772 
	C1339.859497,149.183929 1324.853149,181.266846 1314.241333,215.140854 
	C1309.890503,229.028793 1306.899292,243.345062 1303.394409,257.492462 
	C1302.963989,259.230194 1303.184204,261.129150 1303.107422,263.381531 
z"/>
<path fill="#FFDC98" opacity="1.000000" stroke="none" 
	d="
M839.988770,351.342285 
	C848.639160,354.341095 857.018188,358.837555 865.955261,360.826782 
	C889.245483,366.010773 910.826172,360.175415 930.705933,347.750854 
	C958.122375,330.615967 977.337952,305.925415 993.240662,278.381866 
	C998.624451,269.056946 1003.396973,259.379120 1007.877625,250.938782 
	C1009.819397,265.363678 1011.897461,280.800476 1013.960083,296.640350 
	C1010.574280,302.128052 1007.250732,307.244446 1003.825256,312.291656 
	C990.018799,332.634613 974.344055,351.225616 953.563538,364.878998 
	C937.293701,375.568787 919.734680,382.321075 899.892822,382.017578 
	C881.747681,381.739990 865.746582,375.666107 851.881714,364.180023 
	C847.483276,360.536285 843.918091,355.886749 839.988770,351.342285 
z"/>
<path fill="#BFA2F7" opacity="1.000000" stroke="none" 
	d="
M206.767548,349.817627 
	C218.218109,355.238190 230.376114,358.189362 243.212677,357.857544 
	C265.892822,357.271301 285.657715,348.703003 302.777557,334.357635 
	C310.994110,327.472687 317.901031,319.035553 325.547974,311.449463 
	C326.807953,310.199524 328.815735,309.011780 330.497437,308.984161 
	C350.046722,308.663177 367.404419,302.893433 381.692169,289.102448 
	C382.034454,288.772095 382.525848,288.596191 382.822052,288.422119 
	C384.824493,298.390320 386.824615,308.346954 388.866211,318.685120 
	C383.021698,321.174988 377.261200,323.812256 371.215332,325.247070 
	C364.820862,326.764587 358.175140,327.447296 351.598694,327.880066 
	C348.275391,328.098755 346.146942,329.109711 344.101074,331.705292 
	C326.941711,353.475464 305.818207,369.647156 278.189819,375.310669 
	C253.771820,380.316101 231.210556,376.325378 212.753769,358.020721 
	C210.441177,355.727173 208.764099,352.792816 206.767548,349.817627 
z"/>
<path fill="#BFA2F7" opacity="1.000000" stroke="none" 
	d="
M537.002197,357.384064 
	C559.127747,359.038361 576.156494,348.490845 591.179565,334.086334 
	C599.184387,326.411102 605.962036,317.461975 613.405884,309.188873 
	C614.448181,308.030457 616.406433,306.457703 617.481201,306.752472 
	C633.739380,311.211395 648.672913,307.272705 663.505493,299.949524 
	C664.503052,308.300079 665.155640,316.742462 665.784668,325.575653 
	C656.769958,327.723328 647.767700,329.285126 638.722778,326.338440 
	C635.945435,325.433655 634.253479,326.269958 632.435852,328.651917 
	C620.995239,343.644501 608.535583,357.589874 592.203308,367.605896 
	C583.954163,372.664825 575.114502,376.087006 565.595825,376.735657 
	C553.684631,377.547363 543.031738,372.142700 537.002197,357.384064 
z"/>
<path fill="#FFDC99" opacity="1.000000" stroke="none" 
	d="
M691.163330,359.121124 
	C720.661011,367.241791 745.050476,357.537781 766.670349,337.844513 
	C779.223267,326.410156 788.730957,312.571198 797.816284,298.398163 
	C798.693848,297.029053 799.611816,295.685822 800.215088,294.776642 
	C804.737610,304.268555 809.278076,313.798157 813.912354,323.660095 
	C809.604187,329.767151 805.286133,335.608215 800.783997,341.303833 
	C788.436218,356.924805 774.068176,370.252045 754.944031,376.857971 
	C736.572205,383.204010 718.016602,384.554718 701.342285,371.965027 
	C697.167175,368.812714 694.472107,363.700195 691.163330,359.121124 
z"/>
<path fill="#BFA2F7" opacity="1.000000" stroke="none" 
	d="
M416.885376,355.467590 
	C420.836792,355.716339 424.731354,356.597565 428.669678,356.889740 
	C451.608459,358.591400 468.416351,347.250946 482.919128,331.117584 
	C493.971710,318.822327 501.521179,304.380066 508.406189,289.531647 
	C509.425079,287.334290 510.393250,285.113464 511.750885,282.986908 
	C510.487305,300.065125 510.353882,316.943146 515.746826,333.768097 
	C511.633759,339.237579 507.536163,344.354126 503.362488,349.407898 
	C491.164307,364.178192 476.081024,374.497223 456.769226,376.594238 
	C441.483246,378.254089 424.633514,371.275543 416.885376,355.467590 
z"/>
<path fill="#BFA2F7" opacity="1.000000" stroke="none" 
	d="
M80.245422,356.052429 
	C91.834404,357.857147 103.304222,358.617950 114.774750,355.248444 
	C130.860245,350.523285 143.268127,340.424469 153.813736,327.982910 
	C161.184464,319.287048 167.685852,309.854370 173.776062,301.807159 
	C177.852417,310.794617 182.296112,320.591980 186.848541,330.716370 
	C181.984360,336.988251 177.175140,343.079651 172.007904,348.850525 
	C156.332443,366.357208 137.869553,378.271637 113.204308,376.933807 
	C98.514908,376.137085 86.505981,370.781494 80.245422,356.052429 
z"/>
<path fill="#FFDB98" opacity="1.000000" stroke="none" 
	d="
M811.608887,162.067139 
	C808.507629,175.470276 804.940186,188.880554 800.730347,202.596420 
	C793.597168,202.953369 787.100952,202.853256 780.616699,203.086014 
	C764.604675,203.660782 758.869080,208.054611 753.741333,223.282318 
	C749.587585,235.617523 746.475525,248.084885 748.676941,261.264313 
	C738.940430,259.399323 730.923645,250.933319 729.304077,238.578232 
	C727.167480,222.279572 731.723450,207.048996 739.612488,192.861130 
	C743.578979,185.727753 750.939087,184.683197 758.145935,184.115768 
	C765.416809,183.543289 772.746155,182.909637 780.007507,183.238708 
	C787.869263,183.594986 792.572021,179.732803 795.766724,173.395966 
	C797.465759,170.025864 798.398804,166.269608 799.830444,162.349121 
	C803.703125,162.031815 807.422974,162.053055 811.608887,162.067139 
z"/>
<path fill="#FFDC99" opacity="1.000000" stroke="none" 
	d="
M1239.218018,360.080261 
	C1250.440918,361.877716 1261.577148,362.794220 1272.777954,359.688171 
	C1289.304199,355.105316 1301.855347,344.739197 1312.821533,332.195343 
	C1318.450195,325.756897 1323.511230,318.822083 1328.234985,312.860840 
	C1333.055542,321.188690 1337.976440,329.690033 1343.021118,338.503845 
	C1339.248291,343.320099 1335.351562,347.823761 1331.455200,352.327698 
	C1318.821777,366.930969 1303.939819,378.135773 1284.254517,380.555908 
	C1269.730835,382.341461 1255.458008,381.209045 1244.753540,369.156128 
	C1242.490601,366.608124 1241.007690,363.367279 1239.218018,360.080261 
z"/>
<path fill="#BFA2F7" opacity="1.000000" stroke="none" 
	d="
M460.979034,265.618896 
	C450.010864,265.206726 443.006622,257.396515 441.970612,245.347366 
	C440.800873,231.743271 444.630310,219.020721 448.476440,206.285110 
	C452.173218,194.043976 456.039886,181.853058 459.609772,169.575500 
	C460.525970,166.424530 460.604553,163.030014 461.147400,159.307388 
	C477.079193,154.725983 483.182220,165.233368 480.237885,180.739197 
	C477.438812,195.480087 472.603363,209.855652 468.298462,224.282990 
	C464.308838,237.653732 460.171112,250.940460 460.979034,265.618896 
z"/>
<path fill="#BFA2F7" opacity="1.000000" stroke="none" 
	d="
M572.144043,266.145569 
	C559.675415,264.853180 553.051575,256.987762 552.115234,242.698868 
	C551.378418,231.455490 555.872620,221.549774 560.193909,211.632507 
	C563.251526,204.615326 566.616638,197.732712 569.720886,190.735153 
	C574.090454,180.885193 577.229431,170.793381 575.073486,159.364182 
	C586.751038,160.261765 594.385620,169.962097 594.997803,183.732132 
	C595.487610,194.748352 591.727356,204.584686 587.309998,214.331833 
	C583.329346,223.115463 579.468323,231.954300 575.641235,240.806244 
	C572.198608,248.768768 571.181274,257.110809 572.144043,266.145569 
z"/>
<path fill="#2A2A2A" opacity="1.000000" stroke="none" 
	d="
M979.603271,471.010406 
	C979.603333,484.495209 979.603882,497.482452 979.603271,510.469666 
	C979.602600,526.547485 974.045593,533.702637 958.207642,535.497803 
	C951.303284,536.280396 943.895996,535.295166 937.090759,533.606812 
	C928.625366,531.506653 924.746033,524.956543 925.088013,516.193237 
	C928.160767,516.193237 931.257629,516.193237 934.384399,516.193237 
	C938.701904,527.253235 946.342468,530.898315 958.878479,527.825928 
	C967.310913,525.759277 970.198730,519.591125 968.844421,505.802612 
	C963.032227,511.718567 956.198608,514.255066 948.228271,514.051514 
	C936.396851,513.749268 927.525635,507.448883 925.246094,495.812653 
	C923.932495,489.106873 923.975586,481.882904 924.821472,475.067566 
	C925.991028,465.643646 931.365173,458.605652 940.926819,456.108307 
	C950.979004,453.482788 960.423401,454.635559 967.973816,462.795074 
	C968.513062,463.377838 969.140808,463.878601 970.099365,464.759216 
	C970.765625,461.963593 971.326660,459.609589 971.914734,457.141907 
	C974.372009,457.141907 976.666870,457.141907 979.603333,457.141907 
	C979.603333,461.652191 979.603333,466.082520 979.603271,471.010406 
M964.404907,500.876862 
	C970.585144,493.631348 969.829712,485.034210 968.531311,476.655609 
	C967.224365,468.221771 961.044678,463.508636 952.426819,463.197113 
	C943.633362,462.879272 937.080200,467.416138 935.236206,475.925934 
	C934.302551,480.234894 933.983765,484.887695 934.484924,489.259125 
	C936.277771,504.894623 951.131409,510.907501 964.404907,500.876862 
z"/>
<path fill="#BFA1F6" opacity="1.000000" stroke="none" 
	d="
M674.050415,252.011963 
	C668.911621,254.077621 663.873413,256.642822 658.529236,258.027740 
	C654.134033,259.166748 649.375854,258.904968 643.646912,259.352417 
	C647.042786,252.011475 650.018311,245.650574 652.934387,239.262543 
	C661.916992,219.584717 669.690918,199.482666 672.432617,177.866180 
	C673.261780,171.328949 672.775696,164.624908 672.903076,157.533371 
	C675.001282,157.660080 677.088501,158.250702 679.530701,158.879791 
	C682.095703,165.311508 684.709290,171.405258 691.681519,175.122330 
	C691.976318,184.381332 692.009460,192.976044 692.042603,201.570740 
	C692.042603,201.570740 692.007751,201.511383 691.787476,201.806549 
	C691.387024,203.099991 691.206970,204.098251 691.026917,205.096497 
	C685.734070,220.107330 680.441284,235.118149 674.761597,250.618362 
	C674.254456,251.427811 674.134155,251.747879 674.013855,252.067932 
	C674.013855,252.067932 674.018677,252.000916 674.050415,252.011963 
z"/>
<path fill="#FFDC98" opacity="1.000000" stroke="none" 
	d="
M1490.003906,261.143860 
	C1486.667725,262.850067 1483.376221,264.134583 1480.258301,265.351410 
	C1476.073608,254.829865 1472.487549,245.013062 1468.287476,235.466293 
	C1463.601440,224.814590 1458.345215,214.414185 1453.360107,203.893570 
	C1447.978149,192.535706 1450.137207,185.769104 1461.173706,179.411789 
	C1465.784180,176.756012 1470.495850,174.269760 1475.040527,171.507462 
	C1481.047852,167.856216 1483.300659,162.627823 1481.074951,155.347198 
	C1489.478149,157.603912 1495.437256,162.946075 1499.030884,170.991592 
	C1503.427124,180.834457 1501.243896,187.271851 1491.858643,192.626907 
	C1486.400391,195.741257 1480.890747,198.849411 1475.813110,202.525162 
	C1469.550293,207.058731 1468.128296,212.561234 1471.293335,219.570938 
	C1476.687378,231.517487 1482.455688,243.294678 1488.011597,255.168793 
	C1488.844238,256.948059 1489.377075,258.867584 1490.003906,261.143860 
z"/>
<path fill="#272727" opacity="1.000000" stroke="none" 
	d="
M528.933960,475.198730 
	C528.998535,481.573975 529.640564,487.623352 528.838501,493.474823 
	C527.553162,502.852081 522.587891,510.165009 513.055359,512.769165 
	C502.913910,515.539612 493.231049,514.584106 485.476501,506.309143 
	C484.927002,505.722778 484.389771,505.124908 483.335297,503.974091 
	C482.808594,506.884949 482.385132,509.225250 481.923889,511.774536 
	C479.388641,511.774536 476.947632,511.774536 473.821411,511.774536 
	C473.821411,499.129333 473.821350,486.386871 473.821350,473.644409 
	C473.821350,460.993561 473.821411,448.342682 473.821411,435.341003 
	C477.132965,435.341003 480.339905,435.341003 483.945007,435.341003 
	C483.945007,444.463257 483.945007,453.532471 483.945007,463.695404 
	C493.640045,454.289124 504.273346,452.816620 515.626160,457.197571 
	C523.464905,460.222443 527.080200,466.937439 528.933960,475.198730 
M495.060394,464.206238 
	C488.347809,466.676453 485.155640,471.889679 484.393433,478.627869 
	C483.966034,482.406342 483.918396,486.310852 484.342316,490.086395 
	C485.462341,500.061340 492.001648,505.822998 501.682617,505.812836 
	C511.358856,505.802673 517.738953,500.042114 518.974731,490.008575 
	C519.298523,487.379730 519.346680,484.686432 519.218018,482.037476 
	C518.517517,467.613983 509.867889,460.988403 495.060394,464.206238 
z"/>
<path fill="#2B2B2B" opacity="1.000000" stroke="none" 
	d="
M1089.673828,510.439117 
	C1080.490967,502.515991 1081.609497,490.547058 1091.976318,485.070099 
	C1101.809570,479.875000 1112.743286,479.734467 1123.499634,478.999908 
	C1125.287842,478.877808 1127.091675,478.982727 1128.838013,478.982727 
	C1129.953613,468.174683 1127.354004,464.179779 1117.291992,462.743866 
	C1112.650391,462.081421 1107.666992,462.530121 1103.031494,463.448608 
	C1097.763550,464.492462 1094.936279,468.380493 1094.855103,474.220398 
	C1091.602539,474.220398 1088.525513,474.220398 1085.390503,474.220398 
	C1083.935181,468.625244 1086.216431,462.492340 1092.234741,459.499176 
	C1105.343872,452.979340 1118.781372,452.942139 1131.943481,459.532227 
	C1136.543945,461.835602 1139.313354,466.084534 1139.410767,471.213623 
	C1139.665894,484.654999 1139.496826,498.104401 1139.496826,511.782928 
	C1136.755737,511.782928 1134.323608,511.782928 1131.551392,511.782928 
	C1131.083130,509.480133 1130.605103,507.128784 1130.050903,504.403351 
	C1117.672119,514.477417 1104.493286,517.188843 1089.673828,510.439117 
M1113.406616,506.111938 
	C1125.537109,503.502350 1130.343750,497.052246 1128.752441,485.107574 
	C1126.342041,485.107574 1123.825562,484.776672 1121.427612,485.169403 
	C1114.099976,486.369324 1106.698975,487.416412 1099.563721,489.383148 
	C1095.440552,490.519592 1093.320435,494.233734 1093.958252,498.854340 
	C1094.543091,503.089844 1097.414551,505.368408 1101.274536,505.937012 
	C1104.983765,506.483368 1108.812866,506.215973 1113.406616,506.111938 
z"/>
<path fill="#282828" opacity="1.000000" stroke="none" 
	d="
M601.117004,514.013306 
	C597.254028,513.342346 593.720032,513.051392 590.483276,511.914429 
	C585.194092,510.056488 582.081787,506.071716 581.486633,500.398010 
	C580.862305,494.446533 582.515747,488.816711 587.983826,486.370300 
	C594.532471,483.440430 601.668518,481.560638 608.733154,480.129028 
	C614.532532,478.953796 620.599609,479.099243 626.547546,478.654785 
	C628.126221,468.700439 625.294556,464.237122 615.344971,462.788666 
	C610.697021,462.112061 605.714661,462.490173 601.068237,463.367096 
	C595.576172,464.403595 592.712097,468.451050 592.637573,474.317139 
	C589.204468,474.317139 586.107971,474.317139 583.038818,474.317139 
	C581.989685,467.818665 584.550476,461.958771 590.781738,459.056915 
	C603.327942,453.214355 616.185608,453.160217 628.802124,458.974121 
	C633.989685,461.364655 637.158142,465.785309 637.244080,471.603638 
	C637.440613,484.904510 637.306152,498.210266 637.306152,511.762695 
	C634.465759,511.762695 631.887146,511.762695 629.301453,511.762695 
	C628.859863,509.300934 628.450928,507.021576 627.916565,504.042847 
	C620.335144,511.264954 611.549805,514.326355 601.117004,514.013306 
M614.535706,505.306244 
	C624.656433,501.591278 627.910889,496.297821 626.676025,485.097565 
	C616.901855,484.981018 607.155823,485.286438 597.893005,489.028198 
	C593.659119,490.738525 591.164062,493.907715 591.801941,498.791168 
	C592.388916,503.285492 595.450806,505.673004 599.539612,505.987823 
	C604.259033,506.351196 609.048157,505.808258 614.535706,505.306244 
z"/>
<path fill="#292929" opacity="1.000000" stroke="none" 
	d="
M450.456299,496.067017 
	C454.012665,495.797333 457.289124,495.797333 460.570312,495.797333 
	C458.242523,510.266632 442.500549,515.521362 428.957855,513.788147 
	C411.094025,511.501953 402.131439,497.716949 405.168091,477.861389 
	C407.601929,461.947266 420.548340,452.892609 437.665283,455.132965 
	C454.082336,457.281708 463.554962,469.868469 461.254211,486.991180 
	C446.073578,486.991180 430.824921,486.991180 415.584442,486.991180 
	C415.556946,496.622772 420.346985,503.769836 427.894714,505.797150 
	C437.553467,508.391479 445.347717,505.082123 450.456299,496.067017 
M430.812408,462.714844 
	C420.953552,464.189331 415.314911,470.923798 415.711792,480.731171 
	C427.476257,480.731171 439.238403,480.731171 451.007965,480.731171 
	C450.473785,468.746857 443.985535,462.727386 430.812408,462.714844 
z"/>
<path fill="#292929" opacity="1.000000" stroke="none" 
	d="
M327.173096,458.042175 
	C335.278015,454.412354 343.314636,454.116699 351.422455,456.175262 
	C364.148773,459.406433 371.094299,470.922333 369.900146,486.922729 
	C354.690308,486.922729 339.437103,486.922729 324.209015,486.922729 
	C323.803192,496.024689 328.407318,503.248352 335.811096,505.594452 
	C344.596283,508.378326 353.205872,505.650909 357.641754,498.196594 
	C360.803040,492.884186 365.292816,496.744293 369.222229,495.218536 
	C367.145721,506.206726 357.918793,513.192261 345.283691,513.982117 
	C329.666901,514.958374 318.810822,508.550629 314.864288,496.027100 
	C310.011414,480.627289 314.731476,465.692139 327.173096,458.042175 
M348.375488,463.550690 
	C333.816650,460.348022 324.422241,466.922577 324.015411,480.742676 
	C335.881866,480.742676 347.742859,480.742676 359.877075,480.742676 
	C358.874786,473.210083 356.510925,466.958771 348.375488,463.550690 
z"/>
<path fill="#292929" opacity="1.000000" stroke="none" 
	d="
M719.196777,454.993591 
	C740.356506,454.984314 750.684265,465.662506 749.909851,486.910522 
	C734.598022,486.910522 719.243469,486.910522 703.891296,486.910522 
	C704.046936,496.724304 708.508057,503.490143 715.867126,505.679413 
	C724.957275,508.383636 732.019470,505.275757 738.123291,497.794556 
	C740.037903,495.447876 744.956787,495.552399 748.875671,494.427307 
	C747.825684,506.676422 736.401733,514.191162 720.958923,514.014648 
	C704.585571,513.827515 694.073547,503.842560 693.115479,487.567413 
	C691.979675,468.271667 700.450256,457.504913 719.196777,454.993591 
M705.743591,480.987549 
	C716.948547,480.987549 728.153442,480.987549 739.400146,480.987549 
	C738.123901,465.332245 724.256653,457.576080 711.926086,464.971527 
	C706.245850,468.378326 702.789612,476.141083 705.743591,480.987549 
z"/>
<path fill="#282828" opacity="1.000000" stroke="none" 
	d="
M1240.016113,535.034912 
	C1234.770264,533.516296 1237.822266,529.768005 1236.936890,527.131958 
	C1237.541748,526.955261 1237.828735,526.771973 1238.079956,526.812134 
	C1252.214722,529.074158 1255.850830,526.716858 1259.603516,512.458008 
	C1259.971436,511.060303 1259.428345,509.230408 1258.830933,507.800385 
	C1251.851440,491.092926 1244.780396,474.423676 1237.555664,457.323212 
	C1241.444092,457.323212 1244.975464,457.323212 1248.849121,457.323212 
	C1254.338379,470.807648 1259.903931,484.479279 1266.010620,499.480011 
	C1272.042969,484.689453 1277.627319,470.997162 1283.266113,457.171478 
	C1286.790283,457.171478 1290.250244,457.171478 1294.405518,457.171478 
	C1293.443970,459.629944 1292.629150,461.877899 1291.695190,464.075073 
	C1283.563110,483.203369 1275.372314,502.306763 1267.275879,521.450134 
	C1261.733154,534.555603 1254.291748,538.394714 1240.016113,535.034912 
z"/>
<path fill="#292929" opacity="1.000000" stroke="none" 
	d="
M800.830811,460.772461 
	C810.286804,454.249451 820.238953,453.566345 830.614136,456.652283 
	C838.508789,459.000488 843.730042,464.281006 846.308411,472.064941 
	C849.002686,480.198547 849.071960,488.450043 846.423096,496.578552 
	C842.227844,509.452362 829.108948,516.352417 814.261108,513.730896 
	C796.137817,510.531067 786.854614,494.247314 792.597839,474.479340 
	C794.008240,469.624939 797.832520,465.471863 800.830811,460.772461 
M805.854492,469.483612 
	C801.248047,475.718811 801.180237,482.861877 802.078735,490.042114 
	C803.285950,499.689484 809.670898,505.450500 819.022217,505.806671 
	C828.709900,506.175659 835.450745,500.883759 837.156738,490.967743 
	C837.821899,487.101379 837.843689,482.998596 837.388977,479.093109 
	C836.590820,472.239075 833.417236,466.564117 826.458130,464.340820 
	C819.018066,461.963867 811.988098,462.817474 805.854492,469.483612 
z"/>
<path fill="#BEA1F7" opacity="1.000000" stroke="none" 
	d="
M376.975159,250.637573 
	C369.882263,256.806610 361.999451,259.968933 352.069885,258.500824 
	C359.611603,228.149109 361.976776,198.102386 349.076996,168.303177 
	C359.122650,172.880554 365.619202,181.237122 369.737122,191.161621 
	C376.837158,208.273254 378.926483,226.265671 377.144196,244.706680 
	C376.968842,246.521240 377.009735,248.356720 376.975159,250.637573 
z"/>
<path fill="#272727" opacity="1.000000" stroke="none" 
	d="
M1071.335938,479.313721 
	C1071.335938,490.418579 1071.335938,501.057983 1071.335938,511.817139 
	C1067.826782,511.817139 1064.716675,511.817139 1061.085449,511.817139 
	C1061.085449,501.691162 1061.096558,491.748444 1061.082764,481.805786 
	C1061.062134,466.851410 1051.269775,459.728088 1036.948120,464.234344 
	C1030.657471,466.213684 1027.070557,471.181244 1026.965942,478.760925 
	C1026.816650,489.577789 1026.927979,500.398224 1026.927979,511.612915 
	C1023.545837,511.612915 1020.321289,511.612915 1016.876648,511.612915 
	C1016.876648,493.614563 1016.876648,475.502563 1016.876648,457.190277 
	C1019.449036,457.190277 1021.903503,457.190277 1024.660645,457.190277 
	C1025.126587,458.973694 1025.607788,460.815430 1026.170532,462.969421 
	C1036.457275,453.777496 1047.820923,452.618591 1059.723999,457.933350 
	C1068.524170,461.862610 1071.478394,469.643005 1071.335938,479.313721 
z"/>
<path fill="#292929" opacity="1.000000" stroke="none" 
	d="
M262.214050,511.974854 
	C247.257233,506.029358 243.272980,490.713867 246.676529,475.183563 
	C249.657501,461.581421 260.196045,454.683289 276.388062,454.986542 
	C290.126984,455.243866 299.881531,462.402222 302.229889,474.277710 
	C297.208374,474.644257 292.819427,475.720062 289.306519,469.744507 
	C285.582794,463.410248 278.515106,462.569611 271.551880,463.530518 
	C264.258270,464.537018 259.040436,468.543335 257.345245,475.697113 
	C256.258698,480.282562 255.963608,485.305450 256.539246,489.981384 
	C257.640747,498.929016 262.619385,503.699371 271.127655,505.372253 
	C279.620239,507.042053 286.508575,504.107727 291.189453,496.826172 
	C293.040741,493.946259 293.040710,493.946228 302.539642,494.807892 
	C300.655029,502.449005 296.519714,508.018494 289.362274,511.122528 
	C280.599091,514.922974 271.630035,514.970337 262.214050,511.974854 
z"/>
<path fill="#2A2A2A" opacity="1.000000" stroke="none" 
	d="
M665.853638,466.177429 
	C665.786743,475.159790 665.765503,483.657654 665.777954,492.155487 
	C665.796143,504.545746 672.565735,508.930359 683.911560,503.913452 
	C684.470642,503.666199 684.994995,503.340240 685.616333,503.007690 
	C686.933533,511.279022 686.665710,511.670044 678.731262,513.432861 
	C664.593628,516.573914 655.438721,509.340424 655.398193,494.981232 
	C655.371399,485.484131 655.369995,475.986969 655.344360,466.489868 
	C655.343506,466.178192 655.201843,465.866882 655.033020,465.175476 
	C652.185486,465.175476 649.242249,465.175476 646.052002,465.175476 
	C646.052002,462.361389 646.052002,459.925415 646.052002,457.078918 
	C648.979370,457.078918 651.897949,457.078918 655.265076,457.078918 
	C656.013977,451.033264 656.721375,445.322968 657.469055,439.287537 
	C660.127869,439.287537 662.687256,439.287537 665.602173,439.287537 
	C665.602173,444.932556 665.602173,450.550629 665.602173,456.661774 
	C672.492249,456.661774 679.065369,456.661774 685.913330,456.661774 
	C685.913330,459.568207 685.913330,461.987213 685.913330,464.639557 
	C679.278076,464.989044 672.596252,465.340973 665.853638,466.177429 
z"/>
<path fill="#2A2A2A" opacity="1.000000" stroke="none" 
	d="
M1227.892578,465.017975 
	C1223.431030,465.017975 1219.450073,465.017975 1215.111450,465.017975 
	C1215.111450,476.324463 1214.775146,487.405975 1215.263550,498.451019 
	C1215.484009,503.436340 1220.333008,506.318268 1226.045654,505.705109 
	C1228.938354,505.394684 1231.745850,504.291748 1234.583496,503.549255 
	C1236.206421,510.822571 1235.766968,511.542389 1228.384521,513.261780 
	C1213.437622,516.742859 1204.405273,509.550629 1204.396729,494.154663 
	C1204.391479,484.659546 1204.395752,475.164429 1204.395752,465.253937 
	C1201.322754,465.253937 1198.393555,465.253937 1195.134521,465.253937 
	C1195.134521,462.303833 1195.134521,459.760071 1195.134521,456.864441 
	C1198.180908,456.864441 1201.137939,456.864441 1204.306641,456.864441 
	C1205.055908,450.817566 1205.767090,445.079132 1206.499756,439.166321 
	C1209.251099,439.166321 1211.699707,439.166321 1214.648438,439.166321 
	C1214.648438,444.924377 1214.648438,450.672577 1214.648438,456.883240 
	C1221.711914,456.883240 1228.289551,456.883240 1235.001221,456.883240 
	C1235.001221,459.813141 1235.001221,462.268494 1235.001221,465.017975 
	C1232.663818,465.017975 1230.518433,465.017975 1227.892578,465.017975 
z"/>
<path fill="#FFDC99" opacity="1.000000" stroke="none" 
	d="
M790.098511,142.489044 
	C783.926025,142.891998 777.764404,142.839462 771.608459,143.003418 
	C767.189636,143.121124 765.185242,140.782730 765.986633,136.837021 
	C766.936035,132.162628 768.663696,127.634415 770.209167,123.095665 
	C772.769531,115.576485 775.453735,108.099495 778.226318,100.211685 
	C782.697449,100.509575 787.693054,100.068100 791.214783,102.136230 
	C797.772888,105.987473 799.308716,112.899681 797.362610,120.031242 
	C795.324646,127.499657 792.559326,134.769577 790.098511,142.489044 
z"/>
<path fill="#2C2C2C" opacity="1.000000" stroke="none" 
	d="
M1162.612549,468.000183 
	C1162.612549,482.773468 1162.612549,497.046722 1162.612549,511.670166 
	C1159.282837,511.670166 1156.223267,511.670166 1152.899902,511.670166 
	C1152.899902,486.393341 1152.899902,461.028015 1152.899902,435.319733 
	C1155.919434,435.319733 1158.974365,435.319733 1162.612549,435.319733 
	C1162.612549,445.986877 1162.612549,456.743530 1162.612549,468.000183 
z"/>
<path fill="#2C2C2C" opacity="1.000000" stroke="none" 
	d="
M392.612549,472.000183 
	C392.612488,485.443359 392.612488,498.386475 392.612488,511.674896 
	C389.274689,511.674896 386.213776,511.674896 382.894562,511.674896 
	C382.894562,486.387573 382.894562,461.019989 382.894562,435.314606 
	C385.926666,435.314606 388.983429,435.314606 392.612579,435.314606 
	C392.612579,447.323151 392.612579,459.411652 392.612549,472.000183 
z"/>
<path fill="#272727" opacity="1.000000" stroke="none" 
	d="
M860.663757,477.999878 
	C860.663818,470.851624 860.663818,464.203369 860.663818,457.211609 
	C864.390930,457.291138 868.510193,455.019958 869.500610,459.192780 
	C874.758545,457.772034 879.802490,455.375488 884.890564,455.277771 
	C892.428955,455.132965 893.477844,457.182373 892.756165,465.335907 
	C875.754150,459.126129 869.843567,467.866119 870.790527,482.118958 
	C871.437988,491.864380 870.914490,501.687653 870.914490,511.740570 
	C867.443481,511.740570 864.345703,511.740570 860.663696,511.740570 
	C860.663696,500.688324 860.663696,489.594086 860.663757,477.999878 
z"/>
<path fill="#292929" opacity="1.000000" stroke="none" 
	d="
M542.077881,489.999939 
	C542.077881,478.880646 542.077881,468.261292 542.077881,457.201477 
	C545.722168,457.493195 549.977356,454.706726 551.303833,461.127472 
	C555.631653,456.766144 560.487976,454.294617 566.564575,455.035400 
	C574.205872,455.966919 575.286682,457.400787 574.113281,465.500275 
	C573.471680,465.301910 572.844971,465.140350 572.241211,464.916748 
	C559.786316,460.303955 552.455994,465.352661 552.361389,478.722198 
	C552.283875,489.676270 552.345642,500.631287 552.345642,511.798492 
	C548.900146,511.798492 545.804199,511.798492 542.077881,511.798492 
	C542.077881,504.672699 542.077881,497.586304 542.077881,489.999939 
z"/>
<path fill="#FFDB97" opacity="1.000000" stroke="none" 
	d="
M1052.635742,106.850922 
	C1047.844116,116.008530 1042.716797,125.040176 1036.937988,135.219315 
	C1037.581299,111.018814 1035.443970,88.446487 1023.950500,67.422180 
	C1029.268433,72.050339 1035.427124,76.431519 1039.739380,82.194450 
	C1044.117310,88.045227 1046.682007,95.254890 1050.019775,101.880028 
	C1050.822510,103.473503 1051.542114,105.108864 1052.635742,106.850922 
z"/>
<path fill="#272727" opacity="1.000000" stroke="none" 
	d="
M911.336975,500.960571 
	C911.336914,504.763123 911.336914,508.072723 911.336914,511.694794 
	C907.895203,511.694794 904.709961,511.694794 901.308228,511.694794 
	C901.308228,493.503784 901.308228,475.481659 901.308228,457.224854 
	C904.622681,457.224854 907.721802,457.224854 911.337036,457.224854 
	C911.337036,471.650085 911.337036,486.058838 911.336975,500.960571 
z"/>
<path fill="#252525" opacity="1.000000" stroke="none" 
	d="
M1003.035583,462.122284 
	C1003.035583,478.868927 1003.035583,495.127045 1003.035583,511.694366 
	C999.704163,511.694366 996.624207,511.694366 993.183105,511.694366 
	C993.183105,493.702332 993.183105,475.565125 993.183105,457.210266 
	C996.320007,457.210266 999.400085,457.210266 1002.815063,457.210266 
	C1002.892212,458.757538 1002.963928,460.195618 1003.035583,462.122284 
z"/>
<path fill="#252525" opacity="1.000000" stroke="none" 
	d="
M1175.828369,460.134766 
	C1176.628418,458.763916 1177.334351,457.255432 1178.245728,457.118896 
	C1180.642822,456.759796 1183.129395,456.997528 1185.804321,456.997528 
	C1185.804321,475.448303 1185.804321,493.467438 1185.804321,511.746094 
	C1182.590576,511.746094 1179.511841,511.746094 1175.827881,511.746094 
	C1175.827881,494.703735 1175.827881,477.663086 1175.828369,460.134766 
z"/>
<path fill="#272727" opacity="1.000000" stroke="none" 
	d="
M908.702271,445.192902 
	C905.994446,445.194763 903.743958,445.194763 901.293823,445.194763 
	C901.293823,441.601593 901.293823,438.550720 901.293823,435.223083 
	C904.509949,435.223083 907.572449,435.223083 911.380066,435.223083 
	C910.263123,438.517700 913.701294,442.442932 908.702271,445.192902 
z"/>
<path fill="#252525" opacity="1.000000" stroke="none" 
	d="
M1185.611084,444.676331 
	C1182.347656,445.025848 1179.409546,445.025848 1176.149902,445.025848 
	C1176.149902,441.786438 1176.149902,438.612366 1176.149902,435.190857 
	C1179.248535,435.190857 1182.307739,435.190857 1185.936279,435.190857 
	C1185.936279,438.225830 1185.936279,441.276337 1185.611084,444.676331 
z"/>
<path fill="#252525" opacity="1.000000" stroke="none" 
	d="
M1003.035522,439.070251 
	C1003.035583,441.175415 1003.035583,442.807373 1003.035583,444.812012 
	C999.682007,444.812012 996.519043,444.812012 993.085815,444.812012 
	C993.085815,441.770966 993.085815,438.705078 993.085815,435.606140 
	C1000.479797,433.866333 1002.582153,434.485199 1003.035522,439.070251 
z"/>
<path fill="#FFFEFE" opacity="1.000000" stroke="none" 
	d="
M1166.230835,142.800903 
	C1171.588989,152.550522 1171.756592,163.295074 1171.455811,173.889267 
	C1170.827148,196.043808 1164.578857,216.572235 1151.075195,234.384628 
	C1142.585449,245.583160 1132.350098,255.057846 1117.833740,257.356293 
	C1112.336060,258.226776 1106.455933,256.682098 1100.434082,255.625397 
	C1099.091919,249.987488 1097.543091,245.005005 1097.130371,239.930084 
	C1095.350342,218.050461 1099.515381,197.335175 1110.023438,177.951721 
	C1118.793213,161.774689 1130.255737,148.566299 1148.954468,144.047607 
	C1154.490356,142.709808 1160.459961,143.166519 1166.230835,142.800903 
z"/>
<path fill="#FFFEFD" opacity="1.000000" stroke="none" 
	d="
M894.105591,182.889771 
	C898.527588,186.167282 902.949524,189.444778 907.669495,193.277283 
	C909.397095,196.060211 910.668579,198.410507 912.282410,200.495880 
	C921.496826,212.402542 934.005920,216.263138 948.249756,213.606262 
	C961.971436,211.046799 970.339722,202.290787 973.373840,188.479263 
	C976.441772,174.513840 969.233276,165.162415 955.015564,164.990494 
	C954.370178,156.040543 952.064575,148.246613 941.363159,145.525467 
	C940.990723,135.939743 945.369873,130.244003 953.704346,126.811317 
	C960.491272,124.015999 967.134583,125.675514 973.871338,126.081627 
	C975.770325,133.064865 978.872864,139.963852 979.368591,147.045303 
	C982.124390,186.415909 970.718262,220.865799 941.078125,247.846802 
	C927.984314,259.765930 912.137939,265.362122 894.053284,262.243683 
	C892.432190,261.964203 890.881226,261.277313 889.080872,260.127594 
	C883.854431,245.358902 884.062195,230.647995 885.354187,216.168716 
	C886.285889,205.727386 889.641418,195.496948 892.041138,185.201630 
	C892.246948,184.318573 893.395142,183.655182 894.105591,182.889771 
z"/>
<path fill="#FFDC98" opacity="1.000000" stroke="none" 
	d="
M1166.241699,142.433258 
	C1160.459961,143.166519 1154.490356,142.709808 1148.954468,144.047607 
	C1130.255737,148.566299 1118.793213,161.774689 1110.023438,177.951721 
	C1099.515381,197.335175 1095.350342,218.050461 1097.130371,239.930084 
	C1097.543091,245.005005 1099.091919,249.987488 1100.116699,255.412048 
	C1090.464844,253.244659 1085.407715,245.937576 1082.011108,237.418381 
	C1074.585083,218.793060 1076.342529,199.879593 1081.509277,181.138290 
	C1086.186157,164.173538 1094.230591,149.001587 1107.336426,136.883682 
	C1117.698120,127.302917 1129.617554,121.963684 1144.033813,123.902000 
	C1155.113770,125.391769 1162.524780,131.511292 1166.241699,142.433258 
z"/>
<path fill="#FFFEFD" opacity="1.000000" stroke="none" 
	d="
M748.951172,261.546509 
	C746.475525,248.084885 749.587585,235.617523 753.741333,223.282318 
	C758.869080,208.054611 764.604675,203.660782 780.616699,203.086014 
	C787.100952,202.853256 793.597168,202.953369 800.557251,202.940491 
	C799.367249,217.796722 797.739075,232.618149 795.989441,247.425232 
	C795.849548,248.609085 795.126648,249.969879 794.245361,250.783325 
	C781.571289,262.482147 766.547546,265.457306 749.977600,262.465363 
	C749.697632,262.414856 749.474915,262.047943 748.951172,261.546509 
z"/>
<path fill="#FFDB98" opacity="1.000000" stroke="none" 
	d="
M893.989136,182.571350 
	C893.395142,183.655182 892.246948,184.318573 892.041138,185.201630 
	C889.641418,195.496948 886.285889,205.727386 885.354187,216.168716 
	C884.062195,230.647995 883.854431,245.358902 888.805176,259.873291 
	C881.235291,258.385162 876.404846,253.202362 872.909485,246.757614 
	C865.142822,232.436905 864.596008,216.748032 865.423462,201.061905 
	C866.360840,183.291397 871.475281,166.430313 878.705933,149.379272 
	C881.778564,161.664597 885.783752,172.942856 893.989136,182.571350 
z"/>
<path fill="#FFDC99" opacity="1.000000" stroke="none" 
	d="
M954.853394,165.340179 
	C969.233276,165.162415 976.441772,174.513840 973.373840,188.479263 
	C970.339722,202.290787 961.971436,211.046799 948.249756,213.606262 
	C934.005920,216.263138 921.496826,212.402542 912.282410,200.495880 
	C910.668579,198.410507 909.397095,196.060211 907.940430,193.484070 
	C916.558228,195.286789 925.155090,196.250916 933.817505,193.003601 
	C946.531006,188.237656 952.824890,178.684860 954.853394,165.340179 
z"/>
<path fill="#FFDB98" opacity="1.000000" stroke="none" 
	d="
M973.920776,125.721603 
	C967.134583,125.675514 960.491272,124.015999 953.704346,126.811317 
	C945.369873,130.244003 940.990723,135.939743 940.998779,145.468719 
	C928.754456,145.558731 921.701111,139.568359 921.052673,128.891556 
	C920.307922,116.628326 927.613525,107.755356 939.805908,106.115135 
	C955.152832,104.050552 967.589294,111.056625 973.920776,125.721603 
z"/>
<path fill="#FDF8F3" opacity="1.000000" stroke="none" 
	d="
M692.363159,201.361206 
	C692.009460,192.976044 691.976318,184.381332 691.930664,175.333496 
	C701.659790,177.431686 701.677002,177.438126 698.141418,186.901550 
	C696.361267,191.666229 694.505310,196.402557 692.363159,201.361206 
z"/>
<path fill="#FDF8F3" opacity="1.000000" stroke="none" 
	d="
M691.282288,204.814453 
	C691.206970,204.098251 691.387024,203.099991 691.821411,201.800781 
	C691.896301,202.510681 691.716980,203.521545 691.282288,204.814453 
z"/>
<path fill="#5F18EB" opacity="1.000000" stroke="none" 
	d="
M674.299194,251.989288 
	C674.134155,251.747879 674.254456,251.427811 674.583008,250.933319 
	C674.722351,251.142807 674.653503,251.526733 674.299194,251.989288 
z"/>
<path fill="#BEA1F7" opacity="1.000000" stroke="none" 
	d="
M262.835846,266.164978 
	C252.334473,265.691132 246.168030,259.980164 244.173035,248.880783 
	C240.846954,230.375504 253.195938,209.179337 271.177765,203.995514 
	C283.503998,200.442108 295.133423,203.240631 300.421448,212.730453 
	C301.829803,215.257904 302.275848,218.321579 302.655640,221.577606 
	C289.595215,221.466476 279.400879,226.149979 272.018097,236.273010 
	C265.573029,245.110352 262.513397,255.161575 262.835846,266.164978 
z"/>
<path fill="#FDFCFF" opacity="1.000000" stroke="none" 
	d="
M263.171417,266.405640 
	C262.513397,255.161575 265.573029,245.110352 272.018097,236.273010 
	C279.400879,226.149979 289.595215,221.466476 302.604919,221.982513 
	C305.947876,234.386108 298.048676,251.890121 285.525543,260.719910 
	C278.919678,265.377563 271.685547,267.788574 263.171417,266.405640 
z"/>
<path fill="#FFDC9A" opacity="1.000000" stroke="none" 
	d="
M1398.441284,202.794418 
	C1402.392944,200.503998 1403.961792,203.838486 1405.022583,206.216919 
	C1407.951904,212.785965 1410.347534,219.592926 1412.676025,226.899475 
	C1408.934082,232.358963 1405.610596,237.332382 1401.977051,242.067734 
	C1395.041016,251.106354 1387.928223,260.009338 1380.614746,268.773865 
	C1377.438477,260.476837 1371.757080,256.537506 1363.169312,256.731323 
	C1367.504272,250.069641 1371.832397,243.787720 1376.007324,237.405487 
	C1383.533691,225.900131 1390.968262,214.334717 1398.441284,202.794418 
z"/>
<path fill="#FFFDFA" opacity="1.000000" stroke="none" 
	d="
M1380.888672,268.968658 
	C1387.928223,260.009338 1395.041016,251.106354 1401.977051,242.067734 
	C1405.610596,237.332382 1408.934082,232.358963 1412.648682,227.291443 
	C1417.780762,241.552139 1413.502197,257.423798 1402.282104,265.753723 
	C1396.274170,270.214172 1389.292725,271.398682 1381.436035,270.636658 
	C1380.902222,269.851471 1380.895386,269.410065 1380.888672,268.968658 
z"/>
<path fill="#FFF8EE" opacity="1.000000" stroke="none" 
	d="
M1398.053833,202.812241 
	C1390.968262,214.334717 1383.533691,225.900131 1376.007324,237.405487 
	C1371.832397,243.787720 1367.504272,250.069641 1362.934570,256.883240 
	C1362.408691,257.854828 1362.193604,258.339996 1361.978516,258.825165 
	C1361.676147,256.302521 1360.167847,252.922424 1361.257812,251.389557 
	C1372.515869,235.554916 1384.187866,220.014221 1395.775146,204.414368 
	C1396.252075,203.772263 1397.029175,203.353119 1398.053833,202.812241 
z"/>
<path fill="#FFC75D" opacity="1.000000" stroke="none" 
	d="
M1361.977295,259.189209 
	C1362.193604,258.339996 1362.408691,257.854828 1362.858643,257.217743 
	C1371.757080,256.537506 1377.438477,260.476837 1380.614746,268.773865 
	C1380.895386,269.410065 1380.902222,269.851471 1380.986206,270.614746 
	C1373.020752,269.959595 1366.168091,266.987091 1361.977295,259.189209 
z"/>
<path fill="#FBFBFB" opacity="1.000000" stroke="none" 
	d="
M964.140747,501.139465 
	C951.131409,510.907501 936.277771,504.894623 934.484924,489.259125 
	C933.983765,484.887695 934.302551,480.234894 935.236206,475.925934 
	C937.080200,467.416138 943.633362,462.879272 952.426819,463.197113 
	C961.044678,463.508636 967.224365,468.221771 968.531311,476.655609 
	C969.829712,485.034210 970.585144,493.631348 964.140747,501.139465 
z"/>
<path fill="#FBFBFB" opacity="1.000000" stroke="none" 
	d="
M495.448303,464.118591 
	C509.867889,460.988403 518.517517,467.613983 519.218018,482.037476 
	C519.346680,484.686432 519.298523,487.379730 518.974731,490.008575 
	C517.738953,500.042114 511.358856,505.802673 501.682617,505.812836 
	C492.001648,505.822998 485.462341,500.061340 484.342316,490.086395 
	C483.918396,486.310852 483.966034,482.406342 484.393433,478.627869 
	C485.155640,471.889679 488.347809,466.676453 495.448303,464.118591 
z"/>
<path fill="#FAFAFA" opacity="1.000000" stroke="none" 
	d="
M1112.998047,506.209045 
	C1108.812866,506.215973 1104.983765,506.483368 1101.274536,505.937012 
	C1097.414551,505.368408 1094.543091,503.089844 1093.958252,498.854340 
	C1093.320435,494.233734 1095.440552,490.519592 1099.563721,489.383148 
	C1106.698975,487.416412 1114.099976,486.369324 1121.427612,485.169403 
	C1123.825562,484.776672 1126.342041,485.107574 1128.752441,485.107574 
	C1130.343750,497.052246 1125.537109,503.502350 1112.998047,506.209045 
z"/>
<path fill="#FBFBFB" opacity="1.000000" stroke="none" 
	d="
M614.171387,505.482574 
	C609.048157,505.808258 604.259033,506.351196 599.539612,505.987823 
	C595.450806,505.673004 592.388916,503.285492 591.801941,498.791168 
	C591.164062,493.907715 593.659119,490.738525 597.893005,489.028198 
	C607.155823,485.286438 616.901855,484.981018 626.676025,485.097565 
	C627.910889,496.297821 624.656433,501.591278 614.171387,505.482574 
z"/>
<path fill="#FCFCFC" opacity="1.000000" stroke="none" 
	d="
M431.254242,462.639954 
	C443.985535,462.727386 450.473785,468.746857 451.007965,480.731171 
	C439.238403,480.731171 427.476257,480.731171 415.711792,480.731171 
	C415.314911,470.923798 420.953552,464.189331 431.254242,462.639954 
z"/>
<path fill="#FCFCFC" opacity="1.000000" stroke="none" 
	d="
M348.747986,463.714661 
	C356.510925,466.958771 358.874786,473.210083 359.877075,480.742676 
	C347.742859,480.742676 335.881866,480.742676 324.015411,480.742676 
	C324.422241,466.922577 333.816650,460.348022 348.747986,463.714661 
z"/>
<path fill="#FCFCFC" opacity="1.000000" stroke="none" 
	d="
M705.275330,480.974152 
	C702.789612,476.141083 706.245850,468.378326 711.926086,464.971527 
	C724.256653,457.576080 738.123901,465.332245 739.400146,480.987549 
	C728.153442,480.987549 716.948547,480.987549 705.275330,480.974152 
z"/>
<path fill="#FBFBFB" opacity="1.000000" stroke="none" 
	d="
M806.074036,469.182922 
	C811.988098,462.817474 819.018066,461.963867 826.458130,464.340820 
	C833.417236,466.564117 836.590820,472.239075 837.388977,479.093109 
	C837.843689,482.998596 837.821899,487.101379 837.156738,490.967743 
	C835.450745,500.883759 828.709900,506.175659 819.022217,505.806671 
	C809.670898,505.450500 803.285950,499.689484 802.078735,490.042114 
	C801.180237,482.861877 801.248047,475.718811 806.074036,469.182922 
z"/>
</svg>