<svg version="1.1" id="Layer_1" xmlns="http://www.w3.org/2000/svg" xmlns:xlink="http://www.w3.org/1999/xlink" x="0px" y="0px"
	 width="100%" viewBox="0 0 1750 616" enable-background="new 0 0 1750 616" xml:space="preserve">
<path fill="#FFFFFF" opacity="1.000000" stroke="none" 
	d="
M1350.000000,617.000000 
	C900.000000,617.000000 450.500000,617.000000 1.000000,617.000000 
	C1.000000,411.666656 1.000000,206.333328 1.000000,1.000000 
	C584.333313,1.000000 1167.666626,1.000000 1751.000000,1.000000 
	C1751.000000,206.333328 1751.000000,411.666656 1751.000000,617.000000 
	C1617.500000,617.000000 1484.000000,617.000000 1350.000000,617.000000 
M737.025696,261.017731 
	C737.025696,261.017731 737.013306,260.940063 736.290527,260.844879 
	C726.054199,267.993958 714.898621,271.190765 701.975708,268.880737 
	C703.810974,265.170746 705.527527,261.778564 707.176941,258.354004 
	C717.528015,236.863113 726.782043,214.943207 732.229736,191.628067 
	C735.539551,177.462662 737.906189,163.186447 733.877014,148.704498 
	C731.281860,139.376984 725.389893,132.992493 715.873779,131.316299 
	C702.650574,128.987122 690.727051,132.476089 680.938965,141.945358 
	C671.110840,151.453293 666.240112,163.709152 663.145081,176.602234 
	C657.006897,202.173050 658.375122,227.848938 663.455811,253.410217 
	C664.087708,256.589325 663.538452,258.724640 661.515015,261.056610 
	C651.681335,272.390167 639.322632,278.376343 624.343994,278.770294 
	C610.606323,279.131653 600.882996,271.195526 597.917542,257.785858 
	C595.349915,246.174850 597.826111,235.239151 602.260803,224.672928 
	C607.478027,212.241943 613.407654,200.109406 618.599854,187.668640 
	C622.532227,178.246567 625.154236,168.495010 623.531921,158.009216 
	C620.847351,140.658066 612.641357,132.959137 595.114319,131.778122 
	C571.138672,130.162598 557.921021,138.878052 549.635498,161.297165 
	C545.370483,172.837631 543.273438,184.695496 542.758911,196.929565 
	C542.332153,207.078156 542.348511,217.308548 540.976929,227.339783 
	C538.778076,243.421677 533.915833,258.731689 521.172852,269.886749 
	C510.853058,278.920532 498.590729,281.442780 485.749481,276.388306 
	C473.639526,271.621643 470.151917,260.675842 470.457733,249.038406 
	C470.704071,239.662064 472.339722,230.129776 474.774139,221.045914 
	C479.034210,205.149704 484.979065,189.697037 489.038574,173.758133 
	C491.341034,164.718048 492.475708,155.022644 492.014984,145.727524 
	C491.442322,134.173416 483.719543,129.519730 472.497986,132.236008 
	C469.956482,132.851181 467.501038,134.099457 465.206573,135.407990 
	C456.709534,140.253845 450.822327,147.762787 445.663757,155.757507 
	C428.757812,181.958145 418.694916,210.982513 411.006104,240.962219 
	C410.315399,243.655380 409.588074,246.584076 407.996582,248.758438 
	C401.466736,257.679810 393.173279,264.657471 382.520996,267.984222 
	C377.994476,269.397858 372.956085,269.172485 368.060455,269.701691 
	C369.994110,258.031342 371.848541,247.589249 373.434021,237.106476 
	C376.317993,218.038574 374.769928,199.130966 369.626648,180.693161 
	C362.964111,156.808929 348.059387,140.090302 323.446930,134.272293 
	C295.938507,127.769714 269.673401,132.736755 245.624924,147.207794 
	C210.282318,168.474960 188.459976,200.635361 173.920029,238.491043 
	C166.715302,257.249023 153.366577,269.156158 132.753372,270.523193 
	C119.594101,271.395905 108.862877,266.945251 107.657669,250.639526 
	C107.221970,244.744720 107.280334,238.492081 108.764000,232.835724 
	C113.614899,214.342072 118.560913,195.822830 124.683823,177.723969 
	C137.195007,140.741821 154.511734,105.789108 171.155869,70.553345 
	C175.303421,61.772903 178.370544,52.260220 180.393875,42.756157 
	C182.757904,31.651941 176.292511,23.485989 165.036957,21.902554 
	C150.915268,19.915911 140.301422,26.462311 131.501175,36.747570 
	C120.110924,50.059864 111.913666,65.361847 105.251526,81.367622 
	C80.024673,141.975174 58.955612,204.101669 39.028748,266.603333 
	C31.410887,290.497131 27.007113,315.168030 29.062506,340.422699 
	C31.000927,364.240143 42.933559,378.320740 65.005951,381.888000 
	C84.217514,384.992920 101.694855,380.191345 117.604889,369.337555 
	C136.458908,356.475433 149.908295,338.771271 161.724197,319.634888 
	C162.355942,318.611755 163.167694,317.699799 164.451569,316.000092 
	C164.788773,317.874908 164.940475,318.797607 165.121780,319.714508 
	C167.810898,333.313782 172.728989,346.014313 181.887726,356.549805 
	C203.846497,381.809418 232.060425,387.241638 263.202789,380.135620 
	C293.502350,373.221924 316.862640,355.146057 335.900970,331.163940 
	C338.395935,328.021027 340.809753,326.549622 344.967133,326.512573 
	C364.930450,326.334747 382.956024,320.529480 398.115509,307.045166 
	C399.781830,305.562988 401.606903,304.259216 403.836121,302.494446 
	C405.028809,320.436798 407.623749,337.344269 415.702454,352.825043 
	C425.487122,371.574951 440.201965,382.771240 462.290527,382.110657 
	C480.012848,381.580688 494.740265,373.956177 507.610840,362.460327 
	C526.289062,345.777100 538.202148,324.480957 547.959900,301.803955 
	C548.712158,300.055695 549.502258,298.323639 550.196655,296.759888 
	C550.196655,305.966766 549.894104,315.122375 550.268738,324.250183 
	C550.809387,337.423492 552.149048,350.509430 558.020447,362.647369 
	C564.266479,375.559723 574.143066,382.618988 588.880859,382.123871 
	C598.579041,381.798035 607.571960,378.983154 616.040344,374.493469 
	C635.937805,363.944305 650.692444,347.639374 664.333740,330.286041 
	C667.976562,325.651886 670.975281,322.168121 677.137634,325.673737 
	C677.929993,326.124542 679.096802,325.923370 680.091309,326.011658 
	C695.994507,327.423859 710.826172,323.759613 725.046448,317.532501 
	C725.709351,326.640717 725.468689,335.925537 727.207520,344.823486 
	C732.092529,369.821106 748.336426,385.000793 771.798218,387.073730 
	C798.939514,389.471832 821.548767,379.163483 841.320190,361.378571 
	C856.462280,347.757904 868.065857,331.328979 878.823425,314.223511 
	C879.805481,312.662048 880.838501,311.132568 882.306580,308.886353 
	C886.208679,323.485870 891.635559,336.183167 899.567749,347.606140 
	C916.518311,372.016266 939.679077,386.034119 969.601196,388.105621 
	C995.481079,389.897247 1017.997620,380.704559 1038.625732,366.141235 
	C1065.717529,347.014618 1085.382568,321.278931 1101.947998,293.027191 
	C1108.630005,281.631256 1114.395752,269.698059 1121.005249,257.202362 
	C1121.005249,260.260834 1120.989014,262.514191 1121.007690,264.767242 
	C1121.195923,287.389038 1123.819214,309.572083 1132.085449,330.873688 
	C1146.593384,368.260101 1177.215576,388.469971 1215.809692,385.725311 
	C1240.615601,383.961243 1262.035645,373.778137 1281.243408,358.570404 
	C1308.271606,337.170807 1327.871826,309.842804 1343.480469,279.439362 
	C1367.089844,233.451248 1380.968994,184.836319 1382.054321,132.955399 
	C1382.602783,106.736839 1379.293335,81.016129 1367.815918,57.057880 
	C1353.012695,26.157879 1328.160522,11.516055 1293.939209,12.815762 
	C1263.921997,13.955802 1238.185059,25.757902 1215.296143,44.565899 
	C1189.986694,65.362747 1171.817505,91.663948 1156.882324,120.450592 
	C1155.792114,122.551666 1154.709473,124.656670 1153.483643,127.030266 
	C1152.625366,114.569031 1152.312012,102.748581 1150.884766,91.064194 
	C1148.927856,75.044067 1144.183228,59.714439 1135.026978,46.261711 
	C1122.538086,27.912439 1104.861572,17.464918 1082.924927,14.455770 
	C1046.525757,9.462736 1015.313660,18.797844 992.910339,49.318172 
	C985.720947,59.112366 980.763000,70.544563 974.714539,81.351700 
	C960.378784,75.317894 946.492004,78.518669 934.840393,89.561493 
	C928.032166,96.013947 921.663635,103.459732 916.996277,111.553688 
	C891.653442,155.501846 878.626099,203.084167 876.686035,253.757721 
	C876.604431,255.888947 875.922058,258.635864 874.479370,259.977722 
	C859.640259,273.779633 841.915344,278.050812 822.677979,272.829163 
	C805.669067,268.212402 796.330933,250.802780 799.575195,231.953629 
	C801.010437,223.614761 803.157288,215.371628 805.427185,207.209076 
	C809.301331,193.277008 817.217346,183.890671 833.019104,183.694534 
	C841.670959,183.587173 850.320618,182.766983 858.966064,182.843948 
	C865.435120,182.901520 870.300049,180.478485 873.845703,175.353470 
	C880.408325,165.867630 882.544556,155.273849 880.783691,143.964676 
	C879.927795,138.467392 877.526978,136.680237 871.892029,136.622299 
	C864.892883,136.550339 857.892517,136.606018 850.892639,136.601074 
	C842.479675,136.595139 840.519409,134.181595 842.374573,125.976486 
	C842.776062,124.200745 843.344727,122.441025 844.038208,120.757011 
	C846.506104,114.763901 849.578674,108.963394 851.446838,102.794518 
	C853.592773,95.708344 855.580322,88.361771 856.028992,81.029907 
	C856.544189,72.611076 850.522400,65.940338 843.146790,65.084755 
	C831.376526,63.719402 820.939636,66.801445 814.326599,77.052460 
	C809.136292,85.097916 805.199280,93.969841 800.918884,102.580696 
	C791.133057,122.266663 776.553833,135.168747 753.649353,136.548004 
	C746.556519,136.975113 744.008240,139.409363 743.178284,146.515686 
	C741.581482,160.188721 750.034729,172.219223 763.476318,174.688599 
	C767.288452,175.388931 767.893188,176.911819 766.763062,180.012100 
	C757.085510,206.559540 747.387878,233.099655 737.267517,260.030701 
	C737.163513,260.371490 737.059509,260.712280 737.025696,261.017731 
M1635.163940,126.163467 
	C1618.465454,121.576012 1603.028687,123.592186 1588.753662,134.063324 
	C1572.628784,145.891418 1560.426758,161.259613 1549.192139,177.388824 
	C1531.789551,202.373352 1514.980225,227.771088 1497.921265,252.994965 
	C1491.392090,262.649323 1483.139282,270.730652 1471.779297,273.601410 
	C1448.024902,279.604401 1431.233276,270.508911 1436.883545,242.522675 
	C1441.015503,222.055939 1446.960205,201.850296 1453.532837,182.003860 
	C1465.647095,145.424561 1482.711182,110.893974 1499.224854,76.153442 
	C1503.057129,68.091164 1506.266968,59.567291 1508.447632,50.923927 
	C1511.854004,37.423172 1505.546997,27.694603 1493.067261,26.431980 
	C1488.570923,25.977066 1483.677612,26.612181 1479.340820,27.958796 
	C1467.409424,31.663548 1459.010010,40.386303 1453.115845,50.703499 
	C1444.056763,66.560570 1434.651001,82.560440 1428.359863,99.595642 
	C1407.375244,156.418381 1387.234863,213.567139 1367.763062,270.927765 
	C1359.389038,295.595978 1355.311646,321.313385 1357.940918,347.653351 
	C1360.103638,369.320923 1372.789795,383.529724 1393.639282,386.644684 
	C1408.310913,388.836609 1422.562744,386.836365 1435.918335,380.079895 
	C1452.953857,371.461639 1466.106323,358.403290 1477.377563,343.274017 
	C1480.737427,338.764099 1483.926514,334.126892 1487.525146,329.083862 
	C1488.121216,330.951202 1488.551514,332.298828 1488.981689,333.646423 
	C1495.416870,353.804352 1507.496460,369.160858 1526.895386,378.332031 
	C1539.152466,384.126770 1552.242065,386.649078 1565.597534,386.914764 
	C1599.332764,387.585754 1628.937988,376.336670 1654.418213,354.343933 
	C1683.326904,329.391815 1701.642090,297.041412 1717.442749,263.026947 
	C1720.157104,257.183655 1716.548462,250.607346 1709.320435,246.820679 
	C1704.025146,244.046539 1698.485718,245.380539 1694.828125,250.329300 
	C1692.948364,252.872604 1691.164551,255.489746 1689.217773,257.980042 
	C1682.630615,266.406555 1675.009521,273.358429 1664.124878,275.813171 
	C1660.918579,276.536285 1659.348999,275.787567 1658.364990,272.446625 
	C1656.394287,265.756073 1654.411743,258.994141 1651.566895,252.650558 
	C1644.356934,236.573730 1636.530029,220.774612 1629.218384,204.741959 
	C1624.153198,193.635284 1626.205688,186.741821 1636.457031,180.000183 
	C1641.444702,176.720047 1646.904297,174.166687 1652.052979,171.120026 
	C1662.700806,164.819183 1664.757812,159.292862 1660.702515,147.834213 
	C1659.933594,145.661560 1658.714600,143.616714 1657.497559,141.639572 
	C1652.486694,133.499207 1644.571899,129.435806 1635.163940,126.163467 
M1086.918579,504.556335 
	C1086.918579,501.781769 1086.918579,499.007233 1086.918579,496.266968 
	C1083.556763,496.266968 1080.809204,496.266968 1078.005005,496.266968 
	C1077.372925,499.351135 1076.793091,502.179962 1076.212646,505.011810 
	C1075.499390,504.821930 1075.282104,504.831055 1075.186646,504.727631 
	C1074.623413,504.118286 1074.106201,503.466095 1073.541138,502.858459 
	C1065.111694,493.794891 1054.560181,492.479492 1043.251831,495.070465 
	C1033.021240,497.414520 1026.531250,504.314728 1024.511353,514.350464 
	C1023.122070,521.253418 1022.555908,528.668152 1023.451172,535.618469 
	C1025.919312,554.778137 1040.468994,564.584839 1059.335449,560.013000 
	C1064.828003,558.681946 1069.819458,555.282654 1074.859497,552.916321 
	C1076.087891,568.027771 1072.403931,575.023254 1061.849609,576.893127 
	C1046.890625,579.543335 1038.735718,575.342285 1035.431274,563.356323 
	C1031.664551,563.356323 1027.930054,563.356323 1024.209961,563.356323 
	C1024.097778,573.131470 1028.229492,579.446289 1037.112183,583.005310 
	C1045.348267,586.305359 1054.026489,586.905396 1062.650024,585.598267 
	C1080.635010,582.872131 1086.918579,575.222229 1086.918579,557.028015 
	C1086.918579,539.866577 1086.918579,522.705200 1086.918579,504.556335 
M570.276855,538.741028 
	C570.465210,532.114868 571.518860,525.375916 570.672546,518.884644 
	C568.510193,502.298370 557.996948,493.782684 541.251282,493.986816 
	C532.818970,494.089630 525.568665,497.087677 518.996216,504.369720 
	C518.996216,492.407928 518.996216,481.863220 518.996216,471.206512 
	C514.901367,471.206512 511.310883,471.206512 507.484131,471.206512 
	C507.484131,500.489136 507.484131,529.549438 507.484131,558.792847 
	C510.670471,558.792847 513.600464,558.792847 516.590393,558.792847 
	C517.151123,555.794128 517.675903,552.987366 518.275391,549.781250 
	C531.577332,567.500305 565.362244,564.702515 570.276855,538.741028 
M690.881958,503.720337 
	C685.922180,497.566254 678.995605,495.483826 671.584106,494.548737 
	C661.549072,493.282623 651.615906,493.505676 642.283325,497.983154 
	C634.349854,501.789398 630.758850,508.514130 632.294373,515.748657 
	C635.925171,515.748657 639.518921,515.748657 643.321411,515.748657 
	C643.361511,508.588898 647.259583,504.460449 653.624390,503.336151 
	C658.613586,502.454773 663.929016,502.165009 668.928833,502.852966 
	C680.365662,504.426544 683.556152,509.057129 682.285461,520.991516 
	C680.685791,520.991516 679.036621,520.900513 677.400085,521.006042 
	C664.808472,521.817322 652.067810,521.956238 640.431580,527.822388 
	C632.966431,531.585754 629.724304,537.437134 630.452637,545.207520 
	C631.120972,552.337708 635.789001,557.946106 643.635010,559.684387 
	C657.644958,562.788391 670.763550,561.126099 681.816895,550.905640 
	C682.232544,550.521362 682.830322,550.334106 683.562988,549.935486 
	C684.170288,553.180359 684.703552,556.029907 685.224121,558.811462 
	C688.413086,558.811462 691.201294,558.811462 694.260498,558.811462 
	C694.260498,543.137268 694.397400,527.656189 694.128357,512.182251 
	C694.082458,509.544281 692.298889,506.936523 690.881958,503.720337 
M1206.770874,537.650085 
	C1204.282959,548.117432 1207.833008,555.710022 1217.111328,558.944946 
	C1220.358154,560.077026 1223.883667,560.753113 1227.319458,560.937012 
	C1239.208008,561.573181 1249.972046,558.558533 1258.988281,549.485046 
	C1259.642334,553.083984 1260.167480,555.973877 1260.649658,558.627075 
	C1263.957520,558.627075 1266.856812,558.627075 1269.910767,558.627075 
	C1269.910767,543.257690 1270.039673,528.271729 1269.849487,513.289917 
	C1269.769409,506.985626 1266.607910,501.829254 1261.048462,499.095703 
	C1246.130615,491.760834 1230.861816,491.699615 1215.961060,499.064789 
	C1209.481689,502.267365 1206.806641,508.280823 1207.224609,515.798340 
	C1211.244141,515.798340 1214.998779,515.798340 1218.716431,515.798340 
	C1219.790283,508.140717 1222.464844,504.440735 1229.087036,503.325989 
	C1234.088623,502.484070 1239.392700,502.171844 1244.394409,502.853790 
	C1255.895996,504.421936 1258.966919,508.891937 1257.727417,520.420410 
	C1248.968994,521.271973 1240.153687,521.653320 1231.515381,523.095703 
	C1221.852905,524.709045 1211.943726,526.567261 1206.770874,537.650085 
M801.500000,531.011047 
	C808.922913,531.011047 816.345764,531.011047 823.709045,531.011047 
	C824.821289,509.372620 814.488342,496.012054 795.755310,494.078918 
	C775.674744,492.006714 761.442017,502.276489 758.925476,520.653809 
	C755.874146,542.936646 765.374329,557.660889 785.500854,560.636841 
	C801.949585,563.069031 819.281738,556.748474 822.919434,539.988953 
	C821.057373,539.988953 819.269470,540.144104 817.517822,539.957703 
	C813.470459,539.527100 810.753784,540.327393 808.355286,544.452209 
	C804.025513,551.898254 793.157959,554.351013 783.746948,551.068481 
	C775.586670,548.222229 770.601013,540.459534 771.072449,531.011047 
	C780.869873,531.011047 790.684937,531.011047 801.500000,531.011047 
M335.267090,531.388245 
	C341.406616,531.262085 347.545776,531.058105 353.685791,531.026611 
	C365.116852,530.968018 376.548431,531.009827 387.921906,531.009827 
	C390.099579,510.785614 379.868927,496.474823 361.083893,494.274628 
	C341.928314,492.031036 326.593384,500.102936 323.341156,520.751404 
	C320.030304,541.771912 329.638885,556.766968 349.085785,560.502808 
	C367.320007,564.005676 384.080322,555.195740 387.439148,539.990173 
	C385.572388,539.990173 383.761871,540.150757 381.989929,539.957581 
	C377.944855,539.516541 375.032013,540.176514 372.864807,544.460754 
	C370.520935,549.094238 365.795898,551.328857 360.577240,551.985291 
	C345.743500,553.851074 337.449310,547.411438 335.267090,531.388245 
M452.921783,551.024597 
	C444.279449,547.236267 439.612427,539.815430 440.525482,530.901001 
	C457.928223,530.901001 475.370422,530.901001 492.768097,530.901001 
	C494.970276,510.628113 484.251343,496.360809 465.436920,494.116272 
	C444.988037,491.676727 430.285919,502.563324 428.052460,521.798462 
	C425.488586,543.879211 436.012848,558.604919 455.998383,560.901062 
	C474.130402,562.984314 490.397461,553.638489 491.975830,540.115479 
	C488.144287,540.115479 484.326721,540.115479 480.547028,540.115479 
	C473.955841,551.226074 466.293304,554.392761 452.921783,551.024597 
M1436.250610,523.834778 
	C1440.155273,514.696655 1444.059937,505.558502 1448.027710,496.272705 
	C1435.498413,495.308472 1435.495728,495.307404 1431.075073,506.094269 
	C1430.002930,508.710419 1428.966553,511.341339 1427.892578,513.956726 
	C1423.876709,523.735657 1419.852051,533.510925 1415.388794,544.361694 
	C1408.495605,527.536804 1402.036255,511.770691 1395.630859,496.136475 
	C1391.202148,496.136475 1387.237061,496.136475 1382.974243,496.136475 
	C1383.282349,497.117676 1383.458862,497.904205 1383.768921,498.634064 
	C1390.467529,514.401855 1396.636963,530.427185 1404.105103,545.822449 
	C1408.292114,554.453552 1408.875977,562.140198 1403.473999,569.807434 
	C1401.553345,572.533569 1398.390503,575.345703 1395.316162,576.060852 
	C1391.236694,577.009644 1386.688110,575.942444 1382.084717,575.729675 
	C1382.084717,577.566345 1381.816650,579.600403 1382.183350,581.512756 
	C1382.410278,582.695679 1383.430298,584.441162 1384.387329,584.661560 
	C1397.448975,587.671143 1410.038208,586.938477 1416.272827,570.922058 
	C1422.362671,555.277893 1429.379150,539.994568 1436.250610,523.834778 
M895.455444,494.835297 
	C892.477966,495.792450 889.317749,496.384918 886.554810,497.769989 
	C874.588318,503.768768 868.835876,517.775940 871.293213,534.300415 
	C873.459290,548.866638 881.591553,557.661011 895.619263,560.164429 
	C908.581482,562.477661 920.660400,560.808594 929.625000,550.066528 
	C938.169861,539.827454 938.798767,519.455383 931.492859,507.526672 
	C924.982727,496.897308 911.126038,491.830200 895.455444,494.835297 
M1130.772705,496.004944 
	C1130.257690,497.369110 1129.301636,498.730896 1129.294312,500.097748 
	C1129.195312,518.585754 1129.221191,537.074463 1129.245728,555.562988 
	C1129.247192,556.658203 1129.501343,557.753052 1129.622314,558.723389 
	C1133.562866,558.723389 1137.158203,558.723389 1141.051514,558.723389 
	C1141.051514,556.630188 1141.049072,554.827209 1141.051880,553.024231 
	C1141.068726,542.197998 1140.933228,531.368652 1141.153564,520.546509 
	C1141.325562,512.098755 1145.372314,506.899078 1152.944336,504.542419 
	C1168.964478,499.556488 1180.197754,507.678162 1180.225952,524.271606 
	C1180.234375,529.268494 1180.227661,534.265442 1180.227661,539.262329 
	C1180.227661,545.710754 1180.227661,552.159180 1180.227661,558.657715 
	C1184.461792,558.657715 1188.173218,558.657715 1192.037964,558.657715 
	C1192.037964,544.818542 1192.384033,531.325867 1191.923340,517.860779 
	C1191.583862,507.940155 1186.831421,499.826843 1177.163696,496.723907 
	C1170.902466,494.714325 1163.696045,493.962738 1157.208740,494.838348 
	C1151.205933,495.648468 1145.596436,499.373413 1139.853027,501.798157 
	C1139.586426,500.577667 1139.128784,498.482269 1138.583374,495.985321 
	C1136.298096,495.985321 1133.990479,495.985321 1130.772705,496.004944 
M259.387146,556.190125 
	C280.594940,567.609680 307.200531,558.735291 310.305084,538.991211 
	C304.518463,538.801514 298.298218,536.873413 295.436310,544.683899 
	C294.932648,546.058472 293.175476,547.093750 291.814209,548.015442 
	C278.258484,557.193054 260.122772,549.414062 257.887421,533.291870 
	C257.303345,529.079163 257.437317,524.625732 258.085541,520.412659 
	C259.452454,511.528870 265.379669,505.512390 273.381470,504.046234 
	C284.467560,502.014984 292.665497,505.226227 297.701416,513.415955 
	C298.385651,514.528748 299.596283,515.940186 300.690521,516.061096 
	C303.894684,516.415100 307.163208,516.187012 310.533356,516.187012 
	C307.511475,502.886078 297.402435,495.057007 282.647308,494.045288 
	C265.242218,492.851807 252.738739,499.675323 247.761810,513.083252 
	C241.776260,529.208435 246.226852,546.563416 259.387146,556.190125 
M1356.331055,532.482727 
	C1356.331055,523.495239 1356.331055,514.507690 1356.331055,504.905823 
	C1364.326172,504.905823 1372.056641,504.905823 1379.689697,504.905823 
	C1379.689697,501.675262 1379.689697,499.064606 1379.689697,496.031250 
	C1371.881470,496.031250 1364.279419,496.031250 1356.214111,496.031250 
	C1356.214111,488.858521 1356.214111,482.110626 1356.214111,475.319214 
	C1352.941162,475.319214 1350.144409,475.319214 1347.022217,475.319214 
	C1346.177246,482.176453 1345.349976,488.889526 1344.472656,496.008972 
	C1340.825439,496.008972 1337.415894,496.008972 1333.902832,496.008972 
	C1333.902832,499.237671 1333.902832,502.014038 1333.902832,505.211090 
	C1337.567871,505.211090 1341.000122,505.211090 1344.333618,505.211090 
	C1344.494629,505.958008 1344.625366,506.283051 1344.626099,506.608398 
	C1344.647949,517.271240 1345.114380,527.957520 1344.568970,538.591797 
	C1343.586060,557.750610 1358.170776,563.367126 1371.512695,560.272949 
	C1380.331787,558.227722 1380.696533,557.843811 1379.451050,548.611267 
	C1378.804688,548.825928 1378.162231,548.982056 1377.567261,549.245361 
	C1364.183350,555.166626 1356.386597,550.297180 1356.331665,535.972717 
	C1356.328491,535.139648 1356.331177,534.306641 1356.331055,532.482727 
M742.950745,551.053528 
	C733.171875,552.277710 727.692932,549.428528 727.367310,541.789917 
	C726.852356,529.710022 727.230164,517.592041 727.230164,504.988708 
	C735.104248,504.988708 742.666809,504.988708 750.296631,504.988708 
	C750.296631,501.734375 750.296631,498.993866 750.296631,495.787598 
	C742.424683,495.787598 734.844543,495.787598 726.906067,495.787598 
	C726.906067,488.727814 726.906067,482.132416 726.906067,475.428192 
	C723.633728,475.428192 720.751221,475.428192 717.651184,475.428192 
	C716.792480,482.393799 715.967163,489.088623 715.090027,496.204132 
	C711.279297,496.204132 707.870300,496.204132 704.609131,496.204132 
	C704.609131,499.432648 704.609131,502.150146 704.609131,505.206116 
	C708.266235,505.206116 711.545105,505.206116 715.230591,505.206116 
	C715.230591,516.669556 715.228821,527.787048 715.230957,538.904541 
	C715.234192,555.603210 725.534180,563.858826 741.949585,560.322693 
	C750.996338,558.373901 751.140442,558.176086 750.282043,548.619141 
	C748.083984,549.415161 745.939575,550.191772 742.950745,551.053528 
M1285.208374,526.500000 
	C1285.208374,537.251709 1285.208374,548.003418 1285.208374,558.672913 
	C1289.401855,558.672913 1292.962891,558.672913 1296.478271,558.672913 
	C1296.478271,529.296021 1296.478271,500.275635 1296.478271,471.326599 
	C1292.598755,471.326599 1289.037842,471.326599 1285.208374,471.326599 
	C1285.208374,489.620087 1285.208374,507.560059 1285.208374,526.500000 
M980.053650,503.934662 
	C982.362671,504.591187 984.671692,505.247711 987.013855,505.913696 
	C987.926331,496.409454 986.713013,494.902618 977.873962,494.015594 
	C971.150757,493.340912 965.683838,495.912415 960.999207,501.022278 
	C960.158997,498.947937 959.566223,497.484589 959.101868,496.338104 
	C955.961548,496.338104 953.220703,496.338104 950.569092,496.338104 
	C950.569092,517.397522 950.569092,538.099854 950.569092,558.745850 
	C954.511780,558.745850 958.109741,558.745850 962.056152,558.745850 
	C962.056152,545.371094 961.945129,532.263367 962.089905,519.158386 
	C962.215332,507.810028 967.828003,502.894684 980.053650,503.934662 
M607.114990,494.182678 
	C603.344116,496.096924 599.573181,498.011169 595.598450,500.028900 
	C595.246277,499.092896 594.688293,497.609802 594.177612,496.252502 
	C591.139221,496.252502 588.380005,496.252502 585.503845,496.252502 
	C585.503845,517.231384 585.503845,537.939636 585.503845,558.642090 
	C589.502258,558.642090 593.210938,558.642090 597.082947,558.642090 
	C597.082947,544.963013 596.915955,531.655762 597.135437,518.354858 
	C597.312988,507.598816 603.792358,502.323151 614.476196,503.897156 
	C617.005859,504.269836 619.456116,505.182343 621.955566,505.849884 
	C623.042053,496.468719 621.570923,494.637909 612.447388,494.015137 
	C610.958557,493.913513 609.455017,494.029175 607.114990,494.182678 
M414.034821,479.545044 
	C414.034821,476.781097 414.034821,474.017181 414.034821,471.209534 
	C409.973145,471.209534 406.538361,471.209534 402.895630,471.209534 
	C402.895630,500.469421 402.895630,529.515320 402.895630,558.699219 
	C406.648529,558.699219 410.203430,558.699219 414.034821,558.699219 
	C414.034821,532.441895 414.034821,506.488831 414.034821,479.545044 
M1311.804688,543.493774 
	C1311.804688,548.590698 1311.804688,553.687622 1311.804688,558.793579 
	C1315.942139,558.793579 1319.546875,558.793579 1323.365234,558.793579 
	C1323.365234,537.845154 1323.365234,517.121582 1323.365234,496.290466 
	C1319.419189,496.290466 1315.719604,496.290466 1311.804688,496.290466 
	C1311.804688,511.897614 1311.804688,527.196899 1311.804688,543.493774 
M997.997009,558.991699 
	C1001.425781,558.991699 1004.854553,558.991699 1008.285889,558.991699 
	C1008.285889,537.670105 1008.285889,516.944885 1008.285889,496.175232 
	C1004.344910,496.175232 1000.724548,496.175232 997.142822,496.175232 
	C997.142822,517.152588 997.142822,537.936157 997.997009,558.991699 
M1113.925293,547.479004 
	C1113.925293,530.410950 1113.925293,513.342834 1113.925293,496.395325 
	C1109.597290,496.395325 1105.891357,496.395325 1102.297485,496.395325 
	C1102.297485,517.385498 1102.297485,537.962646 1102.297485,558.694824 
	C1106.229980,558.694824 1109.934204,558.694824 1113.925293,558.694824 
	C1113.925293,555.076233 1113.925293,551.773621 1113.925293,547.479004 
M996.804260,474.784241 
	C996.804260,477.427155 996.804260,480.070068 996.804260,482.677429 
	C1000.871826,482.677429 1004.594849,482.677429 1008.240356,482.677429 
	C1008.240356,478.612854 1008.240356,474.899017 1008.240356,470.982513 
	C1005.058899,470.982513 1002.206238,470.732483 999.441528,471.116028 
	C998.453186,471.253143 997.677368,472.922394 996.804260,474.784241 
M1311.804321,476.561798 
	C1311.804321,478.646332 1311.804321,480.730865 1311.804321,482.768005 
	C1316.000488,482.768005 1319.594604,482.768005 1323.329590,482.768005 
	C1323.329590,478.774780 1323.329590,475.035309 1323.329590,471.139893 
	C1319.433228,471.139893 1315.812012,471.139893 1311.804443,471.139893 
	C1311.804443,472.728760 1311.804443,474.197205 1311.804321,476.561798 
M1113.923950,473.701904 
	C1113.291992,472.799408 1112.722534,471.178802 1112.017456,471.117462 
	C1108.795044,470.837250 1105.534546,470.994385 1102.427734,470.994385 
	C1102.427734,475.395111 1102.427734,479.108612 1102.427734,482.752319 
	C1106.370361,482.752319 1109.957153,482.752319 1113.925171,482.752319 
	C1113.925171,479.878845 1113.925171,477.264008 1113.923950,473.701904 
z"/>
<path fill="#FF9101" opacity="1.000000" stroke="none" 
	d="
M737.696228,259.641968 
	C747.387878,233.099655 757.085510,206.559540 766.763062,180.012100 
	C767.893188,176.911819 767.288452,175.388931 763.476318,174.688599 
	C750.034729,172.219223 741.581482,160.188721 743.178284,146.515686 
	C744.008240,139.409363 746.556519,136.975113 753.649353,136.548004 
	C776.553833,135.168747 791.133057,122.266663 800.918884,102.580696 
	C805.199280,93.969841 809.136292,85.097916 814.326599,77.052460 
	C820.939636,66.801445 831.376526,63.719402 843.146790,65.084755 
	C850.522400,65.940338 856.544189,72.611076 856.028992,81.029907 
	C855.580322,88.361771 853.592773,95.708344 851.446838,102.794518 
	C849.578674,108.963394 846.506104,114.763901 844.038208,120.757011 
	C843.344727,122.441025 842.776062,124.200745 842.374573,125.976486 
	C840.519409,134.181595 842.479675,136.595139 850.892639,136.601074 
	C857.892517,136.606018 864.892883,136.550339 871.892029,136.622299 
	C877.526978,136.680237 879.927795,138.467392 880.783691,143.964676 
	C882.544556,155.273849 880.408325,165.867630 873.845703,175.353470 
	C870.300049,180.478485 865.435120,182.901520 858.966064,182.843948 
	C850.320618,182.766983 841.670959,183.587173 833.019104,183.694534 
	C817.217346,183.890671 809.301331,193.277008 805.427185,207.209076 
	C803.157288,215.371628 801.010437,223.614761 799.575195,231.953629 
	C796.330933,250.802780 805.669067,268.212402 822.677979,272.829163 
	C841.915344,278.050812 859.640259,273.779633 874.479370,259.977722 
	C875.922058,258.635864 876.604431,255.888947 876.686035,253.757721 
	C878.626099,203.084167 891.653442,155.501846 916.996277,111.553688 
	C921.663635,103.459732 928.032166,96.013947 934.840393,89.561493 
	C946.492004,78.518669 960.378784,75.317894 974.714539,81.351700 
	C980.763000,70.544563 985.720947,59.112366 992.910339,49.318172 
	C1015.313660,18.797844 1046.525757,9.462736 1082.924927,14.455770 
	C1104.861572,17.464918 1122.538086,27.912439 1135.026978,46.261711 
	C1144.183228,59.714439 1148.927856,75.044067 1150.884766,91.064194 
	C1152.312012,102.748581 1152.625366,114.569031 1153.483643,127.030266 
	C1154.709473,124.656670 1155.792114,122.551666 1156.882324,120.450592 
	C1171.817505,91.663948 1189.986694,65.362747 1215.296143,44.565899 
	C1238.185059,25.757902 1263.921997,13.955802 1293.939209,12.815762 
	C1328.160522,11.516055 1353.012695,26.157879 1367.815918,57.057880 
	C1379.293335,81.016129 1382.602783,106.736839 1382.054321,132.955399 
	C1380.968994,184.836319 1367.089844,233.451248 1343.480469,279.439362 
	C1327.871826,309.842804 1308.271606,337.170807 1281.243408,358.570404 
	C1262.035645,373.778137 1240.615601,383.961243 1215.809692,385.725311 
	C1177.215576,388.469971 1146.593384,368.260101 1132.085449,330.873688 
	C1123.819214,309.572083 1121.195923,287.389038 1121.007690,264.767242 
	C1120.989014,262.514191 1121.005249,260.260834 1121.005249,257.202362 
	C1114.395752,269.698059 1108.630005,281.631256 1101.947998,293.027191 
	C1085.382568,321.278931 1065.717529,347.014618 1038.625732,366.141235 
	C1017.997620,380.704559 995.481079,389.897247 969.601196,388.105621 
	C939.679077,386.034119 916.518311,372.016266 899.567749,347.606140 
	C891.635559,336.183167 886.208679,323.485870 882.306580,308.886353 
	C880.838501,311.132568 879.805481,312.662048 878.823425,314.223511 
	C868.065857,331.328979 856.462280,347.757904 841.320190,361.378571 
	C821.548767,379.163483 798.939514,389.471832 771.798218,387.073730 
	C748.336426,385.000793 732.092529,369.821106 727.207520,344.823486 
	C725.468689,335.925537 725.709351,326.640717 725.056030,316.648590 
	C726.872498,305.300446 728.378052,294.772186 730.584290,284.392822 
	C732.266785,276.477356 734.837646,268.750702 737.013306,260.940063 
	C737.013306,260.940063 737.025696,261.017731 737.224976,260.876892 
	C737.514954,260.371368 737.605591,260.006683 737.696228,259.641968 
M1081.329834,194.849182 
	C1083.089478,186.394974 1085.523804,178.015152 1086.465454,169.470795 
	C1088.318481,152.656738 1087.894531,135.913254 1081.970337,119.695488 
	C1075.047119,100.743172 1058.825317,91.134918 1039.591187,94.824387 
	C1026.046997,97.422417 1019.189270,106.577988 1019.950500,121.046104 
	C1020.543762,132.321732 1027.821167,138.710587 1041.509277,139.972488 
	C1050.568115,140.807617 1056.455688,146.346359 1057.874268,155.367813 
	C1060.609375,172.762848 1048.706909,190.667404 1031.574707,194.929749 
	C1011.261108,199.983566 992.898682,191.721649 982.017639,172.374252 
	C979.502319,167.901749 977.399780,163.143463 975.617065,158.327972 
	C973.907532,153.710144 972.859985,148.847214 971.431946,143.773529 
	C963.263062,162.447800 957.589844,181.376343 956.314514,201.362518 
	C955.217346,218.555649 955.385925,235.664352 962.649658,251.891327 
	C968.658508,265.314819 979.010559,272.572449 993.466003,273.967194 
	C1012.981689,275.850189 1029.434692,268.409058 1043.733154,256.007355 
	C1062.384644,239.830124 1073.774414,218.923508 1081.329834,194.849182 
M1276.357178,249.842865 
	C1303.186523,219.136841 1311.969604,183.564163 1303.906128,143.951019 
	C1299.144287,120.557854 1281.262451,109.938263 1258.027954,115.648277 
	C1243.633789,119.185745 1232.784668,128.160461 1223.922729,139.519196 
	C1210.954346,156.141342 1203.533325,175.289780 1200.289917,195.991531 
	C1197.712280,212.444061 1197.848511,228.822479 1203.940308,244.702652 
	C1210.574951,261.997345 1224.484131,270.515869 1242.738525,268.256683 
	C1256.085571,266.604858 1266.662109,259.717285 1276.357178,249.842865 
z"/>
<path fill="#5F18EB" opacity="1.000000" stroke="none" 
	d="
M736.651917,260.892456 
	C734.837646,268.750702 732.266785,276.477356 730.584290,284.392822 
	C728.378052,294.772186 726.872498,305.300446 724.986938,316.155884 
	C710.826172,323.759613 695.994507,327.423859 680.091309,326.011658 
	C679.096802,325.923370 677.929993,326.124542 677.137634,325.673737 
	C670.975281,322.168121 667.976562,325.651886 664.333740,330.286041 
	C650.692444,347.639374 635.937805,363.944305 616.040344,374.493469 
	C607.571960,378.983154 598.579041,381.798035 588.880859,382.123871 
	C574.143066,382.618988 564.266479,375.559723 558.020447,362.647369 
	C552.149048,350.509430 550.809387,337.423492 550.268738,324.250183 
	C549.894104,315.122375 550.196655,305.966766 550.196655,296.759888 
	C549.502258,298.323639 548.712158,300.055695 547.959900,301.803955 
	C538.202148,324.480957 526.289062,345.777100 507.610840,362.460327 
	C494.740265,373.956177 480.012848,381.580688 462.290527,382.110657 
	C440.201965,382.771240 425.487122,371.574951 415.702454,352.825043 
	C407.623749,337.344269 405.028809,320.436798 403.836121,302.494446 
	C401.606903,304.259216 399.781830,305.562988 398.115509,307.045166 
	C382.956024,320.529480 364.930450,326.334747 344.967133,326.512573 
	C340.809753,326.549622 338.395935,328.021027 335.900970,331.163940 
	C316.862640,355.146057 293.502350,373.221924 263.202789,380.135620 
	C232.060425,387.241638 203.846497,381.809418 181.887726,356.549805 
	C172.728989,346.014313 167.810898,333.313782 165.121780,319.714508 
	C164.940475,318.797607 164.788773,317.874908 164.451569,316.000092 
	C163.167694,317.699799 162.355942,318.611755 161.724197,319.634888 
	C149.908295,338.771271 136.458908,356.475433 117.604889,369.337555 
	C101.694855,380.191345 84.217514,384.992920 65.005951,381.888000 
	C42.933559,378.320740 31.000927,364.240143 29.062506,340.422699 
	C27.007113,315.168030 31.410887,290.497131 39.028748,266.603333 
	C58.955612,204.101669 80.024673,141.975174 105.251526,81.367622 
	C111.913666,65.361847 120.110924,50.059864 131.501175,36.747570 
	C140.301422,26.462311 150.915268,19.915911 165.036957,21.902554 
	C176.292511,23.485989 182.757904,31.651941 180.393875,42.756157 
	C178.370544,52.260220 175.303421,61.772903 171.155869,70.553345 
	C154.511734,105.789108 137.195007,140.741821 124.683823,177.723969 
	C118.560913,195.822830 113.614899,214.342072 108.764000,232.835724 
	C107.280334,238.492081 107.221970,244.744720 107.657669,250.639526 
	C108.862877,266.945251 119.594101,271.395905 132.753372,270.523193 
	C153.366577,269.156158 166.715302,257.249023 173.920029,238.491043 
	C188.459976,200.635361 210.282318,168.474960 245.624924,147.207794 
	C269.673401,132.736755 295.938507,127.769714 323.446930,134.272293 
	C348.059387,140.090302 362.964111,156.808929 369.626648,180.693161 
	C374.769928,199.130966 376.317993,218.038574 373.434021,237.106476 
	C371.848541,247.589249 369.994110,258.031342 368.060455,269.701691 
	C372.956085,269.172485 377.994476,269.397858 382.520996,267.984222 
	C393.173279,264.657471 401.466736,257.679810 407.996582,248.758438 
	C409.588074,246.584076 410.315399,243.655380 411.006104,240.962219 
	C418.694916,210.982513 428.757812,181.958145 445.663757,155.757507 
	C450.822327,147.762787 456.709534,140.253845 465.206573,135.407990 
	C467.501038,134.099457 469.956482,132.851181 472.497986,132.236008 
	C483.719543,129.519730 491.442322,134.173416 492.014984,145.727524 
	C492.475708,155.022644 491.341034,164.718048 489.038574,173.758133 
	C484.979065,189.697037 479.034210,205.149704 474.774139,221.045914 
	C472.339722,230.129776 470.704071,239.662064 470.457733,249.038406 
	C470.151917,260.675842 473.639526,271.621643 485.749481,276.388306 
	C498.590729,281.442780 510.853058,278.920532 521.172852,269.886749 
	C533.915833,258.731689 538.778076,243.421677 540.976929,227.339783 
	C542.348511,217.308548 542.332153,207.078156 542.758911,196.929565 
	C543.273438,184.695496 545.370483,172.837631 549.635498,161.297165 
	C557.921021,138.878052 571.138672,130.162598 595.114319,131.778122 
	C612.641357,132.959137 620.847351,140.658066 623.531921,158.009216 
	C625.154236,168.495010 622.532227,178.246567 618.599854,187.668640 
	C613.407654,200.109406 607.478027,212.241943 602.260803,224.672928 
	C597.826111,235.239151 595.349915,246.174850 597.917542,257.785858 
	C600.882996,271.195526 610.606323,279.131653 624.343994,278.770294 
	C639.322632,278.376343 651.681335,272.390167 661.515015,261.056610 
	C663.538452,258.724640 664.087708,256.589325 663.455811,253.410217 
	C658.375122,227.848938 657.006897,202.173050 663.145081,176.602234 
	C666.240112,163.709152 671.110840,151.453293 680.938965,141.945358 
	C690.727051,132.476089 702.650574,128.987122 715.873779,131.316299 
	C725.389893,132.992493 731.281860,139.376984 733.877014,148.704498 
	C737.906189,163.186447 735.539551,177.462662 732.229736,191.628067 
	C726.782043,214.943207 717.528015,236.863113 707.176941,258.354004 
	C705.527527,261.778564 703.810974,265.170746 701.975708,268.880737 
	C714.898621,271.190765 726.054199,267.993958 736.651917,260.892456 
M264.430573,278.216064 
	C267.892273,278.247009 271.398834,278.654114 274.808411,278.247711 
	C296.634216,275.646149 315.409393,249.656799 311.773865,225.552444 
	C310.566711,217.548706 306.495697,211.327881 298.876038,207.774277 
	C290.902863,204.055771 282.659729,204.079056 274.529877,206.573929 
	C255.440842,212.431976 243.020218,231.571579 243.737518,253.408844 
	C244.202713,267.571930 250.059967,274.850067 264.430573,278.216064 
z"/>
<path fill="#FF9101" opacity="1.000000" stroke="none" 
	d="
M1635.534058,126.316559 
	C1644.571899,129.435806 1652.486694,133.499207 1657.497559,141.639572 
	C1658.714600,143.616714 1659.933594,145.661560 1660.702515,147.834213 
	C1664.757812,159.292862 1662.700806,164.819183 1652.052979,171.120026 
	C1646.904297,174.166687 1641.444702,176.720047 1636.457031,180.000183 
	C1626.205688,186.741821 1624.153198,193.635284 1629.218384,204.741959 
	C1636.530029,220.774612 1644.356934,236.573730 1651.566895,252.650558 
	C1654.411743,258.994141 1656.394287,265.756073 1658.364990,272.446625 
	C1659.348999,275.787567 1660.918579,276.536285 1664.124878,275.813171 
	C1675.009521,273.358429 1682.630615,266.406555 1689.217773,257.980042 
	C1691.164551,255.489746 1692.948364,252.872604 1694.828125,250.329300 
	C1698.485718,245.380539 1704.025146,244.046539 1709.320435,246.820679 
	C1716.548462,250.607346 1720.157104,257.183655 1717.442749,263.026947 
	C1701.642090,297.041412 1683.326904,329.391815 1654.418213,354.343933 
	C1628.937988,376.336670 1599.332764,387.585754 1565.597534,386.914764 
	C1552.242065,386.649078 1539.152466,384.126770 1526.895386,378.332031 
	C1507.496460,369.160858 1495.416870,353.804352 1488.981689,333.646423 
	C1488.551514,332.298828 1488.121216,330.951202 1487.525146,329.083862 
	C1483.926514,334.126892 1480.737427,338.764099 1477.377563,343.274017 
	C1466.106323,358.403290 1452.953857,371.461639 1435.918335,380.079895 
	C1422.562744,386.836365 1408.310913,388.836609 1393.639282,386.644684 
	C1372.789795,383.529724 1360.103638,369.320923 1357.940918,347.653351 
	C1355.311646,321.313385 1359.389038,295.595978 1367.763062,270.927765 
	C1387.234863,213.567139 1407.375244,156.418381 1428.359863,99.595642 
	C1434.651001,82.560440 1444.056763,66.560570 1453.115845,50.703499 
	C1459.010010,40.386303 1467.409424,31.663548 1479.340820,27.958796 
	C1483.677612,26.612181 1488.570923,25.977066 1493.067261,26.431980 
	C1505.546997,27.694603 1511.854004,37.423172 1508.447632,50.923927 
	C1506.266968,59.567291 1503.057129,68.091164 1499.224854,76.153442 
	C1482.711182,110.893974 1465.647095,145.424561 1453.532837,182.003860 
	C1446.960205,201.850296 1441.015503,222.055939 1436.883545,242.522675 
	C1431.233276,270.508911 1448.024902,279.604401 1471.779297,273.601410 
	C1483.139282,270.730652 1491.392090,262.649323 1497.921265,252.994965 
	C1514.980225,227.771088 1531.789551,202.373352 1549.192139,177.388824 
	C1560.426758,161.259613 1572.628784,145.891418 1588.753662,134.063324 
	C1603.028687,123.592186 1618.465454,121.576012 1635.534058,126.316559 
M1539.015503,241.506149 
	C1534.631470,247.153870 1530.488770,253.012894 1525.787720,258.382996 
	C1521.957153,262.758636 1522.739014,266.901672 1525.322021,271.131622 
	C1526.598877,273.222229 1528.343628,275.158813 1530.244995,276.714996 
	C1543.565063,287.616943 1571.422485,285.865967 1581.129028,266.228821 
	C1587.645630,253.045319 1586.385986,239.739487 1582.041870,226.503784 
	C1579.883545,219.927643 1576.903564,213.532120 1573.552246,207.465378 
	C1570.991821,202.830093 1568.020020,202.902161 1564.400024,206.690765 
	C1563.258057,207.885986 1562.260010,209.231506 1561.288940,210.575317 
	C1553.986816,220.680984 1546.707886,230.803299 1539.015503,241.506149 
z"/>
<path fill="#282828" opacity="1.000000" stroke="none" 
	d="
M1086.918579,505.050049 
	C1086.918579,522.705200 1086.918579,539.866577 1086.918579,557.028015 
	C1086.918579,575.222229 1080.635010,582.872131 1062.650024,585.598267 
	C1054.026489,586.905396 1045.348267,586.305359 1037.112183,583.005310 
	C1028.229492,579.446289 1024.097778,573.131470 1024.209961,563.356323 
	C1027.930054,563.356323 1031.664551,563.356323 1035.431274,563.356323 
	C1038.735718,575.342285 1046.890625,579.543335 1061.849609,576.893127 
	C1072.403931,575.023254 1076.087891,568.027771 1074.859497,552.916321 
	C1069.819458,555.282654 1064.828003,558.681946 1059.335449,560.013000 
	C1040.468994,564.584839 1025.919312,554.778137 1023.451172,535.618469 
	C1022.555908,528.668152 1023.122070,521.253418 1024.511353,514.350464 
	C1026.531250,504.314728 1033.021240,497.414520 1043.251831,495.070465 
	C1054.560181,492.479492 1065.111694,493.794891 1073.541138,502.858459 
	C1074.106201,503.466095 1074.623413,504.118286 1075.186646,504.727631 
	C1075.282104,504.831055 1075.499390,504.821930 1076.212646,505.011810 
	C1076.793091,502.179962 1077.372925,499.351135 1078.005005,496.266968 
	C1080.809204,496.266968 1083.556763,496.266968 1086.918579,496.266968 
	C1086.918579,499.007233 1086.918579,501.781769 1086.918579,505.050049 
M1070.494141,510.114960 
	C1060.209351,499.446136 1042.250854,501.613037 1037.053101,514.364563 
	C1033.528320,523.012329 1033.605835,531.980347 1037.055664,540.661621 
	C1040.137207,548.416260 1046.567749,551.343628 1054.536865,551.454163 
	C1062.670410,551.567017 1069.733521,548.949829 1072.709229,540.978333 
	C1076.489136,530.852661 1076.764893,520.485962 1070.494141,510.114960 
z"/>
<path fill="#292929" opacity="1.000000" stroke="none" 
	d="
M570.199280,539.149292 
	C565.362244,564.702515 531.577332,567.500305 518.275391,549.781250 
	C517.675903,552.987366 517.151123,555.794128 516.590393,558.792847 
	C513.600464,558.792847 510.670471,558.792847 507.484131,558.792847 
	C507.484131,529.549438 507.484131,500.489136 507.484131,471.206512 
	C511.310883,471.206512 514.901367,471.206512 518.996216,471.206512 
	C518.996216,481.863220 518.996216,492.407928 518.996216,504.369720 
	C525.568665,497.087677 532.818970,494.089630 541.251282,493.986816 
	C557.996948,493.782684 568.510193,502.298370 570.672546,518.884644 
	C571.518860,525.375916 570.465210,532.114868 570.199280,539.149292 
M539.478088,551.451904 
	C550.569397,550.627319 556.793945,546.425720 558.297058,536.574036 
	C559.319458,529.872986 558.916748,522.654785 557.589355,515.978394 
	C556.237488,509.179291 550.989746,505.053314 543.869507,503.960266 
	C528.893555,501.661346 519.874573,509.089478 519.169250,524.323242 
	C519.061951,526.642456 519.066101,528.976929 519.191040,531.295105 
	C519.875977,544.004333 525.945435,550.295349 539.478088,551.451904 
z"/>
<path fill="#262626" opacity="1.000000" stroke="none" 
	d="
M691.100037,504.017578 
	C692.298889,506.936523 694.082458,509.544281 694.128357,512.182251 
	C694.397400,527.656189 694.260498,543.137268 694.260498,558.811462 
	C691.201294,558.811462 688.413086,558.811462 685.224121,558.811462 
	C684.703552,556.029907 684.170288,553.180359 683.562988,549.935486 
	C682.830322,550.334106 682.232544,550.521362 681.816895,550.905640 
	C670.763550,561.126099 657.644958,562.788391 643.635010,559.684387 
	C635.789001,557.946106 631.120972,552.337708 630.452637,545.207520 
	C629.724304,537.437134 632.966431,531.585754 640.431580,527.822388 
	C652.067810,521.956238 664.808472,521.817322 677.400085,521.006042 
	C679.036621,520.900513 680.685791,520.991516 682.285461,520.991516 
	C683.556152,509.057129 680.365662,504.426544 668.928833,502.852966 
	C663.929016,502.165009 658.613586,502.454773 653.624390,503.336151 
	C647.259583,504.460449 643.361511,508.588898 643.321411,515.748657 
	C639.518921,515.748657 635.925171,515.748657 632.294373,515.748657 
	C630.758850,508.514130 634.349854,501.789398 642.283325,497.983154 
	C651.615906,493.505676 661.549072,493.282623 671.584106,494.548737 
	C678.995605,495.483826 685.922180,497.566254 691.100037,504.017578 
M679.843018,543.130249 
	C681.095093,538.337891 682.347229,533.545471 683.748779,528.181213 
	C678.742981,528.181213 675.218201,527.713684 671.865417,528.274658 
	C663.924866,529.603027 655.928528,530.952515 648.227173,533.219238 
	C643.809021,534.519653 641.658875,538.648743 642.205017,543.558411 
	C642.715637,548.148560 645.808167,550.776978 649.866821,551.716736 
	C661.036682,554.302979 671.245728,552.628967 679.843018,543.130249 
z"/>
<path fill="#282828" opacity="1.000000" stroke="none" 
	d="
M1206.887695,537.265259 
	C1211.943726,526.567261 1221.852905,524.709045 1231.515381,523.095703 
	C1240.153687,521.653320 1248.968994,521.271973 1257.727417,520.420410 
	C1258.966919,508.891937 1255.895996,504.421936 1244.394409,502.853790 
	C1239.392700,502.171844 1234.088623,502.484070 1229.087036,503.325989 
	C1222.464844,504.440735 1219.790283,508.140717 1218.716431,515.798340 
	C1214.998779,515.798340 1211.244141,515.798340 1207.224609,515.798340 
	C1206.806641,508.280823 1209.481689,502.267365 1215.961060,499.064789 
	C1230.861816,491.699615 1246.130615,491.760834 1261.048462,499.095703 
	C1266.607910,501.829254 1269.769409,506.985626 1269.849487,513.289917 
	C1270.039673,528.271729 1269.910767,543.257690 1269.910767,558.627075 
	C1266.856812,558.627075 1263.957520,558.627075 1260.649658,558.627075 
	C1260.167480,555.973877 1259.642334,553.083984 1258.988281,549.485046 
	C1249.972046,558.558533 1239.208008,561.573181 1227.319458,560.937012 
	C1223.883667,560.753113 1220.358154,560.077026 1217.111328,558.944946 
	C1207.833008,555.710022 1204.282959,548.117432 1206.887695,537.265259 
M1257.237915,528.102539 
	C1250.612427,528.448547 1243.927612,528.368652 1237.381104,529.281189 
	C1232.536499,529.956421 1227.689819,531.500427 1223.182373,533.442566 
	C1219.275635,535.125854 1217.371826,538.705139 1217.734619,543.223633 
	C1218.051636,547.169678 1220.295044,549.520752 1223.717529,551.081848 
	C1240.570801,558.769226 1258.670654,546.948425 1257.237915,528.102539 
z"/>
<path fill="#272727" opacity="1.000000" stroke="none" 
	d="
M801.000000,531.011047 
	C790.684937,531.011047 780.869873,531.011047 771.072449,531.011047 
	C770.601013,540.459534 775.586670,548.222229 783.746948,551.068481 
	C793.157959,554.351013 804.025513,551.898254 808.355286,544.452209 
	C810.753784,540.327393 813.470459,539.527100 817.517822,539.957703 
	C819.269470,540.144104 821.057373,539.988953 822.919434,539.988953 
	C819.281738,556.748474 801.949585,563.069031 785.500854,560.636841 
	C765.374329,557.660889 755.874146,542.936646 758.925476,520.653809 
	C761.442017,502.276489 775.674744,492.006714 795.755310,494.078918 
	C814.488342,496.012054 824.821289,509.372620 823.709045,531.011047 
	C816.345764,531.011047 808.922913,531.011047 801.000000,531.011047 
M779.542664,505.827942 
	C773.304932,510.168457 771.155884,516.421082 770.551758,523.769592 
	C784.647339,523.769592 798.106201,523.769592 811.571716,523.769592 
	C810.850952,506.180023 796.355896,497.778015 779.542664,505.827942 
z"/>
<path fill="#272727" opacity="1.000000" stroke="none" 
	d="
M335.171814,531.812988 
	C337.449310,547.411438 345.743500,553.851074 360.577240,551.985291 
	C365.795898,551.328857 370.520935,549.094238 372.864807,544.460754 
	C375.032013,540.176514 377.944855,539.516541 381.989929,539.957581 
	C383.761871,540.150757 385.572388,539.990173 387.439148,539.990173 
	C384.080322,555.195740 367.320007,564.005676 349.085785,560.502808 
	C329.638885,556.766968 320.030304,541.771912 323.341156,520.751404 
	C326.593384,500.102936 341.928314,492.031036 361.083893,494.274628 
	C379.868927,496.474823 390.099579,510.785614 387.921906,531.009827 
	C376.548431,531.009827 365.116852,530.968018 353.685791,531.026611 
	C347.545776,531.058105 341.406616,531.262085 335.171814,531.812988 
M369.411621,523.955505 
	C371.638489,523.955505 373.865387,523.955505 376.099609,523.955505 
	C375.217529,509.373596 366.904266,501.926178 353.339600,502.876038 
	C342.446472,503.638824 334.732941,512.667480 335.591248,523.955505 
	C346.521942,523.955505 357.475983,523.955505 369.411621,523.955505 
z"/>
<path fill="#262626" opacity="1.000000" stroke="none" 
	d="
M453.318054,551.138916 
	C466.293304,554.392761 473.955841,551.226074 480.547028,540.115479 
	C484.326721,540.115479 488.144287,540.115479 491.975830,540.115479 
	C490.397461,553.638489 474.130402,562.984314 455.998383,560.901062 
	C436.012848,558.604919 425.488586,543.879211 428.052460,521.798462 
	C430.285919,502.563324 444.988037,491.676727 465.436920,494.116272 
	C484.251343,496.360809 494.970276,510.628113 492.768097,530.901001 
	C475.370422,530.901001 457.928223,530.901001 440.525482,530.901001 
	C439.612427,539.815430 444.279449,547.236267 453.318054,551.138916 
M452.513489,523.956604 
	C461.963470,523.956604 471.413483,523.956604 480.865509,523.956604 
	C480.614868,510.879303 472.582794,502.629242 460.493591,502.632629 
	C448.374054,502.636047 440.430786,510.792267 440.119324,523.956604 
	C443.923309,523.956604 447.722198,523.956604 452.513489,523.956604 
z"/>
<path fill="#272727" opacity="1.000000" stroke="none" 
	d="
M1436.119751,524.193787 
	C1429.379150,539.994568 1422.362671,555.277893 1416.272827,570.922058 
	C1410.038208,586.938477 1397.448975,587.671143 1384.387329,584.661560 
	C1383.430298,584.441162 1382.410278,582.695679 1382.183350,581.512756 
	C1381.816650,579.600403 1382.084717,577.566345 1382.084717,575.729675 
	C1386.688110,575.942444 1391.236694,577.009644 1395.316162,576.060852 
	C1398.390503,575.345703 1401.553345,572.533569 1403.473999,569.807434 
	C1408.875977,562.140198 1408.292114,554.453552 1404.105103,545.822449 
	C1396.636963,530.427185 1390.467529,514.401855 1383.768921,498.634064 
	C1383.458862,497.904205 1383.282349,497.117676 1382.974243,496.136475 
	C1387.237061,496.136475 1391.202148,496.136475 1395.630859,496.136475 
	C1402.036255,511.770691 1408.495605,527.536804 1415.388794,544.361694 
	C1419.852051,533.510925 1423.876709,523.735657 1427.892578,513.956726 
	C1428.966553,511.341339 1430.002930,508.710419 1431.075073,506.094269 
	C1435.495728,495.307404 1435.498413,495.308472 1448.027710,496.272705 
	C1444.059937,505.558502 1440.155273,514.696655 1436.119751,524.193787 
z"/>
<path fill="#282828" opacity="1.000000" stroke="none" 
	d="
M895.880249,494.747192 
	C911.126038,491.830200 924.982727,496.897308 931.492859,507.526672 
	C938.798767,519.455383 938.169861,539.827454 929.625000,550.066528 
	C920.660400,560.808594 908.581482,562.477661 895.619263,560.164429 
	C881.591553,557.661011 873.459290,548.866638 871.293213,534.300415 
	C868.835876,517.775940 874.588318,503.768768 886.554810,497.769989 
	C889.317749,496.384918 892.477966,495.792450 895.880249,494.747192 
M906.253174,503.649963 
	C892.901794,503.198578 885.315979,508.566345 883.479736,520.732605 
	C882.726868,525.720276 882.940002,531.099182 883.936462,536.054199 
	C886.004639,546.337952 893.007935,551.442322 903.614380,551.460754 
	C914.210205,551.479187 921.565613,546.383850 923.342468,536.149780 
	C924.392822,530.099670 924.159485,523.501465 922.944824,517.463318 
	C921.321533,509.394379 915.564331,504.715942 906.253174,503.649963 
z"/>
<path fill="#2A2A2A" opacity="1.000000" stroke="none" 
	d="
M1131.227783,495.995117 
	C1133.990479,495.985321 1136.298096,495.985321 1138.583374,495.985321 
	C1139.128784,498.482269 1139.586426,500.577667 1139.853027,501.798157 
	C1145.596436,499.373413 1151.205933,495.648468 1157.208740,494.838348 
	C1163.696045,493.962738 1170.902466,494.714325 1177.163696,496.723907 
	C1186.831421,499.826843 1191.583862,507.940155 1191.923340,517.860779 
	C1192.384033,531.325867 1192.037964,544.818542 1192.037964,558.657715 
	C1188.173218,558.657715 1184.461792,558.657715 1180.227661,558.657715 
	C1180.227661,552.159180 1180.227661,545.710754 1180.227661,539.262329 
	C1180.227661,534.265442 1180.234375,529.268494 1180.225952,524.271606 
	C1180.197754,507.678162 1168.964478,499.556488 1152.944336,504.542419 
	C1145.372314,506.899078 1141.325562,512.098755 1141.153564,520.546509 
	C1140.933228,531.368652 1141.068726,542.197998 1141.051880,553.024231 
	C1141.049072,554.827209 1141.051514,556.630188 1141.051514,558.723389 
	C1137.158203,558.723389 1133.562866,558.723389 1129.622314,558.723389 
	C1129.501343,557.753052 1129.247192,556.658203 1129.245728,555.562988 
	C1129.221191,537.074463 1129.195312,518.585754 1129.294312,500.097748 
	C1129.301636,498.730896 1130.257690,497.369110 1131.227783,495.995117 
z"/>
<path fill="#282828" opacity="1.000000" stroke="none" 
	d="
M259.059540,556.025513 
	C246.226852,546.563416 241.776260,529.208435 247.761810,513.083252 
	C252.738739,499.675323 265.242218,492.851807 282.647308,494.045288 
	C297.402435,495.057007 307.511475,502.886078 310.533356,516.187012 
	C307.163208,516.187012 303.894684,516.415100 300.690521,516.061096 
	C299.596283,515.940186 298.385651,514.528748 297.701416,513.415955 
	C292.665497,505.226227 284.467560,502.014984 273.381470,504.046234 
	C265.379669,505.512390 259.452454,511.528870 258.085541,520.412659 
	C257.437317,524.625732 257.303345,529.079163 257.887421,533.291870 
	C260.122772,549.414062 278.258484,557.193054 291.814209,548.015442 
	C293.175476,547.093750 294.932648,546.058472 295.436310,544.683899 
	C298.298218,536.873413 304.518463,538.801514 310.305084,538.991211 
	C307.200531,558.735291 280.594940,567.609680 259.059540,556.025513 
z"/>
<path fill="#252525" opacity="1.000000" stroke="none" 
	d="
M1356.331055,532.978149 
	C1356.331177,534.306641 1356.328491,535.139648 1356.331665,535.972717 
	C1356.386597,550.297180 1364.183350,555.166626 1377.567261,549.245361 
	C1378.162231,548.982056 1378.804688,548.825928 1379.451050,548.611267 
	C1380.696533,557.843811 1380.331787,558.227722 1371.512695,560.272949 
	C1358.170776,563.367126 1343.586060,557.750610 1344.568970,538.591797 
	C1345.114380,527.957520 1344.647949,517.271240 1344.626099,506.608398 
	C1344.625366,506.283051 1344.494629,505.958008 1344.333618,505.211090 
	C1341.000122,505.211090 1337.567871,505.211090 1333.902832,505.211090 
	C1333.902832,502.014038 1333.902832,499.237671 1333.902832,496.008972 
	C1337.415894,496.008972 1340.825439,496.008972 1344.472656,496.008972 
	C1345.349976,488.889526 1346.177246,482.176453 1347.022217,475.319214 
	C1350.144409,475.319214 1352.941162,475.319214 1356.214111,475.319214 
	C1356.214111,482.110626 1356.214111,488.858521 1356.214111,496.031250 
	C1364.279419,496.031250 1371.881470,496.031250 1379.689697,496.031250 
	C1379.689697,499.064606 1379.689697,501.675262 1379.689697,504.905823 
	C1372.056641,504.905823 1364.326172,504.905823 1356.331055,504.905823 
	C1356.331055,514.507690 1356.331055,523.495239 1356.331055,532.978149 
z"/>
<path fill="#292929" opacity="1.000000" stroke="none" 
	d="
M743.372925,551.010986 
	C745.939575,550.191772 748.083984,549.415161 750.282043,548.619141 
	C751.140442,558.176086 750.996338,558.373901 741.949585,560.322693 
	C725.534180,563.858826 715.234192,555.603210 715.230957,538.904541 
	C715.228821,527.787048 715.230591,516.669556 715.230591,505.206116 
	C711.545105,505.206116 708.266235,505.206116 704.609131,505.206116 
	C704.609131,502.150146 704.609131,499.432648 704.609131,496.204132 
	C707.870300,496.204132 711.279297,496.204132 715.090027,496.204132 
	C715.967163,489.088623 716.792480,482.393799 717.651184,475.428192 
	C720.751221,475.428192 723.633728,475.428192 726.906067,475.428192 
	C726.906067,482.132416 726.906067,488.727814 726.906067,495.787598 
	C734.844543,495.787598 742.424683,495.787598 750.296631,495.787598 
	C750.296631,498.993866 750.296631,501.734375 750.296631,504.988708 
	C742.666809,504.988708 735.104248,504.988708 727.230164,504.988708 
	C727.230164,517.592041 726.852356,529.710022 727.367310,541.789917 
	C727.692932,549.428528 733.171875,552.277710 743.372925,551.010986 
z"/>
<path fill="#2F2F2F" opacity="1.000000" stroke="none" 
	d="
M1285.208374,526.000000 
	C1285.208374,507.560059 1285.208374,489.620087 1285.208374,471.326599 
	C1289.037842,471.326599 1292.598755,471.326599 1296.478271,471.326599 
	C1296.478271,500.275635 1296.478271,529.296021 1296.478271,558.672913 
	C1292.962891,558.672913 1289.401855,558.672913 1285.208374,558.672913 
	C1285.208374,548.003418 1285.208374,537.251709 1285.208374,526.000000 
z"/>
<path fill="#2A2A2A" opacity="1.000000" stroke="none" 
	d="
M979.614746,503.872467 
	C967.828003,502.894684 962.215332,507.810028 962.089905,519.158386 
	C961.945129,532.263367 962.056152,545.371094 962.056152,558.745850 
	C958.109741,558.745850 954.511780,558.745850 950.569092,558.745850 
	C950.569092,538.099854 950.569092,517.397522 950.569092,496.338104 
	C953.220703,496.338104 955.961548,496.338104 959.101868,496.338104 
	C959.566223,497.484589 960.158997,498.947937 960.999207,501.022278 
	C965.683838,495.912415 971.150757,493.340912 977.873962,494.015594 
	C986.713013,494.902618 987.926331,496.409454 987.013855,505.913696 
	C984.671692,505.247711 982.362671,504.591187 979.614746,503.872467 
z"/>
<path fill="#2A2A2A" opacity="1.000000" stroke="none" 
	d="
M607.536621,494.113556 
	C609.455017,494.029175 610.958557,493.913513 612.447388,494.015137 
	C621.570923,494.637909 623.042053,496.468719 621.955566,505.849884 
	C619.456116,505.182343 617.005859,504.269836 614.476196,503.897156 
	C603.792358,502.323151 597.312988,507.598816 597.135437,518.354858 
	C596.915955,531.655762 597.082947,544.963013 597.082947,558.642090 
	C593.210938,558.642090 589.502258,558.642090 585.503845,558.642090 
	C585.503845,537.939636 585.503845,517.231384 585.503845,496.252502 
	C588.380005,496.252502 591.139221,496.252502 594.177612,496.252502 
	C594.688293,497.609802 595.246277,499.092896 595.598450,500.028900 
	C599.573181,498.011169 603.344116,496.096924 607.536621,494.113556 
z"/>
<path fill="#242424" opacity="1.000000" stroke="none" 
	d="
M414.034821,480.040405 
	C414.034821,506.488831 414.034821,532.441895 414.034821,558.699219 
	C410.203430,558.699219 406.648529,558.699219 402.895630,558.699219 
	C402.895630,529.515320 402.895630,500.469421 402.895630,471.209534 
	C406.538361,471.209534 409.973145,471.209534 414.034821,471.209534 
	C414.034821,474.017181 414.034821,476.781097 414.034821,480.040405 
z"/>
<path fill="#2B2B2B" opacity="1.000000" stroke="none" 
	d="
M1311.804688,542.994995 
	C1311.804688,527.196899 1311.804688,511.897614 1311.804688,496.290466 
	C1315.719604,496.290466 1319.419189,496.290466 1323.365234,496.290466 
	C1323.365234,517.121582 1323.365234,537.845154 1323.365234,558.793579 
	C1319.546875,558.793579 1315.942139,558.793579 1311.804688,558.793579 
	C1311.804688,553.687622 1311.804688,548.590698 1311.804688,542.994995 
z"/>
<path fill="#2B2B2B" opacity="1.000000" stroke="none" 
	d="
M997.569946,558.855713 
	C997.142822,537.936157 997.142822,517.152588 997.142822,496.175232 
	C1000.724548,496.175232 1004.344910,496.175232 1008.285889,496.175232 
	C1008.285889,516.944885 1008.285889,537.670105 1008.285889,558.991699 
	C1004.854553,558.991699 1001.425781,558.991699 997.569946,558.855713 
z"/>
<path fill="#2A2A2A" opacity="1.000000" stroke="none" 
	d="
M1113.925293,547.974976 
	C1113.925293,551.773621 1113.925293,555.076233 1113.925293,558.694824 
	C1109.934204,558.694824 1106.229980,558.694824 1102.297485,558.694824 
	C1102.297485,537.962646 1102.297485,517.385498 1102.297485,496.395325 
	C1105.891357,496.395325 1109.597290,496.395325 1113.925293,496.395325 
	C1113.925293,513.342834 1113.925293,530.410950 1113.925293,547.974976 
z"/>
<path fill="#2B2B2B" opacity="1.000000" stroke="none" 
	d="
M996.804443,474.338257 
	C997.677368,472.922394 998.453186,471.253143 999.441528,471.116028 
	C1002.206238,470.732483 1005.058899,470.982513 1008.240356,470.982513 
	C1008.240356,474.899017 1008.240356,478.612854 1008.240356,482.677429 
	C1004.594849,482.677429 1000.871826,482.677429 996.804260,482.677429 
	C996.804260,480.070068 996.804260,477.427155 996.804443,474.338257 
z"/>
<path fill="#2B2B2B" opacity="1.000000" stroke="none" 
	d="
M1311.804443,476.113708 
	C1311.804443,474.197205 1311.804443,472.728760 1311.804443,471.139893 
	C1315.812012,471.139893 1319.433228,471.139893 1323.329590,471.139893 
	C1323.329590,475.035309 1323.329590,478.774780 1323.329590,482.768005 
	C1319.594604,482.768005 1316.000488,482.768005 1311.804321,482.768005 
	C1311.804321,480.730865 1311.804321,478.646332 1311.804443,476.113708 
z"/>
<path fill="#2A2A2A" opacity="1.000000" stroke="none" 
	d="
M1113.924561,474.175537 
	C1113.925171,477.264008 1113.925171,479.878845 1113.925171,482.752319 
	C1109.957153,482.752319 1106.370361,482.752319 1102.427734,482.752319 
	C1102.427734,479.108612 1102.427734,475.395111 1102.427734,470.994385 
	C1105.534546,470.994385 1108.795044,470.837250 1112.017456,471.117462 
	C1112.722534,471.178802 1113.291992,472.799408 1113.924561,474.175537 
z"/>
<path fill="#5F18EB" opacity="1.000000" stroke="none" 
	d="
M737.481873,259.836334 
	C737.605591,260.006683 737.514954,260.371368 737.189880,260.894592 
	C737.059509,260.712280 737.163513,260.371490 737.481873,259.836334 
z"/>
<path fill="#FFFEFD" opacity="1.000000" stroke="none" 
	d="
M1081.219238,195.235016 
	C1073.774414,218.923508 1062.384644,239.830124 1043.733154,256.007355 
	C1029.434692,268.409058 1012.981689,275.850189 993.466003,273.967194 
	C979.010559,272.572449 968.658508,265.314819 962.649658,251.891327 
	C955.385925,235.664352 955.217346,218.555649 956.314514,201.362518 
	C957.589844,181.376343 963.263062,162.447800 971.431946,143.773529 
	C972.859985,148.847214 973.907532,153.710144 975.617065,158.327972 
	C977.399780,163.143463 979.502319,167.901749 982.017639,172.374252 
	C992.898682,191.721649 1011.261108,199.983566 1031.574707,194.929749 
	C1048.706909,190.667404 1060.609375,172.762848 1057.874268,155.367813 
	C1056.455688,146.346359 1050.568115,140.807617 1041.509277,139.972488 
	C1027.821167,138.710587 1020.543762,132.321732 1019.950500,121.046104 
	C1019.189270,106.577988 1026.046997,97.422417 1039.591187,94.824387 
	C1058.825317,91.134918 1075.047119,100.743172 1081.970337,119.695488 
	C1087.894531,135.913254 1088.318481,152.656738 1086.465454,169.470795 
	C1085.523804,178.015152 1083.089478,186.394974 1081.219238,195.235016 
z"/>
<path fill="#FFFEFE" opacity="1.000000" stroke="none" 
	d="
M1276.125000,250.112030 
	C1266.662109,259.717285 1256.085571,266.604858 1242.738525,268.256683 
	C1224.484131,270.515869 1210.574951,261.997345 1203.940308,244.702652 
	C1197.848511,228.822479 1197.712280,212.444061 1200.289917,195.991531 
	C1203.533325,175.289780 1210.954346,156.141342 1223.922729,139.519196 
	C1232.784668,128.160461 1243.633789,119.185745 1258.027954,115.648277 
	C1281.262451,109.938263 1299.144287,120.557854 1303.906128,143.951019 
	C1311.969604,183.564163 1303.186523,219.136841 1276.125000,250.112030 
z"/>
<path fill="#FEFDFF" opacity="1.000000" stroke="none" 
	d="
M264.011963,278.148773 
	C250.059967,274.850067 244.202713,267.571930 243.737518,253.408844 
	C243.020218,231.571579 255.440842,212.431976 274.529877,206.573929 
	C282.659729,204.079056 290.902863,204.055771 298.876038,207.774277 
	C306.495697,211.327881 310.566711,217.548706 311.773865,225.552444 
	C315.409393,249.656799 296.634216,275.646149 274.808411,278.247711 
	C271.398834,278.654114 267.892273,278.247009 264.011963,278.148773 
z"/>
<path fill="#FFFEFD" opacity="1.000000" stroke="none" 
	d="
M1539.218506,241.213287 
	C1546.707886,230.803299 1553.986816,220.680984 1561.288940,210.575317 
	C1562.260010,209.231506 1563.258057,207.885986 1564.400024,206.690765 
	C1568.020020,202.902161 1570.991821,202.830093 1573.552246,207.465378 
	C1576.903564,213.532120 1579.883545,219.927643 1582.041870,226.503784 
	C1586.385986,239.739487 1587.645630,253.045319 1581.129028,266.228821 
	C1571.422485,285.865967 1543.565063,287.616943 1530.244995,276.714996 
	C1528.343628,275.158813 1526.598877,273.222229 1525.322021,271.131622 
	C1522.739014,266.901672 1521.957153,262.758636 1525.787720,258.382996 
	C1530.488770,253.012894 1534.631470,247.153870 1539.218506,241.213287 
z"/>
<path fill="#FCFCFC" opacity="1.000000" stroke="none" 
	d="
M1070.719482,510.408630 
	C1076.764893,520.485962 1076.489136,530.852661 1072.709229,540.978333 
	C1069.733521,548.949829 1062.670410,551.567017 1054.536865,551.454163 
	C1046.567749,551.343628 1040.137207,548.416260 1037.055664,540.661621 
	C1033.605835,531.980347 1033.528320,523.012329 1037.053101,514.364563 
	C1042.250854,501.613037 1060.209351,499.446136 1070.719482,510.408630 
z"/>
<path fill="#FCFCFC" opacity="1.000000" stroke="none" 
	d="
M539.018311,551.452026 
	C525.945435,550.295349 519.875977,544.004333 519.191040,531.295105 
	C519.066101,528.976929 519.061951,526.642456 519.169250,524.323242 
	C519.874573,509.089478 528.893555,501.661346 543.869507,503.960266 
	C550.989746,505.053314 556.237488,509.179291 557.589355,515.978394 
	C558.916748,522.654785 559.319458,529.872986 558.297058,536.574036 
	C556.793945,546.425720 550.569397,550.627319 539.018311,551.452026 
z"/>
<path fill="#FAFAFA" opacity="1.000000" stroke="none" 
	d="
M679.623901,543.432556 
	C671.245728,552.628967 661.036682,554.302979 649.866821,551.716736 
	C645.808167,550.776978 642.715637,548.148560 642.205017,543.558411 
	C641.658875,538.648743 643.809021,534.519653 648.227173,533.219238 
	C655.928528,530.952515 663.924866,529.603027 671.865417,528.274658 
	C675.218201,527.713684 678.742981,528.181213 683.748779,528.181213 
	C682.347229,533.545471 681.095093,538.337891 679.623901,543.432556 
z"/>
<path fill="#FBFBFB" opacity="1.000000" stroke="none" 
	d="
M1257.603516,528.399292 
	C1258.670654,546.948425 1240.570801,558.769226 1223.717529,551.081848 
	C1220.295044,549.520752 1218.051636,547.169678 1217.734619,543.223633 
	C1217.371826,538.705139 1219.275635,535.125854 1223.182373,533.442566 
	C1227.689819,531.500427 1232.536499,529.956421 1237.381104,529.281189 
	C1243.927612,528.368652 1250.612427,528.448547 1257.603516,528.399292 
z"/>
<path fill="#FCFCFC" opacity="1.000000" stroke="none" 
	d="
M779.844727,505.601288 
	C796.355896,497.778015 810.850952,506.180023 811.571716,523.769592 
	C798.106201,523.769592 784.647339,523.769592 770.551758,523.769592 
	C771.155884,516.421082 773.304932,510.168457 779.844727,505.601288 
z"/>
<path fill="#FBFBFB" opacity="1.000000" stroke="none" 
	d="
M368.920837,523.955505 
	C357.475983,523.955505 346.521942,523.955505 335.591248,523.955505 
	C334.732941,512.667480 342.446472,503.638824 353.339600,502.876038 
	C366.904266,501.926178 375.217529,509.373596 376.099609,523.955505 
	C373.865387,523.955505 371.638489,523.955505 368.920837,523.955505 
z"/>
<path fill="#FBFBFB" opacity="1.000000" stroke="none" 
	d="
M452.017303,523.956604 
	C447.722198,523.956604 443.923309,523.956604 440.119324,523.956604 
	C440.430786,510.792267 448.374054,502.636047 460.493591,502.632629 
	C472.582794,502.629242 480.614868,510.879303 480.865509,523.956604 
	C471.413483,523.956604 461.963470,523.956604 452.017303,523.956604 
z"/>
<path fill="#FDFDFD" opacity="1.000000" stroke="none" 
	d="
M906.696106,503.730988 
	C915.564331,504.715942 921.321533,509.394379 922.944824,517.463318 
	C924.159485,523.501465 924.392822,530.099670 923.342468,536.149780 
	C921.565613,546.383850 914.210205,551.479187 903.614380,551.460754 
	C893.007935,551.442322 886.004639,546.337952 883.936462,536.054199 
	C882.940002,531.099182 882.726868,525.720276 883.479736,520.732605 
	C885.315979,508.566345 892.901794,503.198578 906.696106,503.730988 
z"/>
</svg>