<svg xmlns="http://www.w3.org/2000/svg" xmlns:xlink="http://www.w3.org/1999/xlink" version="1.1" x="0px" y="0px" viewBox="0 0 100 125" enable-background="new 0 0 100 100" xml:space="preserve"><g><g><rect x="30.686" y="81.781" width="38.629" height="2"/></g><g><path d="M78.906,34.923h-2c0-14.837-12.07-26.907-26.906-26.907c-14.837,0-26.907,12.07-26.907,26.907h-2    C21.093,18.983,34.061,6.016,50,6.016C65.938,6.016,78.906,18.983,78.906,34.923z"/></g><g><rect x="30.686" y="49.959" width="38.629" height="2"/></g><g><path d="M86.499,83.781H69.314c-0.553,0-1-0.447-1-1V44.47h2v37.312h15.185V44.47h2v38.312    C87.499,83.334,87.052,83.781,86.499,83.781z"/></g><g><path d="M30.686,83.781H13.501c-0.553,0-1-0.447-1-1V44.47h2v37.312h15.185V44.47h2v38.312    C31.686,83.334,31.238,83.781,30.686,83.781z"/></g><g><path d="M30.686,93.984h-7.711c-0.519,0-0.951-0.396-0.996-0.914l-0.882-10.203c-0.024-0.279,0.069-0.556,0.259-0.762    c0.189-0.207,0.457-0.324,0.737-0.324h8.593c0.553,0,1,0.447,1,1v10.203C31.686,93.537,31.238,93.984,30.686,93.984z     M23.892,91.984h5.794v-8.203h-6.503L23.892,91.984z"/></g><g><path d="M77.025,93.984h-7.711c-0.553,0-1-0.447-1-1V82.781c0-0.553,0.447-1,1-1h8.592c0.28,0,0.548,0.117,0.737,0.324    c0.189,0.206,0.283,0.482,0.259,0.762L78.021,93.07C77.978,93.588,77.544,93.984,77.025,93.984z M70.314,91.984h5.794l0.708-8.203    h-6.502V91.984z"/></g><g><path d="M77.907,53.475c-5.289,0-9.593-4.303-9.593-9.593c0-5.289,4.304-9.592,9.593-9.592s9.592,4.303,9.592,9.592    C87.499,49.171,83.196,53.475,77.907,53.475z M77.907,36.29c-4.187,0-7.593,3.406-7.593,7.592c0,4.187,3.406,7.593,7.593,7.593    s7.592-3.406,7.592-7.593C85.499,39.696,82.094,36.29,77.907,36.29z"/></g><g><path d="M22.093,53.107c-5.289,0-9.592-4.303-9.592-9.593c0-5.289,4.303-9.592,9.592-9.592s9.593,4.303,9.593,9.592    C31.686,48.804,27.382,53.107,22.093,53.107z M22.093,35.923c-4.187,0-7.592,3.406-7.592,7.592c0,4.187,3.405,7.593,7.592,7.593    s7.593-3.406,7.593-7.593C29.686,39.329,26.279,35.923,22.093,35.923z"/></g></g></svg>